<svg width="192" height="32" viewBox="0 0 192 32" fill="none" xmlns="http://www.w3.org/2000/svg">
<g clip-path="url(#clip0_1210_18750)">
<path d="M11.2443 7.99999H4.00031L3.84831 8.00799C3.62678 8.03352 3.41518 8.1142 3.23289 8.24265C3.05059 8.37111 2.90343 8.54323 2.80487 8.74327C2.70631 8.94331 2.6595 9.16488 2.66872 9.38769C2.67794 9.61051 2.7429 9.82745 2.85765 10.0187L6.44431 16L2.85765 21.9813L2.78565 22.1147C2.69324 22.3178 2.65332 22.541 2.66954 22.7636C2.68577 22.9862 2.75761 23.2012 2.8785 23.3888C2.99939 23.5764 3.16544 23.7307 3.36144 23.8375C3.55744 23.9443 3.77711 24.0002 4.00031 24H11.2456L14.8576 30.0187L14.9563 30.1627C15.0904 30.3312 15.2633 30.4648 15.4603 30.5519C15.6573 30.639 15.8724 30.6772 16.0873 30.663C16.3023 30.6489 16.5105 30.5828 16.6944 30.4706C16.8782 30.3584 17.0321 30.2033 17.143 30.0187L20.7536 24H28.0003L28.1523 23.992C28.3738 23.9665 28.5854 23.8858 28.7677 23.7573C28.95 23.6289 29.0972 23.4568 29.1958 23.2567C29.2943 23.0567 29.3411 22.8351 29.3319 22.6123C29.3227 22.3895 29.2577 22.1725 29.143 21.9813L25.555 16L29.143 10.0187L29.215 9.88533C29.3074 9.68215 29.3473 9.45903 29.3311 9.23642C29.3149 9.01381 29.243 8.79883 29.1221 8.6112C29.0012 8.42356 28.8352 8.26928 28.6392 8.16249C28.4432 8.05571 28.2235 7.99983 28.0003 7.99999H20.755L17.143 1.98133C17.0244 1.78419 16.8569 1.62108 16.6567 1.50784C16.4565 1.3946 16.2303 1.33508 16.0003 1.33508C15.7703 1.33508 15.5442 1.3946 15.3439 1.50784C15.1437 1.62108 14.9762 1.78419 14.8576 1.98133L11.2443 7.99999Z" fill="#FFBF00"/>
</g>
<g clip-path="url(#clip1_1210_18750)">
<path d="M51.2443 7.99999H44.0003L43.8483 8.00799C43.6268 8.03352 43.4152 8.1142 43.2329 8.24265C43.0506 8.37111 42.9034 8.54323 42.8049 8.74327C42.7063 8.94331 42.6595 9.16488 42.6687 9.38769C42.6779 9.61051 42.7429 9.82745 42.8576 10.0187L46.4443 16L42.8576 21.9813L42.7856 22.1147C42.6932 22.3178 42.6533 22.541 42.6695 22.7636C42.6858 22.9862 42.7576 23.2012 42.8785 23.3888C42.9994 23.5764 43.1654 23.7307 43.3614 23.8375C43.5574 23.9443 43.7771 24.0002 44.0003 24H51.2456L54.8576 30.0187L54.9563 30.1627C55.0904 30.3312 55.2633 30.4648 55.4603 30.5519C55.6573 30.639 55.8724 30.6772 56.0873 30.663C56.3023 30.6489 56.5105 30.5828 56.6944 30.4706C56.8782 30.3584 57.0321 30.2033 57.143 30.0187L60.7536 24H68.0003L68.1523 23.992C68.3738 23.9665 68.5854 23.8858 68.7677 23.7573C68.95 23.6289 69.0972 23.4568 69.1958 23.2567C69.2943 23.0567 69.3411 22.8351 69.3319 22.6123C69.3227 22.3895 69.2577 22.1725 69.143 21.9813L65.555 16L69.143 10.0187L69.215 9.88533C69.3074 9.68215 69.3473 9.45903 69.3311 9.23642C69.3149 9.01381 69.243 8.79883 69.1221 8.6112C69.0012 8.42356 68.8352 8.26928 68.6392 8.16249C68.4432 8.05571 68.2235 7.99983 68.0003 7.99999H60.755L57.143 1.98133C57.0244 1.78419 56.8569 1.62108 56.6567 1.50784C56.4565 1.3946 56.2303 1.33508 56.0003 1.33508C55.7703 1.33508 55.5442 1.3946 55.3439 1.50784C55.1437 1.62108 54.9762 1.78419 54.8576 1.98133L51.2443 7.99999Z" fill="#FFBF00"/>
</g>
<g clip-path="url(#clip2_1210_18750)">
<path d="M91.2443 7.99999H84.0003L83.8483 8.00799C83.6268 8.03352 83.4152 8.1142 83.2329 8.24265C83.0506 8.37111 82.9034 8.54323 82.8049 8.74327C82.7063 8.94331 82.6595 9.16488 82.6687 9.38769C82.6779 9.61051 82.7429 9.82745 82.8576 10.0187L86.4443 16L82.8576 21.9813L82.7856 22.1147C82.6932 22.3178 82.6533 22.541 82.6695 22.7636C82.6858 22.9862 82.7576 23.2012 82.8785 23.3888C82.9994 23.5764 83.1654 23.7307 83.3614 23.8375C83.5574 23.9443 83.7771 24.0002 84.0003 24H91.2456L94.8576 30.0187L94.9563 30.1627C95.0904 30.3312 95.2633 30.4648 95.4603 30.5519C95.6573 30.639 95.8724 30.6772 96.0873 30.663C96.3023 30.6489 96.5105 30.5828 96.6944 30.4706C96.8782 30.3584 97.0321 30.2033 97.143 30.0187L100.754 24H108L108.152 23.992C108.374 23.9665 108.585 23.8858 108.768 23.7573C108.95 23.6289 109.097 23.4568 109.196 23.2567C109.294 23.0567 109.341 22.8351 109.332 22.6123C109.323 22.3895 109.258 22.1725 109.143 21.9813L105.555 16L109.143 10.0187L109.215 9.88533C109.307 9.68215 109.347 9.45903 109.331 9.23642C109.315 9.01381 109.243 8.79883 109.122 8.6112C109.001 8.42356 108.835 8.26928 108.639 8.16249C108.443 8.05571 108.224 7.99983 108 7.99999H100.755L97.143 1.98133C97.0244 1.78419 96.8569 1.62108 96.6567 1.50784C96.4565 1.3946 96.2303 1.33508 96.0003 1.33508C95.7703 1.33508 95.5442 1.3946 95.3439 1.50784C95.1437 1.62108 94.9762 1.78419 94.8576 1.98133L91.2443 7.99999Z" fill="#FFBF00"/>
</g>
<g clip-path="url(#clip3_1210_18750)">
<path d="M131.244 7.99999H124L123.848 8.00799C123.627 8.03352 123.415 8.1142 123.233 8.24265C123.051 8.37111 122.903 8.54323 122.805 8.74327C122.706 8.94331 122.659 9.16488 122.669 9.38769C122.678 9.61051 122.743 9.82745 122.858 10.0187L126.444 16L122.858 21.9813L122.786 22.1147C122.693 22.3178 122.653 22.541 122.67 22.7636C122.686 22.9862 122.758 23.2012 122.878 23.3888C122.999 23.5764 123.165 23.7307 123.361 23.8375C123.557 23.9443 123.777 24.0002 124 24H131.246L134.858 30.0187L134.956 30.1627C135.09 30.3312 135.263 30.4648 135.46 30.5519C135.657 30.639 135.872 30.6772 136.087 30.663C136.302 30.6489 136.511 30.5828 136.694 30.4706C136.878 30.3584 137.032 30.2033 137.143 30.0187L140.754 24H148L148.152 23.992C148.374 23.9665 148.585 23.8858 148.768 23.7573C148.95 23.6289 149.097 23.4568 149.196 23.2567C149.294 23.0567 149.341 22.8351 149.332 22.6123C149.323 22.3895 149.258 22.1725 149.143 21.9813L145.555 16L149.143 10.0187L149.215 9.88533C149.307 9.68215 149.347 9.45903 149.331 9.23642C149.315 9.01381 149.243 8.79883 149.122 8.6112C149.001 8.42356 148.835 8.26928 148.639 8.16249C148.443 8.05571 148.224 7.99983 148 7.99999H140.755L137.143 1.98133C137.024 1.78419 136.857 1.62108 136.657 1.50784C136.456 1.3946 136.23 1.33508 136 1.33508C135.77 1.33508 135.544 1.3946 135.344 1.50784C135.144 1.62108 134.976 1.78419 134.858 1.98133L131.244 7.99999Z" fill="#FFBF00"/>
</g>
<g clip-path="url(#clip4_1210_18750)">
<path d="M171.244 7.99999H164L163.848 8.00799C163.627 8.03352 163.415 8.1142 163.233 8.24265C163.051 8.37111 162.903 8.54323 162.805 8.74327C162.706 8.94331 162.659 9.16488 162.669 9.38769C162.678 9.61051 162.743 9.82745 162.858 10.0187L166.444 16L162.858 21.9813L162.786 22.1147C162.693 22.3178 162.653 22.541 162.67 22.7636C162.686 22.9862 162.758 23.2012 162.878 23.3888C162.999 23.5764 163.165 23.7307 163.361 23.8375C163.557 23.9443 163.777 24.0002 164 24H171.246L174.858 30.0187L174.956 30.1627C175.09 30.3312 175.263 30.4648 175.46 30.5519C175.657 30.639 175.872 30.6772 176.087 30.663C176.302 30.6489 176.511 30.5828 176.694 30.4706C176.878 30.3584 177.032 30.2033 177.143 30.0187L180.754 24H188L188.152 23.992C188.374 23.9665 188.585 23.8858 188.768 23.7573C188.95 23.6289 189.097 23.4568 189.196 23.2567C189.294 23.0567 189.341 22.8351 189.332 22.6123C189.323 22.3895 189.258 22.1725 189.143 21.9813L185.555 16L189.143 10.0187L189.215 9.88533C189.307 9.68215 189.347 9.45903 189.331 9.23642C189.315 9.01381 189.243 8.79883 189.122 8.6112C189.001 8.42356 188.835 8.26928 188.639 8.16249C188.443 8.05571 188.224 7.99983 188 7.99999H180.755L177.143 1.98133C177.024 1.78419 176.857 1.62108 176.657 1.50784C176.456 1.3946 176.23 1.33508 176 1.33508C175.77 1.33508 175.544 1.3946 175.344 1.50784C175.144 1.62108 174.976 1.78419 174.858 1.98133L171.244 7.99999Z" fill="#FFBF00"/>
</g>
<defs>
<clipPath id="clip0_1210_18750">
<rect width="32" height="32" fill="white"/>
</clipPath>
<clipPath id="clip1_1210_18750">
<rect width="32" height="32" fill="white" transform="translate(40)"/>
</clipPath>
<clipPath id="clip2_1210_18750">
<rect width="32" height="32" fill="white" transform="translate(80)"/>
</clipPath>
<clipPath id="clip3_1210_18750">
<rect width="32" height="32" fill="white" transform="translate(120)"/>
</clipPath>
<clipPath id="clip4_1210_18750">
<rect width="32" height="32" fill="white" transform="translate(160)"/>
</clipPath>
</defs>
</svg>
