<svg width="150" height="150" viewBox="0 0 150 150" fill="none" xmlns="http://www.w3.org/2000/svg">
<g id="Group 1000002439">
<circle id="Ellipse 850" cx="74.8969" cy="74.8969" r="74.8969" fill="#ED1A3B"/>
<path id="Vector" fill-rule="evenodd" clip-rule="evenodd" d="M34.6436 94.8861C34.8028 95.9646 34.0572 96.9656 32.9837 97.1236C31.9002 97.2818 30.9061 96.5352 30.7471 95.4566C30.5881 94.3801 31.3335 93.377 32.407 93.219C33.4905 93.063 34.4945 93.8084 34.6436 94.8861ZM88.3531 52.7937C93.8434 58.8861 97.9406 64.1767 100.644 68.9232C105.77 77.9241 104.501 86.9975 99.4754 93.6391L94.9939 96.2493C93.7881 96.9515 92.5596 97.3966 91.2899 97.6143C91.8195 96.9103 92.2294 96.068 92.4931 95.091C93.49 91.3961 91.2785 87.7423 87.7283 86.5119L87.4985 86.4324L87.2593 86.3886C86.4387 86.2383 85.6231 86.0686 84.812 85.8824C85.5367 84.9131 85.9619 83.7194 85.9275 82.2818C85.9215 82.0345 85.9074 81.8168 85.8849 81.6309C85.5976 79.2634 84.3167 77.7223 82.6184 76.697C81.1267 75.7962 79.3376 75.3477 77.6974 75.0785C76.5145 74.8843 75.2685 74.5555 74.3559 73.9598C73.6489 73.4981 73.1417 72.83 73.0944 71.8528C73.043 70.7954 73.5047 69.9425 74.232 69.3512C74.8016 68.8879 75.5285 68.5662 76.3165 68.4076C76.6335 68.3437 76.9598 68.3069 77.2891 68.2984C77.3239 68.3004 77.3591 68.3015 77.3946 68.3015C77.4372 68.3015 77.4795 68.2999 77.5213 68.297C77.9569 68.3033 78.3956 68.3592 78.8243 68.4679C80.1417 68.8018 81.3412 69.6701 81.9729 71.1746C82.3514 72.0768 83.3899 72.5016 84.2921 72.123C85.1943 71.7445 85.6191 70.706 85.2406 69.8037C84.1283 67.1546 82.0106 65.624 79.6827 65.0339C79.5119 64.9907 79.3398 64.9527 79.1669 64.9198V63.5465C79.1669 62.5677 78.3734 61.7742 77.3946 61.7742C76.4158 61.7742 75.6222 62.5677 75.6222 63.5465V64.9463C74.2795 65.2171 73.0186 65.7838 72.0028 66.6096C70.4418 67.8787 69.452 69.7213 69.5636 72.0189C69.6757 74.3273 70.8276 75.8758 72.4314 76.9228C73.8294 77.8356 75.5464 78.3077 77.1297 78.5676C78.4014 78.7763 79.7591 79.1064 80.7908 79.7293C81.6158 80.2273 82.2356 80.9554 82.3681 82.0462C82.3856 82.1917 82.3952 82.2973 82.3968 82.3648C82.4173 83.2321 82.0024 83.893 81.3794 84.3659C81.1679 84.5263 80.9333 84.669 80.6818 84.7941C76.104 83.4476 71.8509 81.7022 67.3303 80.2357C62.6108 78.7043 58.2127 80.4372 54.1354 82.7993L51.3584 84.4083C50.4747 79.5635 51.2709 74.2312 54.2938 68.9234C56.9972 64.1771 61.0944 58.8863 66.5845 52.7941C67.2734 53.0186 68.008 53.1403 68.7701 53.1403H86.1677C86.9296 53.1401 87.664 53.0182 88.3531 52.7937ZM68.7699 49.9564H86.1675C88.3125 49.9564 90.0673 48.2014 90.0673 46.057C90.0673 43.912 88.3127 42.1573 86.1675 42.1573H68.7699C66.6249 42.1573 64.8703 43.912 64.8703 46.0568C64.8701 48.2016 66.6249 49.9564 68.7699 49.9564ZM68.628 38.9752L65.425 35.7722C63.8666 34.2138 63.8666 31.6635 65.425 30.105C66.7506 28.7794 68.8489 28.5554 70.4264 29.5678C71.0122 29.9439 71.6852 30.0038 72.3283 29.7377C72.9712 29.4713 73.4044 28.9533 73.553 28.273C73.9458 26.474 75.5564 25.1164 77.469 25.116C79.347 25.116 80.9848 26.4398 81.3852 28.273C81.5336 28.9533 81.967 29.4713 82.6099 29.7377C83.253 30.0041 83.9257 29.9439 84.5114 29.5678C86.0608 28.5733 88.1603 28.7526 89.5127 30.1046V30.105C91.0712 31.6635 91.0712 34.2138 89.5127 35.7722L86.3097 38.9752C86.2626 38.9742 86.2152 38.9734 86.1677 38.9734H68.7701C68.7226 38.9734 68.6752 38.9744 68.628 38.9752ZM40.9992 94.0888L51.6193 112.829L55.6152 110.523C56.0029 110.298 56.4603 110.239 56.8977 110.355L81.9936 115.882C85.3136 116.77 88.4351 116.332 91.2879 114.578L121.763 95.638C123.423 94.6202 123.93 91.6319 122.787 89.7185C121.127 86.9471 116.733 87.2742 111.027 90.5952L96.5963 99.0002C93.5943 100.754 90.3536 101.321 86.7055 100.737C86.0395 100.629 85.3835 100.515 84.7374 100.391C84.5981 100.381 72.4608 97.2259 71.0693 96.851C70.1648 96.6105 69.6279 95.686 69.8764 94.7886C70.115 93.888 71.0395 93.3551 71.9341 93.5957C73.3556 93.9763 81.964 96.4167 85.1947 97.045C86.8448 97.1503 88.7632 96.691 89.4194 94.2617C89.9563 92.2697 88.7831 90.2468 86.6858 89.5201C80.7912 88.4407 75.0951 86.384 70.5225 84.7281C68.9221 84.1504 67.5404 83.6514 66.3475 83.2638C62.5899 82.0452 59.0214 83.6446 55.731 85.554L40.9992 94.0888ZM51.2343 119.022L34.9914 90.3213C34.8324 90.0409 34.5739 89.8399 34.2558 89.7516C34.1465 89.7227 34.0373 89.7078 33.9276 89.7078C33.7191 89.7078 33.5201 89.7605 33.3412 89.862L27.8143 92.9882C27.2279 93.3193 27.0289 94.0617 27.3569 94.6433L43.5997 123.344C43.9279 123.928 44.6734 124.133 45.2499 123.804L50.7768 120.676C51.0552 120.518 51.254 120.257 51.3433 119.944C51.433 119.63 51.3932 119.303 51.2343 119.022Z" fill="white"/>
</g>
</svg>
