<svg width="975" height="744" viewBox="0 0 975 744" fill="none" xmlns="http://www.w3.org/2000/svg">
<g opacity="0.2">
<path d="M218.786 187.317C206.555 181.564 186.327 190.918 179.875 204.604C167.563 230.728 207.384 268.564 221.864 264.503C238.048 259.965 241.241 197.878 218.784 187.317H218.786Z" stroke="#FF3A24" stroke-width="4.42341" stroke-miterlimit="10" stroke-linecap="round" stroke-dasharray="11.06 11.06 11.06 11.06 11.06 11.06"/>
<path d="M157.608 246.489C153.242 243.963 107.004 217.217 80.8351 238.385C62.4603 253.248 62.2856 285.021 76.0932 302.877C103.441 338.242 188.242 322.386 197.04 297.08C202.966 280.038 175.147 256.634 157.608 246.489Z" stroke="#FF3A24" stroke-width="4.42341" stroke-miterlimit="10" stroke-linecap="round" stroke-dasharray="11.06 11.06 11.06 11.06 11.06 11.06"/>
<path d="M217.104 683.195C329.656 655.259 457.543 626.818 656.128 631.662C767.189 634.371 792.356 599.906 876.527 557.055C951.55 518.863 988.397 442.917 965.767 399.875C942.92 356.422 873.331 373.722 816.34 309.038C790.385 279.578 794.952 258.93 779.968 226.261C732.516 122.817 554.666 41.9639 466.965 84.7537C351.101 141.283 450.154 385.537 320.639 452.26C238.715 494.468 176.794 413.442 95.9029 475.294C55.8224 505.942 6.80217 548.933 3.01131 595.611C3.01131 595.611 -2.29679 709.735 217.104 683.195Z" stroke="#FF3A24" stroke-width="4.42341" stroke-miterlimit="10" stroke-linecap="round" stroke-dasharray="11.06 11.06 11.06 11.06 11.06 11.06"/>
<path d="M838.939 556.089C838.939 556.089 818.551 583.12 798.159 620.208C779.775 653.654 765.795 698.72 762.708 736.345C754.049 735.936 744.539 735.551 734.256 735.186C673.359 733.025 585.444 731.672 487.689 731.672C376.555 731.672 278.141 733.423 217.684 736.117C215.603 736.21 213.566 736.303 211.575 736.398C136.096 642.845 -15.8944 479.858 123.978 412.808C123.978 412.808 134.225 409.687 149.588 402.984C198.21 381.762 298.126 324.658 287.012 216.99C287.012 216.99 283.225 196.899 283.225 168.943C283.225 103.574 303.92 -4.78182 442.081 0.163554C525.748 3.16263 602.801 45.738 649.387 113.885C695.08 180.725 768.142 262.963 827.641 216.013C841.376 205.171 859.536 201.154 876.491 205.921C919.319 217.95 967.972 280.225 838.939 556.089Z" fill="#FFC0B9"/>
</g>
<path d="M731.385 495.743C731.385 630.33 622.277 739.438 487.69 739.438C432.603 739.438 381.778 721.16 340.964 690.327C282.064 645.849 243.996 575.24 243.996 495.743C243.996 457.929 252.615 422.129 267.991 390.194C268.011 390.152 268.031 390.11 268.053 390.068C268.661 388.807 269.28 387.555 269.908 386.306C270.041 386.042 270.174 385.781 270.306 385.52C270.835 384.481 271.37 383.446 271.914 382.413C272.087 382.083 272.259 381.756 272.434 381.427C272.967 380.425 273.509 379.427 274.055 378.434C274.223 378.127 274.389 377.819 274.559 377.514C275.269 376.238 275.986 374.968 276.718 373.706C277.461 372.405 278.229 371.116 279.007 369.833C279.786 368.55 280.571 367.274 281.369 366.002C282.561 364.102 283.791 362.213 285.045 360.349C285.448 359.743 285.855 359.144 286.268 358.538C286.31 358.471 286.359 358.405 286.394 358.345C286.79 357.777 287.179 357.206 287.575 356.642C288 356.032 288.433 355.419 288.865 354.809C289.296 354.198 289.734 353.592 290.172 352.986C290.61 352.38 291.052 351.774 291.497 351.175C292.828 349.363 294.182 347.583 295.562 345.82C295.969 345.298 296.378 344.776 296.785 344.261C296.911 344.106 297.03 343.956 297.145 343.805C297.541 343.319 297.931 342.835 298.315 342.355C298.351 342.306 298.388 342.264 298.424 342.229C299.342 341.096 300.271 339.975 301.206 338.86C301.536 338.471 301.865 338.082 302.195 337.697C302.602 337.21 303.011 336.732 303.429 336.257C303.968 335.633 304.515 335.01 305.059 334.392C306.229 333.068 307.41 331.761 308.609 330.467C309.033 330 309.467 329.538 309.898 329.075C311.528 327.337 313.182 325.623 314.861 323.938C315.208 323.59 315.551 323.243 315.898 322.9C316.228 322.571 316.558 322.248 316.887 321.923C317.217 321.593 317.553 321.27 317.889 320.945C318.453 320.395 319.021 319.848 319.592 319.302C363.32 277.625 422.52 252.04 487.697 252.04C570.828 252.04 644.237 293.668 688.217 357.215C693.919 365.447 699.121 374.044 703.781 382.97C704.871 385.045 705.926 387.137 706.946 389.247C707.288 389.948 707.629 390.656 707.965 391.364C708.301 392.072 708.631 392.779 708.961 393.487C710.285 396.329 711.544 399.2 712.749 402.102C713.961 405.003 715.118 407.934 716.208 410.891C717.586 414.584 718.876 418.324 720.063 422.102C720.302 422.858 720.537 423.613 720.771 424.373C721.941 428.162 723.007 431.999 723.978 435.865C724.571 438.186 725.124 440.523 725.639 442.874C725.964 444.341 726.269 445.814 726.568 447.289C726.608 447.486 726.648 447.685 726.687 447.882C729.773 463.355 731.394 479.359 731.394 495.736L731.385 495.743Z" fill="#FEE3E4"/>
<path d="M652.61 320.856C651.06 319.611 649.271 319.783 647.65 321.077C647.083 321.531 646.524 321.993 645.951 322.437C645.602 322.709 645.175 323.026 644.759 322.833C642.883 321.971 640.714 322.181 638.889 321.303C635.43 319.64 631.69 319.084 628.025 318.198C626.276 317.775 624.579 317.182 622.896 316.475C621.12 315.727 619.484 314.579 617.48 314.343C614.662 314.009 611.851 313.692 609.754 313.807C607.405 313.807 605.804 313.803 604.203 313.816C603.55 313.823 602.781 313.71 602.321 314.197C600.68 315.931 598.45 315.61 596.429 315.999C595.867 316.108 595.268 315.986 594.766 316.384C591.826 318.72 588.734 320.876 586.323 323.815C586.049 324.149 585.704 324.428 585.372 324.711C583.546 326.268 581.721 327.818 580.339 329.818C579.797 330.601 579.091 331.233 578.306 331.777C576.689 332.899 575.057 334 573.168 334.615C571.547 335.141 570.466 336.559 568.88 337.143C565.326 338.455 565.452 338.348 565.677 342.681C565.728 343.674 566.17 344.647 566.436 345.629C566.606 346.26 566.823 346.881 566.944 347.52C567.298 349.369 568.466 350.48 570.286 350.597C571.79 350.694 573.177 350.345 574.385 349.411C574.902 349.011 575.389 348.569 575.917 348.184C576.63 347.664 577.255 347.611 578.069 348.213C580.047 349.668 581.294 351.731 582.789 353.585C583.455 354.41 583.181 355.217 582.272 355.79C581.657 356.177 581.035 356.56 580.469 357.009C580.022 357.365 580.022 357.898 580.17 358.415C580.332 358.986 580.779 359.324 581.314 359.218C583.293 358.827 585.412 358.855 587.159 357.685C588.037 357.097 588.885 356.597 589.955 356.65C591.052 356.706 591.519 356.022 591.78 355.122C592.184 353.729 592.658 352.34 592.647 350.864C592.638 349.794 592.985 349.051 594.098 348.737C594.575 348.602 595.033 348.325 595.442 348.033C597.685 346.432 597.8 344.866 595.832 343.013C595.566 342.765 595.287 342.531 595.009 342.299C592.797 340.443 593.047 337.911 595.575 336.544C596.216 336.199 596.856 335.851 597.488 335.491C599.28 334.476 600.892 333.334 601.728 331.286C602.243 330.021 603.36 329.23 604.798 329.157C605.74 329.108 606.689 329.192 607.635 329.221C608.014 329.232 608.39 329.327 608.567 329.681C608.836 330.223 608.348 330.457 608.036 330.72C606.598 331.932 605.337 333.328 603.601 334.215C601.92 335.073 600.697 336.345 601.031 338.563C601.507 341.708 602.657 344.26 606.041 345.158C606.182 345.196 606.326 345.222 606.459 345.282C607.766 345.855 608.502 346.945 608.396 348.142C608.257 349.732 607.64 350.652 606.061 350.856C603.964 351.125 603.011 352.311 602.661 354.226C602.571 354.724 602.482 355.224 602.367 355.719C601.717 358.55 600.085 360.019 597.548 359.727C596.822 359.643 596.104 359.862 595.385 359.919C592.868 360.116 590.674 361.361 588.296 362.007C587.646 362.184 587.08 362.469 586.556 361.755C585.164 359.855 583.468 359.871 581.566 360.959C580.876 361.355 580.179 361.532 579.315 361.096C577.408 360.134 576.864 359.353 577.534 357.296C577.985 355.909 577.932 354.573 577.777 353.211C577.689 352.435 577.251 351.853 576.329 351.904C574.935 351.981 573.151 353.561 572.666 354.941C572.076 356.622 572.027 358.327 572.224 360.05C572.359 361.237 571.938 361.996 570.839 362.456C569.767 362.905 568.751 363.5 567.659 363.887C565.945 364.497 564.456 365.515 563.519 366.97C562.251 368.939 560.252 369.803 558.434 370.931C557.543 371.484 556.706 371.915 556.319 372.97C555.702 374.645 553.829 374.556 552.646 375.456C551.987 375.958 551.277 375.463 550.584 375.24C549.58 374.915 548.406 374.771 547.831 375.824C546.942 377.451 545.562 377.706 543.965 377.692C542.939 377.684 541.932 377.81 540.961 378.161C540.537 378.316 540.143 378.515 540.116 379.033C540.079 379.816 541.331 381.488 542.178 381.539C545.115 381.716 546.584 383.832 548.072 385.893C549.01 387.192 549.311 388.654 548.671 390.231C548.373 390.967 548.238 391.752 548.127 392.555C547.866 394.475 547.49 394.749 545.602 394.725C545.093 394.718 544.575 394.734 544.075 394.654C540.207 394.046 536.29 394.141 532.4 393.833C531.96 393.798 531.52 393.827 531.144 394.097C529.713 395.121 527.649 395.663 528.551 398.268C528.888 399.239 528.034 400.409 528.355 401.49C528.737 402.775 528.372 403.91 527.983 405.1C527.638 406.155 526.992 407.04 526.539 408.028C526.3 408.546 525.82 409.194 526.291 409.649C527.519 410.839 527.262 412.314 527.286 413.739C527.304 414.854 527.875 415.309 528.921 415.314C529.286 415.314 529.657 415.364 530.011 415.307C531.865 415.004 533.384 415.546 534.819 416.787C535.941 417.757 537.493 418.246 538.878 417.596C540.008 417.065 541.103 416.853 542.238 416.994C545.239 417.366 547.181 415.422 549.027 413.695C549.919 412.861 550.312 411.344 551.204 410.286C551.381 410.076 551.365 409.523 551.217 409.247C550.691 408.265 551.219 407.595 551.757 406.887C552.329 406.135 552.94 405.403 553.427 404.596C553.986 403.665 554.645 403.131 555.8 402.959C557.366 402.727 558.44 401.49 559.573 400.484C560.367 399.776 560.044 398.713 560.106 397.786C560.219 396.092 561.336 395.088 563.189 395.227C564.262 395.306 565.312 395.68 566.378 395.888C567.082 396.025 567.88 396.514 568.49 396.098C569.924 395.127 571.562 394.539 572.991 393.617C574.761 392.475 574.964 392.358 576.519 393.65C577.092 394.125 577.545 394.694 577.828 395.371C578.352 396.618 579.25 397.547 580.232 398.432C582.347 400.336 584.603 402.012 587.252 403.12C589.192 403.93 590.499 405.547 591.808 407.077C592.981 408.448 592.08 410.375 590.313 410.895C588.517 411.423 586.715 411.271 584.904 411.262C584.295 411.257 583.672 411.359 583.461 412.003C583.238 412.686 583.771 413.071 584.286 413.367C585.859 414.276 587.56 414.933 589.121 415.88C590.119 416.486 591.072 415.944 591.07 414.73C591.065 413.283 591.724 412.617 592.974 412.253C594.522 411.799 594.816 410.355 595.447 409.15C595.927 408.232 595.641 407.546 595.226 406.712C594.761 405.786 595.312 405.204 596.351 405.248C597.077 405.279 597.499 405.839 598.092 406.089C598.866 406.414 599.348 406.064 599.381 405.224C599.417 404.279 598.782 403.746 598.136 403.297C596.588 402.218 594.962 401.249 593.423 400.157C592.709 399.65 592.027 399.265 591.152 399.004C589.637 398.555 588.111 397.768 587.458 396.22C586.949 395.015 586.233 394.117 585.229 393.358C584.886 393.099 584.572 392.761 584.348 392.396C583.831 391.553 583.957 390.109 584.587 389.552C585.304 388.917 586.226 388.616 586.976 389.249C588.349 390.408 590.048 391.184 591.017 392.845C591.696 394.01 592.881 394.716 594.173 395.01C595.088 395.22 595.79 395.627 596.38 396.291C596.825 396.788 597.349 397.167 597.933 397.472C600.383 398.75 601.405 400.856 601.456 403.532C601.469 404.18 601.325 404.879 601.79 405.425C603.44 407.367 604.152 409.95 606.081 411.697C606.713 412.272 607.054 413.086 607.056 413.834C607.06 416.004 608.575 416.426 610.174 416.795C611.466 417.094 611.842 416.866 612.304 415.628C613.313 412.918 614.374 410.213 612.988 407.305C612.928 407.179 612.924 407.022 612.908 406.878C612.769 405.595 614.016 403.583 615.031 403.443C616.916 403.182 618.818 404.534 618.966 406.279C619.039 407.148 619.079 408.026 619.037 408.897C618.948 410.726 619.537 412.381 620.514 413.834C621.359 415.086 622.445 416.169 624.223 416.103C625.634 416.05 626.939 416.663 628.167 417.24C629.213 417.731 630.078 417.932 630.953 417.109C631.577 416.526 632.201 416.583 632.962 416.8C634.01 417.096 635.036 417.375 636.025 417.875C637.449 418.594 638.924 418.667 640.34 417.685C640.809 417.359 641.357 417.085 641.908 416.957C643.377 416.616 644.989 417.463 645.124 418.819C645.29 420.469 645.619 422.232 644.998 423.795C644.405 425.288 643.905 426.768 643.573 428.336C643.306 429.606 642.987 430.908 642.421 432.065C641.696 433.547 641.66 434.949 642.092 436.491C642.622 438.391 643.538 440.113 644.275 441.918C645.526 444.981 647.156 447.766 649.187 450.351C650.089 451.501 650.859 452.74 651.317 454.136C651.58 454.939 652.046 455.545 652.73 456.013C654.094 456.947 654.906 458.316 655.696 459.716C656.503 461.151 656.642 462.761 656.972 464.314C657.414 466.393 658.215 468.164 660.232 469.2C660.794 469.487 661.322 469.971 661.687 470.493C663.629 473.278 665.418 476.244 666.515 479.389C667.716 482.83 669.568 485.942 670.802 489.344C671.246 490.567 672.273 491.483 673.518 492.053C674.674 492.584 675.435 491.792 676.291 491.283C676.475 491.175 676.709 491.162 676.913 491.084C680.841 489.614 684.806 488.229 688.46 486.121C689.166 485.714 689.973 485.641 690.756 485.464C692.357 485.102 693.775 484.418 694.586 482.859C695.073 481.924 695.887 481.211 696.756 480.767C699.189 479.526 701.648 478.394 703.926 476.819C706.516 475.03 709.217 473.504 709.896 470.069C710.035 469.359 710.486 468.759 710.891 468.147C711.97 466.51 713.056 464.878 713.594 462.947C713.8 462.206 713.937 461.549 713.406 460.895C712.581 459.879 711.798 458.829 710.955 457.829C710.329 457.086 709.571 456.482 708.516 456.641C707.222 456.836 706.477 456.159 705.857 455.164C705.552 454.671 705.152 454.237 704.827 453.755C703.02 451.075 701.089 450.951 699.198 453.459C698.605 454.246 697.935 454.916 696.993 455.151C695.274 455.58 693.518 455.441 691.782 455.228C691.165 455.153 690.712 454.764 690.9 454.01C691.766 450.497 689.809 448.58 687.025 447.113C684.156 445.601 682.112 443.318 681.009 440.279C680.372 438.523 681.832 436.957 683.667 437.209C686.246 437.563 687.237 439.492 687.98 441.584C688.327 442.56 688.511 443.725 689.473 444.137C692.067 445.247 694.1 447.326 696.957 448.06C698.439 448.44 699.7 448.774 701.12 448.164C701.651 447.936 702.199 447.781 702.719 447.498C703.811 446.901 704.163 447.054 704.758 448.177C704.926 448.496 705.065 448.839 705.169 449.188C705.563 450.519 706.43 451.205 707.817 451.429C709.677 451.729 711.508 452.218 713.364 452.554C717.241 453.258 721.12 453.611 725.035 452.716C725.851 452.53 726.683 452.415 727.523 452.344C718.391 401.552 693.512 356.237 658.133 321.604C657.85 321.67 657.569 321.739 657.286 321.807C655.517 322.23 654.057 322.026 652.606 320.863L652.61 320.856Z" fill="#FDC7C8"/>
<path d="M690.57 493.982C688.808 495.066 686.804 494.975 684.926 495.462C681.85 496.26 678.915 497.521 675.75 498.045C673.408 498.432 670.778 497.014 670.705 494.785C670.645 492.98 669.727 491.828 668.65 490.642C667.575 489.461 666.41 488.342 665.485 487.053C664.738 486.007 663.972 485.29 662.685 484.865C660.067 484.005 658.532 482.196 658.372 479.254C658.277 477.5 657.519 475.886 656.289 474.55C654.234 472.314 652.843 469.855 652.576 466.674C652.396 464.553 651.598 462.414 650.087 460.731C648.331 458.772 646.823 456.668 645.958 454.151C645.626 453.189 645.058 452.305 644.731 451.367C643.828 448.786 641.497 446.851 641.835 443.635C642.028 441.806 640.918 439.868 640.568 437.949C640.031 435 637.79 433.609 635.519 432.326C633.674 431.285 631.828 431.873 630.228 433.081C629.171 433.877 628.187 434.009 627.006 433.377C626.177 432.935 625.219 432.815 624.297 432.603C621.477 431.955 618.584 431.619 615.912 430.338C614.698 429.756 613.391 429.509 612.258 428.586C611.124 427.664 609.547 427.596 608.069 427.916C607.508 428.038 606.986 428.303 606.388 428.339C604.971 428.423 604.334 429.588 603.538 430.506C602.845 431.302 603.243 432.096 603.524 432.952C603.971 434.321 603.272 435.197 601.828 435.308C600.963 435.374 600.273 435.007 599.652 434.47C598.276 433.282 596.681 432.658 594.868 432.625C593.483 432.601 592.466 432.074 592.083 430.665C591.555 428.723 590.011 428.162 588.29 427.914C587.505 427.801 586.682 427.801 585.895 427.899C583.949 428.14 582.321 427.321 580.766 426.379C579.103 425.371 578.744 423.712 579.667 421.962C580.014 421.305 580.248 420.637 580.191 419.879C580.105 418.72 580.082 417.576 580.304 416.407C580.529 415.203 579.788 414.131 578.671 413.958C577.53 413.781 576.285 413.573 575.23 414.106C574.308 414.573 573.436 414.476 572.496 414.498C570.426 414.549 568.259 413.927 566.346 415.285C565.883 415.615 565.375 415.475 564.892 415.248C563.638 414.655 562.369 414.836 561.055 415.071C558.638 415.504 556.278 416.278 553.752 416.13C552.489 416.057 551.366 416.732 550.532 417.727C550.149 418.185 549.731 418.492 549.163 418.729C546.584 419.81 543.848 420.113 541.121 420.421C539.772 420.571 538.456 420.576 537.224 419.54C536.209 418.689 534.815 419.231 534.088 420.399C533.628 421.137 533.044 421.838 532.761 422.641C532.257 424.066 531.233 424.8 529.972 425.505C526.92 427.213 524.591 429.686 523.657 433.105C523.085 435.208 522.162 437.064 520.82 438.687C519.318 440.501 518.02 442.595 515.47 443.241C514.612 443.458 514.043 444.079 513.654 444.975C513.196 446.026 512.674 447.384 511.785 447.839C509.963 448.775 509.445 450.27 509.011 451.988C508.87 452.544 508.6 453.079 508.315 453.581C506.933 456.029 505.21 458.245 503.982 460.829C502.719 463.489 502.224 465.869 503.323 468.687C504.42 471.493 505.356 474.417 504.248 477.509C504.079 477.98 504.055 478.505 503.98 479.009C503.816 480.126 503.314 481.026 502.483 481.818C501.222 483.021 500.623 484.523 500.634 486.314C500.656 489.665 502.051 492.48 503.858 495.165C504.416 495.993 505.4 496.214 506.116 496.837C507.393 497.95 508.169 499.472 509.407 500.591C510.239 501.34 510.863 502.199 511.177 503.28C512.389 507.44 514.954 510.619 518.575 512.859C520.687 514.166 522.664 515.606 524.524 517.227C526.415 518.875 528.43 519.346 530.715 518.037C531.277 517.714 531.918 517.517 532.542 517.324C534.891 516.608 537.147 515.922 539.739 516.738C541.347 517.245 543.118 517.959 545.025 517.112C547.338 516.084 549.753 515.208 552.018 514.133C554.298 513.049 556.519 512.653 558.925 512.656C561.767 512.656 563.415 513.834 564.331 516.493C565.195 518.999 565.828 519.37 568.529 518.939C570.512 518.623 572.401 518.778 574.206 519.795C576.475 521.075 576.842 521.894 576.396 524.554C576.168 525.919 575.407 527.171 575.482 528.575C575.584 530.438 575.21 532.183 574.502 533.886C574.221 534.558 573.945 535.264 574.288 535.991C574.812 537.104 575.111 538.309 575.931 539.296C577.464 541.138 578.875 543.084 580.419 544.915C581.708 546.446 582.67 548.065 582.907 550.113C583.057 551.407 583.606 552.61 584.32 553.734C585.114 554.981 585.614 556.354 585.525 557.858C585.373 560.468 586.041 562.888 587.056 565.259C588.253 568.052 588.058 570.642 585.727 572.847C584.743 573.778 584.234 574.913 584.022 576.28C583.688 578.429 582.856 580.466 582.321 582.563C581.808 584.571 581.814 586.719 581.682 588.811C581.635 589.539 582.04 590.218 582.467 590.813C583.455 592.186 584.039 593.748 584.707 595.285C585.603 597.342 586.224 599.573 587.832 601.241C589.268 602.732 589.597 604.488 589.447 606.452C589.343 607.827 589.153 609.245 589.615 610.57C590.102 611.972 590.259 613.392 590.336 614.852C590.46 617.15 590.878 619.62 592.477 621.135C595.261 623.776 596.648 626.912 597.358 630.513C597.371 630.584 597.398 630.654 597.431 630.719C598.161 632.035 598.38 633.454 598.203 635.441C597.681 636.929 598.97 638.597 599.234 640.441C599.271 640.704 599.439 641.065 599.652 641.169C601.127 641.899 602.503 643.018 604.296 642.741C607.076 642.315 609.947 642.394 612.61 641.284C612.935 641.149 613.322 641.098 613.678 641.109C616.481 641.204 619.081 640.45 621.731 639.59C624.414 638.721 626.493 637.241 628.245 635.133C628.895 634.352 629.538 633.53 630.33 632.913C631.697 631.851 632.608 630.491 633.367 628.985C634.125 627.476 635.057 626.025 636.353 624.995C637.874 623.783 638.633 622.228 639.212 620.494C639.465 619.735 639.794 618.979 639.896 618.198C640.267 615.336 641.889 613.483 644.386 612.213C645.361 611.718 646.257 610.975 646.637 609.922C647.683 607.031 648.471 604.096 647.312 601.022C647.108 600.48 646.962 599.91 646.86 599.339C646.392 596.731 647.214 594.573 649.355 593.042C650.273 592.385 650.981 591.585 651.62 590.715C652.29 589.802 653.091 589.169 654.139 588.736C656.661 587.694 658.888 586.199 660.639 584.074C662.309 582.048 663.3 579.841 662.959 577.083C662.712 575.079 662.771 573.062 663.145 571.014C663.559 568.742 663.592 566.435 662.022 564.345C660.989 562.97 660.151 561.289 660.224 559.524C660.345 556.582 659.934 553.745 659.284 550.903C659.02 549.748 659.149 548.558 659.899 547.578C660.398 546.926 660.693 546.198 661.002 545.464C662.188 542.646 663.411 539.862 665.978 537.949C666.432 537.61 666.757 537.088 667.102 536.622C668.442 534.81 669.681 532.915 671.125 531.192C672.426 529.641 673.669 527.907 675.533 527.021C679.976 524.904 682.787 521.206 684.979 517.09C687.434 512.481 689.447 507.639 691.628 502.886C691.833 502.437 691.822 501.891 691.977 501.411C692.623 499.423 691.824 497.364 692.302 495.353C692.488 494.566 691.274 493.56 690.577 493.989L690.57 493.982Z" fill="#FDC7C8"/>
<path d="M252.505 450.452C252.368 451.596 252.832 452.397 253.763 453.031C255.552 454.252 256.764 455.979 257.707 457.884C258.288 459.056 258.859 460.213 259.606 461.301C260.67 462.849 260.708 464.55 259.945 466.266C258.777 468.896 259.726 471.448 262.338 472.731C262.595 472.857 262.937 472.945 263.077 473.158C264.225 474.921 265.945 475.761 267.889 476.305C268.212 476.396 268.517 476.683 268.75 476.951C269.736 478.085 271.014 478.778 272.361 479.335C275.117 480.474 277.886 481.578 280.666 482.655C281.918 483.139 283.214 483.188 284.515 482.759C285.205 482.531 285.93 482.409 286.607 482.153C287.602 481.777 288.485 482.02 289.29 482.577C289.942 483.029 290.601 483.484 291.072 484.165C294.339 488.903 299.28 490.571 304.61 491.495C305.926 491.723 306.977 492.442 307.605 493.499C308.368 494.782 309.158 496.089 309.368 497.659C309.675 499.961 310.717 501.684 313.103 502.538C314.432 503.014 315.709 503.83 316.35 505.289C316.868 506.466 317.914 507.021 319.121 507.134C320.568 507.271 321.78 507.7 322.711 508.899C323.341 509.711 324.308 509.507 325.146 509.293C325.92 509.096 326.035 508.399 325.984 507.709C325.94 507.103 326.059 506.577 326.424 506.072C326.882 505.438 327.013 504.644 326.564 504.027C326.079 503.359 325.184 503.513 324.527 503.701C322.7 504.226 321.258 503.613 319.931 502.445C319.495 502.06 319.073 501.658 318.613 501.302C316.746 499.846 316.301 497.765 317.036 495.803C318.038 493.13 317.779 490.168 319.208 487.618C319.661 486.806 319.382 485.758 319.336 484.816C319.311 484.345 318.991 484.059 318.637 483.774C316.476 482.033 314.03 481.396 311.307 481.867C310.288 482.044 309.284 481.905 308.271 481.892C307.415 481.881 306.95 481.449 306.689 480.664C306.176 479.112 306.358 477.63 307.286 476.327C308.31 474.887 309.003 473.319 309.657 471.691C310.425 469.785 310.144 467.549 311.785 465.875C312.504 465.143 311.747 464.145 310.584 463.911C307.687 463.32 304.995 464.096 302.332 465.101C301.505 465.412 301.067 465.99 300.974 466.894C300.817 468.431 300.231 469.845 299.587 471.234C298.785 472.97 297.915 473.556 295.996 473.375C294.465 473.231 292.977 473.231 291.444 473.485C288.704 473.939 286.001 472.039 284.663 469.542C283.137 466.693 283.365 463.667 283.13 460.668C283.097 460.244 283.243 459.808 283.287 459.374C283.55 456.727 284.585 454.321 285.687 451.95C286.246 450.742 286.667 449.55 286.596 448.188C286.521 446.721 287.027 445.423 288.255 444.576C289.679 443.594 290.968 442.433 292.621 441.752C294.156 441.119 295.693 440.456 297.09 439.498C298.347 438.638 299.663 438.567 301.217 439.106C303.743 439.982 306.477 439.965 309.12 440.349C309.821 440.451 310.12 439.991 310.473 439.487C311.104 438.593 311.825 437.759 312.977 437.498C314.32 437.195 315.656 436.842 317.011 436.612C318.301 436.393 319.553 436.609 320.209 437.888C320.742 438.925 321.446 439.109 322.518 438.96C325.015 438.62 326.347 440 326.013 442.499C325.887 443.448 325.924 444.366 326.139 445.306C326.659 447.595 327.426 449.751 328.78 451.709C329.753 453.115 330.412 453.321 331.662 452.16C332.993 450.924 333.688 449.4 333.789 447.537C333.915 445.226 333.239 443.074 332.71 440.893C331.657 436.541 332.913 432.947 336.423 430.308C339.31 428.141 342.329 426.126 345.598 424.533C347.44 423.636 349.278 422.895 350.448 420.882C351.171 419.639 352.089 418.473 352.414 417.082C352.914 414.95 354.013 413.19 355.38 411.582C357.023 409.649 358.731 407.769 360.443 405.895C362.345 403.814 364.439 402.377 367.241 402.034C368.568 401.872 369.725 401.238 370.935 400.747C371.769 400.408 372.233 399.809 372.127 398.887C371.983 397.644 372.671 396.861 373.496 396.082C374.743 394.903 376.502 394.56 377.765 393.651C379.505 392.397 381.191 392.747 382.938 392.676C383.853 392.638 384.497 393.043 384.893 394.052C385.404 395.354 386.395 395.498 387.47 394.596C388.135 394.036 388.713 393.371 389.336 392.758C389.805 392.296 390.292 391.747 390.995 391.818C393.156 392.03 395.045 390.705 397.181 390.785C397.672 390.803 398.185 390.621 398.665 390.462C399.791 390.088 400.054 388.925 399.22 388.069C398.853 387.691 398.395 387.514 397.865 387.443C397.075 387.337 396.29 387.173 395.507 387.014C393.251 386.558 392.322 385.121 392.879 382.903C393.132 381.898 393.581 380.939 394.368 380.277C395.564 379.275 396.002 378.05 395.64 376.599C395.39 375.608 395.929 375.252 396.63 374.96C398.289 374.27 400.059 374.142 401.784 374.405C403.903 374.728 405.928 374.792 408.003 374.111C409.131 373.742 409.945 374.83 409.447 375.947C409.062 376.812 408.454 377.563 407.727 378.181C406.791 378.975 406.406 380.054 406.008 381.16C405.692 382.038 405.8 382.515 406.815 382.697C408.182 382.94 409.527 383.19 410.918 382.856C412.373 382.509 413.849 382.485 415.129 383.358C416.39 384.219 417.85 384.369 419.252 384.674C421.26 385.112 422.689 383.307 421.943 381.35C421.483 380.138 421.364 378.979 421.959 377.771C422.868 375.936 422.837 375.896 420.986 375.166C419.427 374.551 419.112 373.817 419.203 372.187C419.327 369.971 420.548 368.08 420.833 365.899C421.006 364.585 420.93 363.628 419.827 362.862C419.342 362.526 418.867 362.174 418.924 361.48C419.026 360.244 418.155 359.801 417.215 359.567C414.773 358.954 414.129 357.145 414.043 354.96C413.992 353.651 414.057 352.339 414.021 351.03C413.959 348.785 413.307 346.741 411.854 344.992C410.748 343.66 410.376 343.583 409.003 344.636C407.271 345.965 405.462 347.175 403.595 348.298C402.35 349.046 400.968 348.946 399.955 348.073C399.03 347.274 398.926 346.438 399.579 344.905C399.72 344.571 399.908 344.257 400.054 343.923C400.64 342.59 400.578 342.008 399.4 341.371C398.333 340.796 397.604 339.958 396.792 339.122C396.005 338.31 395.18 337.361 393.961 337.206C391.656 336.912 389.343 336.698 387.014 336.685C386.165 336.68 385.38 336.932 384.8 337.474C383.327 338.856 382.774 340.838 381.708 342.49C381.996 345.078 380.509 346.367 378.311 347.137C378.105 347.21 377.889 347.27 377.703 347.378C376.577 348.031 376.471 348.579 377.254 349.632C378.539 351.361 378.554 351.859 377.422 353.69C376.641 354.953 375.577 355.864 374.314 356.672C372.379 357.908 370.125 358.311 368.117 359.337C367.182 359.815 366.489 360.332 366.56 361.438C366.677 363.232 365.419 364.702 365.45 366.505C365.461 367.193 364.727 367.735 364.07 368.093C363.495 368.407 362.904 368.69 362.316 368.975C360.854 369.685 360.036 369.44 359.394 367.954C358.89 366.788 358.764 365.594 359.531 364.422C360.447 363.028 360.929 361.38 362.073 360.111C362.61 359.514 362.347 358.987 361.681 358.76C360.513 358.357 359.31 358.098 358.052 358.098C355.422 358.1 353.148 356.789 351.425 355.161C349.793 353.62 348.064 352.662 346.031 352.155C344.823 351.855 344.344 351.211 344.142 350.103C343.987 349.254 344.047 348.331 343.499 347.593C342.66 346.462 343.18 345.56 343.919 344.667C344.815 343.583 346.042 342.902 347.13 342.059C350.094 339.765 353.327 337.987 357.121 337.514C359.034 337.275 360.502 336.236 361.843 335.006C362.76 334.163 363.773 333.778 364.977 333.688C366.952 333.539 368.754 333.984 370.223 335.329C370.961 336.006 371.623 335.944 372.395 335.541C373.492 334.97 374.591 334.409 375.686 333.836C376.451 333.436 377.165 333.389 377.935 333.909C378.594 334.356 379.337 334.681 380.182 334.641C380.812 334.612 381.328 334.387 381.591 333.794C381.836 333.243 381.591 332.772 381.16 332.451C380.346 331.848 380.007 331 379.753 330.072C379.282 328.34 379.587 327.745 381.372 327.636C382.613 327.561 383.606 327.103 384.559 326.4C386.169 325.215 388.096 324.401 388.991 322.39C389.212 321.895 389.792 321.561 390.203 321.147C390.765 320.581 391.329 320.033 391.694 319.287C392.353 317.947 393.53 317.463 394.943 317.684C396.036 317.856 397.106 317.814 398.199 317.794C399.764 317.766 401.286 318.184 402.228 319.513C402.843 320.38 403.524 320.981 404.462 321.464C405.862 322.18 405.951 323.098 404.761 324.199C403.856 325.035 402.848 325.756 401.717 326.301C401.074 326.612 400.306 326.896 400.098 327.67C399.734 329.021 398.65 329.16 397.557 329.3C396.303 329.459 395.109 329.182 393.912 328.809C392.012 328.214 390.004 329.251 389.378 331.082C389.113 331.861 389.308 332.367 390.201 332.451C392.583 332.67 394.961 333.234 397.356 332.661C398.294 332.438 398.933 332.801 399.417 333.493C399.787 334.024 400.138 334.614 400.306 335.231C400.693 336.665 401.711 337.368 402.991 337.843C404.422 338.376 405.853 338.905 407.273 339.462C408.585 339.978 409.686 339.907 410.907 338.974C412.225 337.965 413.457 336.844 414.893 335.957C416.77 334.798 417.091 332.998 416.08 331.027C415.748 330.379 415.403 329.738 415.109 329.074C414.895 328.592 414.797 328.046 415.335 327.712C415.828 327.406 416.295 327.625 416.739 327.946C417.589 328.559 418.013 329.53 418.743 330.24C419.911 331.376 420.922 331.456 422.207 330.459C423.182 329.702 424.146 328.928 425.104 328.147C426.462 327.039 426.619 326.405 426.015 324.732C425.683 323.815 425.197 323.074 424.27 322.609C422.178 321.561 420.765 320.041 421.068 317.476C421.211 316.253 420.594 315.406 419.712 314.667C418.276 313.464 416.598 312.8 414.789 312.457C412.747 312.07 411.323 310.903 410.666 308.987C410.246 307.762 409.452 307.287 408.322 307.014C405.376 306.307 402.361 306.335 399.426 306.683C397.391 306.924 395.392 307.059 393.362 307.081C391.979 307.081 390.588 306.981 389.217 307.114C387.861 307.244 386.426 307.278 385.26 308.149C383.862 309.195 382.465 310.246 381.133 311.372C379.43 312.809 379.28 313.457 380.027 315.558C380.2 316.043 380.498 316.489 380.224 317.003C379.678 318.027 378.833 318.697 377.663 318.785C376.566 318.869 375.436 318.874 374.783 317.713C374.067 316.434 373.562 315.1 373.377 313.621C373.211 312.296 372.215 311.451 371.222 311.728C369.477 312.214 367.659 312.641 366.189 313.723C364.583 314.904 362.891 316.067 363.692 318.672C364.147 320.154 363.656 320.417 362.342 321.234C361.312 321.873 360.363 321.552 359.41 321.342C357.817 320.992 356.15 320.793 354.692 321.364C353.551 321.811 352.48 321.948 351.326 321.961C350.019 321.974 348.727 322.021 347.42 322.238C345.593 322.541 343.83 322.415 342.393 320.873C341.453 319.865 340.015 319.588 338.748 319.838C336.472 320.285 334.154 320.486 331.905 321.11C328.399 322.083 324.898 322.603 321.758 319.991C321.105 319.449 320.351 319.301 319.57 319.292C285.015 352.224 260.139 395.213 249.594 443.554C250.846 445.319 251.114 447.604 252.385 449.371C252.567 449.621 252.527 450.081 252.485 450.43L252.505 450.452Z" fill="#FDC7C8"/>
<path d="M250.603 458.575C250.946 457.604 250.687 456.729 250.046 455.932C249.225 454.917 248.776 453.763 248.352 452.502C248.223 452.122 248.133 451.732 248.044 451.343C247.673 453.365 247.325 455.395 247.002 457.434C247.482 457.958 247.945 458.5 248.409 459.046C249.154 459.922 250.223 459.664 250.605 458.575H250.603Z" fill="#FDC7C8"/>
<path d="M448.276 547.863C446.21 547.606 444.62 546.56 443.3 545.001C442.784 544.393 442.216 543.807 441.586 543.322C439.788 541.94 437.959 540.575 435.446 541.164C432.175 541.723 429.379 540.104 426.834 538.616C422.589 536.136 417.967 534.606 413.528 532.644C411.531 531.762 410.487 530.574 409.972 528.661C409.784 527.964 409.821 527.192 409.304 526.617C408.036 525.211 407.53 523.507 407.158 521.689C406.902 520.435 406.616 519.011 405.424 518.272C404.215 517.523 403.292 516.534 402.381 515.497C402.045 515.114 401.678 514.745 401.156 514.621C398.771 514.059 396.518 512.971 393.943 513.208C390.511 513.522 388.138 511.712 386.485 508.912C385.523 507.28 384.411 505.955 382.535 505.396C381.292 505.024 380.689 504.02 380.319 502.881C380.054 502.058 380.622 501.344 380.788 500.577C380.972 499.734 381.299 498.774 380.224 498.294C379.238 497.854 378.192 497.321 377.084 497.664C375.799 498.062 374.5 498.038 373.195 498.038C372.224 498.038 371.362 498.17 370.561 498.838C369.314 499.878 367.81 499.946 366.485 499.141C365.364 498.46 364.189 498.248 362.975 498.122C361.619 497.98 360.447 497.476 359.392 496.662C357.893 495.505 356.112 494.835 354.456 493.988C353.224 493.358 351.66 493.351 350.231 493.141C349.669 493.059 349.114 493.141 348.652 493.652C347.223 495.222 345.372 495.81 343.311 496.268C340.918 496.801 338.708 497.858 338.049 500.753C337.585 502.799 334.869 504.199 332.721 503.766C331.923 503.604 331.129 503.618 330.332 503.684C329.956 503.715 329.563 503.859 329.534 504.283C329.477 505.168 328.957 506.208 330.127 506.785C330.598 507.017 330.751 507.38 330.731 507.833C330.693 508.696 331.138 509.399 331.567 510.045C332.975 512.177 333.208 514.53 332.942 516.959C332.717 519.038 332.529 521.114 331.299 522.981C330.589 524.058 329.527 524.675 328.7 525.582C327.712 526.666 327.221 528.161 326.044 529.006C323.839 530.592 323.153 532.976 322.62 535.356C322.28 536.875 322.127 538.638 322.979 540.06C324.25 542.181 323.837 543.908 322.249 545.567C321.621 546.224 321.214 547.013 321.293 547.925C321.528 550.583 322.058 553.098 324.498 554.761C326.597 556.19 327.575 558.379 328.216 560.733C328.565 562.018 329.076 563.185 330.036 564.143C331.912 566.019 333.265 568.314 334.426 570.623C335.422 572.607 336.585 574.514 337.428 576.613C338.392 579.01 340.573 580.722 342.393 582.584C342.532 582.726 342.793 582.744 342.995 582.828C344.536 583.471 346.102 584.064 347.615 584.772C350.49 586.114 352.817 588.193 354.953 590.493C355.453 591.031 355.592 591.763 355.814 592.464C356.906 595.919 356.751 599.517 356.93 603.045C357.189 608.121 357.337 613.197 357.882 618.253C357.974 619.111 357.992 620.024 357.809 620.858C357.311 623.105 357.536 625.308 357.758 627.564C358.023 630.271 359.158 632.726 359.604 635.38C360.069 638.142 360.27 640.807 359.657 643.583C359.178 645.764 359.098 648.033 358.863 650.265C358.81 650.769 358.804 651.295 359.056 651.762C360.531 654.498 361.009 657.501 361.557 660.514C361.942 662.626 362.615 664.654 364.121 666.397C366.624 669.292 367.653 672.846 368.002 676.613C368.104 677.708 368.394 678.752 369.011 679.683C369.707 680.735 370.035 681.897 370.212 683.146C370.528 685.373 370.908 687.594 372.353 689.456C372.611 689.79 372.704 690.248 372.928 690.617C374.686 693.517 375.821 696.815 378.331 699.232C379.985 700.824 381.679 702.2 384.3 701.211C386.225 700.484 388.932 701.97 389.449 704.034C389.794 705.409 390.586 705.73 391.763 705.852C392.698 705.947 393.662 705.825 394.565 706.203C396.226 706.9 397.978 706.811 399.725 706.814C400.598 706.814 401.395 706.692 401.543 705.692C401.684 704.741 400.906 704.295 400.222 703.883C399.99 703.744 399.658 703.728 399.373 703.728C398.243 703.728 397.203 703.339 396.261 702.81C394.31 701.716 392.17 700.734 391.265 698.493C390.754 697.224 389.993 696.308 388.989 695.412C386.366 693.068 386.822 692.23 387.855 690.162C387.983 689.905 388.171 689.611 388.14 689.357C387.945 687.733 389.047 686.866 390.013 685.86C391.776 684.024 391.382 682.135 389.08 681.007C387.063 680.019 386.346 677.624 387.534 675.757C388.295 674.56 388.91 673.357 388.394 671.878C388.118 671.084 388.536 670.418 389.02 669.894C389.9 668.94 390.347 667.837 390.531 666.583C390.712 665.337 391.216 664.229 391.955 663.205C392.678 662.199 393.218 661.104 393.408 659.844C393.647 658.245 394.724 657.298 396.131 656.69C396.662 656.46 397.241 656.347 397.785 656.146C400.331 655.201 402.565 653.969 402.684 650.793C402.695 650.512 402.841 650.236 402.941 649.964C403.79 647.646 404.615 645.35 406.773 643.798C407.882 642.999 408.861 641.947 409.463 640.684C410.339 638.848 411.133 636.972 411.9 635.09C412.608 633.352 413.024 631.443 414.713 630.3C416.439 629.132 416.014 626.783 417.429 625.454C417.746 625.155 418.033 624.824 418.367 624.549C419.157 623.899 419.511 623.056 419.52 622.061C419.531 620.902 419.544 619.765 419.201 618.609C417.856 614.055 418.63 612.195 422.711 609.722C423.401 609.304 424.138 609.012 424.907 608.775C425.597 608.561 426.301 608.366 426.907 607.93C428.479 606.8 430.195 606.267 432.177 606.185C433.889 606.115 435.906 606.154 436.625 603.896C436.698 603.666 437.038 603.492 437.288 603.348C438.158 602.848 438.445 602.065 438.357 601.129C438.237 599.898 438.68 598.898 439.367 597.892C440.228 596.635 441.039 595.273 440.951 593.674C440.865 592.112 440.935 590.648 441.937 589.341C442.307 588.861 442.196 588.224 442.218 587.645C442.247 586.917 442.136 586.145 442.344 585.475C442.822 583.938 442.599 582.549 442.17 581.014C441.475 578.528 441.334 575.912 443.121 573.74C445.562 570.774 446.958 567.078 449.758 564.373C449.913 564.223 450.057 564.048 450.167 563.862C452.534 559.868 453.421 555.697 451.906 551.143C451.291 549.294 450.238 548.122 448.276 547.876V547.863Z" fill="#FDC7C8"/>
<path d="M509.607 317.928C512.922 317.242 514.039 315.449 513.245 312.085C512.763 310.041 513.168 309.406 515.092 308.683C518.533 307.391 521.311 305.339 522.605 301.71C522.797 301.168 522.879 300.575 523.339 300.152C524.332 299.239 524.611 298.065 524.509 296.775C524.427 295.722 524.79 294.782 525.737 294.422C528.103 293.522 530.229 292.033 532.781 291.587C534.778 291.237 536.813 291.003 538.635 289.992C539.031 289.773 539.407 289.55 539.306 289.012C539.224 288.583 538.832 288.481 538.496 288.382C537.147 287.979 535.756 288.043 534.38 288.121C531.746 288.273 529.081 288.158 526.61 287.373C523.828 286.489 520.995 285.911 518.157 285.396C513.488 284.547 508.78 284.381 504.071 285.274C502.235 285.622 500.424 285.894 498.477 285.699C495.826 285.431 493.118 285.416 490.433 285.849C485.851 286.588 481.259 287.291 476.597 287.349C475.365 287.364 474.155 287.875 472.915 287.639C468.232 286.752 463.714 288.736 459.067 288.415C458.791 288.395 458.488 288.508 458.224 288.618C456.74 289.24 455.19 289.598 453.597 289.764C450.915 290.045 448.464 291.357 445.735 291.474C445.065 291.503 444.171 291.595 443.859 292.381C443.468 293.374 442.568 293.504 441.776 293.776C439.416 294.59 436.912 294.495 434.475 294.787C433.026 294.962 431.618 295.24 430.204 295.57C429.224 295.8 428.935 296.377 428.921 297.288C428.899 298.812 430.193 300.613 431.836 301.261C433.296 301.838 434.853 302.028 436.344 301.714C439.502 301.048 442.557 301.639 445.629 302.176C448.121 302.612 449.725 304.456 449.88 306.973C449.957 308.245 449.738 309.446 449.077 310.534C448.314 311.793 448.369 313.062 449.103 314.252C449.787 315.36 450.218 316.594 451.087 317.621C452.251 318.99 451.879 319.733 450.059 320.053C446.184 320.735 444.162 323.086 444.18 327.014C443.93 328.653 444.79 330.314 444.618 332.081C444.439 333.919 444.813 335.699 445.576 337.375C446.056 338.428 446.639 339.435 447.179 340.461C447.955 341.94 448.197 342.091 449.937 341.695C451.521 341.337 452.777 341.788 453.856 342.947C456.382 345.658 457.795 344.696 459.33 343.062C460.761 341.538 462.469 340.242 463.367 338.251C463.594 337.745 464.01 337.23 464.477 336.938C466.074 335.942 467.157 334.564 468.051 332.93C469.265 330.707 471.001 329.374 473.759 329.236C475.31 329.159 476.922 328.938 478.481 328.655C481.883 328.033 485.013 326.75 487.737 324.548C488.808 323.683 489.951 322.743 491.384 322.712C494.103 322.654 496.67 321.781 499.333 321.436C501.289 321.181 503.126 320.516 504.92 319.68C506.428 318.976 507.95 318.262 509.602 317.921L509.607 317.928Z" fill="#FDC7C8"/>
<path d="M689.068 575.749C688.811 574.223 688.148 572.841 687.493 571.472C687.009 570.461 686.281 570.393 685.673 571.288C684.616 572.85 683.494 574.405 682.714 576.106C681.143 579.529 679 582.126 675.066 582.853C674.115 583.03 672.956 583.21 672.476 584.26C671.733 585.89 670.514 587.416 670.817 589.349C670.985 590.431 670.883 591.563 671.182 592.585C671.972 595.279 670.808 597.482 669.413 599.49C668.386 600.963 667.809 602.381 668.048 603.935C667.951 606.123 668.455 608.036 668.906 609.934C669.448 612.205 672.106 614.238 674.026 613.851C675.358 613.583 676.638 613.021 677.912 612.517C678.288 612.366 678.697 612.021 678.859 611.661C679.516 610.21 680.398 608.852 680.794 607.291C681.67 603.832 683.092 600.565 684.317 597.227C685.339 594.441 686.728 591.756 687.126 588.787C687.356 587.082 687.891 585.554 688.783 584.15C689.913 582.371 690.165 580.54 689.592 578.53C689.333 577.627 689.223 576.681 689.066 575.749H689.068Z" fill="#FDC7C8"/>
<path d="M541.052 358.462C541.965 359.45 543.071 360.083 544.239 360.691C545.258 361.222 545.909 362.202 545.873 363.319C545.836 364.467 544.717 364.383 543.876 364.533C542.841 364.719 542.184 365.287 542.058 366.391C542.001 366.891 541.837 367.379 541.779 367.879C541.583 369.551 540.904 371.088 540.474 372.694C540.079 374.18 540.906 374.906 542.401 374.472C542.609 374.413 542.823 374.333 542.998 374.209C545.196 372.646 547.771 372.63 550.294 372.506C551.721 372.435 552.979 371.931 554.245 371.398C554.711 371.201 555.178 370.881 555.196 370.303C555.22 369.467 555.813 369.045 556.317 368.525C557.792 367.001 557.677 365.964 555.72 365.349C554.391 364.931 553.8 364.137 553.568 362.967C553.344 361.835 552.918 360.921 551.909 360.295C551.619 360.116 551.354 359.811 551.206 359.501C550.151 357.303 548.824 355.266 549.038 352.572C549.224 350.239 547.132 348.452 544.431 348.434C543 348.113 541.773 348.819 540.735 350.318C539.811 351.654 539.061 352.767 539.386 354.618C539.65 356.129 540.026 357.349 541.054 358.462H541.052Z" fill="#FDC7C8"/>
<path d="M522.066 326.175C520.998 326.308 519.919 326.284 518.835 326.465C516.066 326.927 513.246 327.577 510.483 326.542C508.309 325.726 506.708 326.602 505.158 327.949C504.448 328.566 504.403 329.163 505.151 329.732C506.053 330.417 506.575 331.309 506.94 332.375C507.307 333.452 508.017 334.168 509.302 334.283C511.165 334.451 513.073 334.425 514.845 335.197C514.969 335.252 515.13 335.221 515.413 335.237C515.635 335.17 516.015 335.126 516.318 334.949C518.917 333.452 521.799 332.735 524.641 331.915C525.536 331.656 526.153 331.085 526.715 330.415C527.248 329.78 527.33 329.115 526.715 328.469C525.45 327.135 524.158 325.912 522.066 326.173V326.175Z" fill="#FDC7C8"/>
<path d="M331.383 464.045C332.542 465.283 333.984 466.124 335.424 466.966C336.041 467.327 336.322 467.816 336.484 468.51C336.835 470.023 337.18 470.348 338.514 469.937C339.859 469.523 340.887 469.835 341.993 470.523C343.086 471.199 344.229 471.016 345.286 470.343C346.527 469.554 346.567 468.846 345.37 468.054C344.647 467.574 343.818 467.249 343.099 466.765C341.652 465.794 339.801 465.418 338.627 464.12C336.636 461.921 334.084 460.831 331.406 459.849C329.764 459.245 328.187 458.467 326.239 458.681C324.781 458.398 323.39 459.21 321.9 459.46C320.438 459.703 319.35 460.512 318.368 461.47C317.837 461.988 316.937 462.645 317.381 463.476C317.919 464.478 318.805 463.558 319.511 463.452C320.867 463.246 322.006 462.193 323.428 462.255C325.894 462.361 328.256 463.113 330.66 463.596C330.926 463.649 331.198 463.85 331.388 464.053L331.383 464.045Z" fill="#FDC7C8"/>
<path d="M539.751 358.989C538.395 358.031 535.113 358.239 533.819 359.285C532.939 359.999 532.198 360.904 530.946 361.127C529.46 361.393 529.265 361.612 529.489 363.193C529.674 364.516 529.471 365.67 528.688 366.683C528.024 367.543 528.199 368.251 528.737 369.058C529.25 369.826 529.787 370.467 530.78 370.326C531.514 370.343 532.12 370.078 532.656 369.7C533.93 368.795 535.308 368.205 536.88 368.123C537.537 368.09 537.946 367.749 538.205 367.161C538.554 366.365 539.023 365.597 538.997 364.693C538.97 363.759 539.266 363.122 540.043 362.483C541.277 361.466 541.058 359.911 539.753 358.989H539.751Z" fill="#FDC7C8"/>
<path d="M348.101 473.116C347.167 473.22 346.238 473.379 345.318 473.567C344.88 473.658 344.502 473.932 344.533 474.454C344.558 474.866 344.894 475.129 345.241 475.173C348.032 475.525 350.81 476.637 353.603 476.087C355.643 475.684 357.695 475.324 359.736 474.919C360.404 474.786 361.068 474.669 361.205 473.881C361.358 473.015 360.721 472.636 360.11 472.194C358.456 471 356.28 470.951 354.661 469.653C354.342 469.398 353.676 469.551 353.174 469.56C352.526 469.571 351.878 469.626 351.635 469.639C350.938 469.595 350.638 469.516 350.361 469.566C349.547 469.719 348.532 468.861 347.941 469.79C347.375 470.681 348.51 471.121 348.833 471.791C349.209 472.572 349.021 473.012 348.101 473.114V473.116Z" fill="#FDC7C8"/>
<path opacity="0.1" d="M731.385 495.743C731.385 630.33 622.278 739.438 487.691 739.438C432.604 739.438 381.779 721.16 340.964 690.327C351.87 690.597 362.433 690.482 372.66 690.009C377.9 689.774 383.055 689.44 388.122 689.013C478.424 681.471 541.736 645.31 586.112 598.645C620.236 562.789 643.171 520.736 658.591 480.713C659.826 477.512 661.007 474.323 662.146 471.156C678.583 425.391 685.4 383.203 688.213 357.24V357.222C693.915 365.454 699.117 374.051 703.777 382.977C704.867 385.052 705.922 387.144 706.942 389.254C707.284 389.955 707.625 390.663 707.961 391.371C708.297 392.079 708.627 392.786 708.956 393.494C710.281 396.336 711.54 399.207 712.745 402.109C713.957 405.01 715.114 407.941 716.204 410.898C717.582 414.592 718.872 418.332 720.059 422.109C720.298 422.866 720.533 423.62 720.767 424.381C721.937 428.169 723.003 432.007 723.974 435.873C724.567 438.193 725.12 440.53 725.635 442.881C725.96 444.348 726.265 445.821 726.564 447.296C726.604 447.493 726.643 447.692 726.683 447.889C729.769 463.362 731.39 479.366 731.39 495.743H731.385Z" fill="black"/>
<path d="M499.726 329.202C499.279 328.886 498.198 328.954 497.771 329.299C497.481 329.534 497.238 329.832 496.824 329.908C496.333 329.996 496.271 330.067 496.344 330.589C496.406 331.025 496.338 331.405 496.081 331.739C495.862 332.022 495.92 332.257 496.096 332.522C496.265 332.774 496.442 332.986 496.769 332.94C497.01 332.947 497.211 332.858 497.386 332.734C497.806 332.436 498.26 332.241 498.779 332.214C498.996 332.203 499.131 332.091 499.215 331.898C499.33 331.635 499.485 331.383 499.476 331.084C499.467 330.777 499.564 330.567 499.821 330.357C500.228 330.023 500.155 329.51 499.726 329.204V329.202Z" fill="#FDC7C8"/>
<path d="M638.835 568.744L635.057 566.497" stroke="#F8262C" stroke-width="0.659088" stroke-miterlimit="10"/>
<path d="M627.536 562.023L360.57 403.28" stroke="#F8262C" stroke-width="0.659088" stroke-miterlimit="10" stroke-dasharray="8.75 8.75"/>
<path d="M356.809 401.046L353.029 398.799" stroke="#F8262C" stroke-width="0.659088" stroke-miterlimit="10"/>
<path d="M276.082 474.865L279.78 472.488" stroke="#F8262C" stroke-width="0.659088" stroke-miterlimit="10"/>
<path d="M287.088 467.792L502.652 329.215" stroke="#F8262C" stroke-width="0.659088" stroke-miterlimit="10" stroke-dasharray="8.69 8.69"/>
<path d="M506.305 326.866L510.003 324.489" stroke="#F8262C" stroke-width="0.659088" stroke-miterlimit="10"/>
<path d="M359.405 544.339L363.209 542.134" stroke="#F8262C" stroke-width="0.659088" stroke-miterlimit="10"/>
<path d="M370.631 537.833L634.176 385.125" stroke="#F8262C" stroke-width="0.659088" stroke-miterlimit="10" stroke-dasharray="8.58 8.58"/>
<path d="M637.887 382.975L641.694 380.77" stroke="#F8262C" stroke-width="0.659088" stroke-miterlimit="10"/>
<path d="M605.2 458.817L600.922 457.8" stroke="#F8262C" stroke-width="0.659088" stroke-miterlimit="10"/>
<path d="M592.52 455.8L361.508 400.815" stroke="#F8262C" stroke-width="0.659088" stroke-miterlimit="10" stroke-dasharray="8.63 8.63"/>
<path d="M357.307 399.816L353.029 398.799" stroke="#F8262C" stroke-width="0.659088" stroke-miterlimit="10"/>
<path d="M510 324.489L512.05 328.377" stroke="#F8262C" stroke-width="0.659088" stroke-miterlimit="10"/>
<path d="M516.075 336.004L634.769 561.038" stroke="#F8262C" stroke-width="0.659088" stroke-miterlimit="10" stroke-dasharray="8.62 8.62"/>
<path d="M636.782 564.852L638.832 568.742" stroke="#F8262C" stroke-width="0.659088" stroke-miterlimit="10"/>
<path d="M643.011 377.91L641.162 381.898" stroke="#F8262C" stroke-width="0.659088" stroke-miterlimit="10"/>
<path d="M637.373 390.076L608.943 451.398" stroke="#F8262C" stroke-width="0.659088" stroke-miterlimit="10" stroke-dasharray="9.01 9.01"/>
<path d="M607.047 455.487L605.198 459.475" stroke="#F8262C" stroke-width="0.659088" stroke-miterlimit="10"/>
<path d="M276.082 474.867L279.208 471.775" stroke="#F8262C" stroke-width="0.659088" stroke-miterlimit="10"/>
<path d="M285.635 465.423L346.689 405.068" stroke="#F8262C" stroke-width="0.659088" stroke-miterlimit="10" stroke-dasharray="9.04 9.04"/>
<path d="M349.902 401.891L353.029 398.799" stroke="#F8262C" stroke-width="0.659088" stroke-miterlimit="10"/>
<path d="M510.443 326.466L507.917 330.067" stroke="#F8262C" stroke-width="0.659088" stroke-miterlimit="10"/>
<path d="M502.824 337.332L362.719 537.106" stroke="#F8262C" stroke-width="0.659088" stroke-miterlimit="10" stroke-dasharray="8.87 8.87"/>
<path d="M360.171 540.74L357.645 544.34" stroke="#F8262C" stroke-width="0.659088" stroke-miterlimit="10"/>
<path d="M353.029 395.501L353.193 399.895" stroke="#F8262C" stroke-width="0.659088" stroke-miterlimit="10"/>
<path d="M353.539 409.159L358.19 534.216" stroke="#F8262C" stroke-width="0.659088" stroke-miterlimit="10" stroke-dasharray="9.27 9.27"/>
<path d="M358.361 538.846L358.525 543.241" stroke="#F8262C" stroke-width="0.659088" stroke-miterlimit="10"/>
<path d="M605.2 457.277L600.81 457.529" stroke="#F8262C" stroke-width="0.659088" stroke-miterlimit="10"/>
<path d="M592.151 458.025L284.801 475.683" stroke="#F8262C" stroke-width="0.659088" stroke-miterlimit="10" stroke-dasharray="8.67 8.67"/>
<path d="M280.47 475.932L276.082 476.185" stroke="#F8262C" stroke-width="0.659088" stroke-miterlimit="10"/>
<path d="M638.834 570.94L637.611 566.715" stroke="#F8262C" stroke-width="0.659088" stroke-miterlimit="10"/>
<path d="M635.211 558.437L607.62 463.221" stroke="#F8262C" stroke-width="0.659088" stroke-miterlimit="10" stroke-dasharray="8.62 8.62"/>
<path d="M606.421 459.08L605.198 454.858" stroke="#F8262C" stroke-width="0.659088" stroke-miterlimit="10"/>
<path d="M358.524 545.22L362.905 545.6" stroke="#F8262C" stroke-width="0.659088" stroke-miterlimit="10"/>
<path d="M371.663 546.364L630.072 568.861" stroke="#F8262C" stroke-width="0.659088" stroke-miterlimit="10" stroke-dasharray="8.79 8.79"/>
<path d="M634.453 569.243L638.832 569.624" stroke="#F8262C" stroke-width="0.659088" stroke-miterlimit="10"/>
<path d="M511.321 322.509L389.524 646.571" stroke="#F8262C" stroke-width="0.659088" stroke-miterlimit="10" stroke-dasharray="8.79 8.79"/>
<path d="M275.42 476.626L389.524 647.67" stroke="#F8262C" stroke-width="0.659088" stroke-miterlimit="10" stroke-dasharray="8.79 8.79"/>
<path d="M605.199 451.343L389.524 646.572" stroke="#F8262C" stroke-width="0.659088" stroke-miterlimit="10" stroke-dasharray="8.79 8.79"/>
<path d="M639.715 569.622L389.524 647.671" stroke="#F8262C" stroke-width="0.659088" stroke-miterlimit="10" stroke-dasharray="8.79 8.79"/>
<path d="M358.084 543.02L389.963 646.13" stroke="#F8262C" stroke-width="0.659088" stroke-miterlimit="10" stroke-dasharray="8.79 8.79"/>
<path d="M641.691 328.669C631.628 328.669 623.471 336.649 623.471 346.491C623.471 356.333 641.691 382.704 641.691 382.704C641.691 382.704 659.911 356.333 659.911 346.491C659.911 336.649 651.755 328.669 641.691 328.669ZM641.691 349.101C638.193 349.101 635.355 346.332 635.355 342.915C635.355 339.498 638.193 336.729 641.691 336.729C645.19 336.729 648.028 339.498 648.028 342.915C648.028 346.332 645.19 349.101 641.691 349.101Z" fill="#FC979A"/>
<path d="M641.691 359.02C648.282 359.02 653.625 353.672 653.625 347.074C653.625 340.477 648.282 335.129 641.691 335.129C635.1 335.129 629.757 340.477 629.757 347.074C629.757 353.672 635.1 359.02 641.691 359.02Z" fill="white"/>
<path d="M641.691 346.169C643.342 346.169 644.681 344.83 644.681 343.178C644.681 341.527 643.342 340.188 641.691 340.188C640.039 340.188 638.7 341.527 638.7 343.178C638.7 344.83 640.039 346.169 641.691 346.169Z" fill="#FC979A"/>
<path d="M637.489 347.129H645.889C646.634 347.129 647.24 347.735 647.24 348.48V353.636C647.24 353.815 647.094 353.961 646.915 353.961H636.462C636.283 353.961 636.137 353.815 636.137 353.636V348.48C636.137 347.735 636.743 347.129 637.489 347.129Z" fill="#FC979A"/>
<path d="M605.194 405.395C595.131 405.395 586.974 413.375 586.974 423.217C586.974 433.059 605.194 459.429 605.194 459.429C605.194 459.429 623.414 433.059 623.414 423.217C623.414 413.375 615.257 405.395 605.194 405.395ZM605.194 425.827C601.695 425.827 598.858 423.058 598.858 419.641C598.858 416.224 601.695 413.455 605.194 413.455C608.693 413.455 611.531 416.224 611.531 419.641C611.531 423.058 608.693 425.827 605.194 425.827Z" fill="#FC979A"/>
<path d="M605.194 435.746C611.785 435.746 617.128 430.397 617.128 423.8C617.128 417.203 611.785 411.855 605.194 411.855C598.603 411.855 593.26 417.203 593.26 423.8C593.26 430.397 598.603 435.746 605.194 435.746Z" fill="white"/>
<path d="M605.194 422.894C606.845 422.894 608.184 421.556 608.184 419.904C608.184 418.253 606.845 416.914 605.194 416.914C603.543 416.914 602.204 418.253 602.204 419.904C602.204 421.556 603.543 422.894 605.194 422.894Z" fill="#FC979A"/>
<path d="M600.992 423.854H609.392C610.138 423.854 610.744 424.46 610.744 425.205V430.361C610.744 430.54 610.598 430.686 610.418 430.686H599.966C599.787 430.686 599.641 430.54 599.641 430.361V425.205C599.641 424.46 600.247 423.854 600.992 423.854Z" fill="#FC979A"/>
<path d="M638.88 516.981C628.817 516.981 620.66 524.961 620.66 534.803C620.66 544.645 638.88 571.015 638.88 571.015C638.88 571.015 657.1 544.645 657.1 534.803C657.1 524.961 648.943 516.981 638.88 516.981ZM638.88 537.411C635.381 537.411 632.543 534.642 632.543 531.225C632.543 527.807 635.381 525.038 638.88 525.038C642.379 525.038 645.216 527.807 645.216 531.225C645.216 534.642 642.379 537.411 638.88 537.411Z" fill="#FC979A"/>
<path d="M638.88 547.333C645.471 547.333 650.814 541.984 650.814 535.387C650.814 528.79 645.471 523.442 638.88 523.442C632.289 523.442 626.945 528.79 626.945 535.387C626.945 541.984 632.289 547.333 638.88 547.333Z" fill="white"/>
<path d="M638.878 534.48C640.53 534.48 641.869 533.141 641.869 531.49C641.869 529.838 640.53 528.5 638.878 528.5C637.227 528.5 635.888 529.838 635.888 531.49C635.888 533.141 637.227 534.48 638.878 534.48Z" fill="#FC979A"/>
<path d="M634.679 535.44H643.079C643.824 535.44 644.43 536.046 644.43 536.792V541.947C644.43 542.126 644.284 542.272 644.105 542.272H633.652C633.473 542.272 633.327 542.126 633.327 541.947V536.792C633.327 536.046 633.933 535.44 634.679 535.44Z" fill="#FC979A"/>
<path d="M358.431 491.516C348.368 491.516 340.211 499.496 340.211 509.338C340.211 519.18 358.431 545.551 358.431 545.551C358.431 545.551 376.651 519.18 376.651 509.338C376.651 499.496 368.494 491.516 358.431 491.516ZM358.431 511.948C354.932 511.948 352.094 509.179 352.094 505.762C352.094 502.345 354.932 499.576 358.431 499.576C361.93 499.576 364.767 502.345 364.767 505.762C364.767 509.179 361.93 511.948 358.431 511.948Z" fill="#FC979A"/>
<path d="M358.431 521.867C365.022 521.867 370.365 516.519 370.365 509.922C370.365 503.324 365.022 497.976 358.431 497.976C351.839 497.976 346.496 503.324 346.496 509.922C346.496 516.519 351.839 521.867 358.431 521.867Z" fill="white"/>
<path d="M361.33 506.684C361.71 505.077 360.714 503.466 359.107 503.087C357.5 502.708 355.889 503.703 355.51 505.31C355.13 506.918 356.126 508.528 357.733 508.908C359.341 509.287 360.951 508.292 361.33 506.684Z" fill="#FC979A"/>
<path d="M354.231 509.976H362.631C363.377 509.976 363.983 510.582 363.983 511.327V516.483C363.983 516.662 363.837 516.808 363.657 516.808H353.205C353.026 516.808 352.88 516.662 352.88 516.483V511.327C352.88 510.582 353.486 509.976 354.231 509.976Z" fill="#FC979A"/>
<path d="M389.43 594.844C379.366 594.844 371.21 602.824 371.21 612.666C371.21 622.508 389.43 648.878 389.43 648.878C389.43 648.878 407.65 622.508 407.65 612.666C407.65 602.824 399.493 594.844 389.43 594.844ZM389.43 615.273C385.931 615.273 383.093 612.504 383.093 609.087C383.093 605.67 385.931 602.901 389.43 602.901C392.929 602.901 395.766 605.67 395.766 609.087C395.766 612.504 392.929 615.273 389.43 615.273Z" fill="#FC979A"/>
<path d="M389.429 625.194C396.021 625.194 401.364 619.846 401.364 613.249C401.364 606.651 396.021 601.303 389.429 601.303C382.838 601.303 377.495 606.651 377.495 613.249C377.495 619.846 382.838 625.194 389.429 625.194Z" fill="white"/>
<path d="M392.387 609.835C392.649 608.205 391.54 606.67 389.91 606.408C388.279 606.145 386.745 607.255 386.483 608.885C386.22 610.516 387.329 612.05 388.96 612.312C390.59 612.575 392.125 611.466 392.387 609.835Z" fill="#FC979A"/>
<path d="M385.227 613.3H393.627C394.372 613.3 394.978 613.906 394.978 614.651V619.807C394.978 619.986 394.832 620.132 394.653 620.132H384.201C384.021 620.132 383.875 619.986 383.875 619.807V614.651C383.875 613.906 384.481 613.3 385.227 613.3Z" fill="#FC979A"/>
<path d="M509.933 274.035C499.87 274.035 491.713 282.015 491.713 291.857C491.713 301.699 509.933 328.069 509.933 328.069C509.933 328.069 528.153 301.699 528.153 291.857C528.153 282.015 519.996 274.035 509.933 274.035ZM509.933 294.464C506.434 294.464 503.596 291.695 503.596 288.278C503.596 284.861 506.434 282.092 509.933 282.092C513.432 282.092 516.269 284.861 516.269 288.278C516.269 291.695 513.432 294.464 509.933 294.464Z" fill="#FC979A"/>
<path d="M509.933 304.384C516.524 304.384 521.867 299.036 521.867 292.439C521.867 285.841 516.524 280.493 509.933 280.493C503.341 280.493 497.998 285.841 497.998 292.439C497.998 299.036 503.341 304.384 509.933 304.384Z" fill="white"/>
<path d="M511.073 291.266C512.601 290.639 513.332 288.892 512.705 287.364C512.078 285.836 510.331 285.106 508.803 285.733C507.275 286.36 506.545 288.107 507.172 289.634C507.799 291.162 509.545 291.893 511.073 291.266Z" fill="#FC979A"/>
<path d="M505.733 292.492H514.133C514.878 292.492 515.484 293.098 515.484 293.843V298.999C515.484 299.178 515.338 299.324 515.159 299.324H504.707C504.527 299.324 504.381 299.178 504.381 298.999V293.843C504.381 293.098 504.987 292.492 505.733 292.492Z" fill="#FC979A"/>
<path d="M276.149 424.396C266.086 424.396 257.929 432.376 257.929 442.218C257.929 452.06 276.149 478.43 276.149 478.43C276.149 478.43 294.369 452.06 294.369 442.218C294.369 432.376 286.212 424.396 276.149 424.396ZM276.149 444.828C272.65 444.828 269.813 442.059 269.813 438.642C269.813 435.225 272.65 432.456 276.149 432.456C279.648 432.456 282.486 435.225 282.486 438.642C282.486 442.059 279.648 444.828 276.149 444.828Z" fill="#FC979A"/>
<path d="M276.149 454.747C282.74 454.747 288.083 449.398 288.083 442.801C288.083 436.204 282.74 430.856 276.149 430.856C269.558 430.856 264.215 436.204 264.215 442.801C264.215 449.398 269.558 454.747 276.149 454.747Z" fill="white"/>
<path d="M277.292 441.668C278.818 441.036 279.543 439.287 278.911 437.761C278.279 436.235 276.529 435.511 275.004 436.143C273.478 436.775 272.753 438.524 273.385 440.05C274.017 441.576 275.766 442.3 277.292 441.668Z" fill="#FC979A"/>
<path d="M271.948 442.853H280.349C281.094 442.853 281.7 443.459 281.7 444.205V449.36C281.7 449.539 281.554 449.685 281.375 449.685H270.922C270.743 449.685 270.597 449.539 270.597 449.36V444.205C270.597 443.459 271.203 442.853 271.948 442.853Z" fill="#FC979A"/>
<path d="M352.877 347.668C342.813 347.668 334.657 355.647 334.657 365.49C334.657 375.332 352.877 401.702 352.877 401.702C352.877 401.702 371.097 375.332 371.097 365.49C371.097 355.647 362.94 347.668 352.877 347.668ZM352.877 368.097C349.378 368.097 346.54 365.328 346.54 361.911C346.54 358.494 349.378 355.725 352.877 355.725C356.376 355.725 359.213 358.494 359.213 361.911C359.213 365.328 356.376 368.097 352.877 368.097Z" fill="#FC979A"/>
<path d="M352.876 378.017C359.468 378.017 364.811 372.669 364.811 366.072C364.811 359.474 359.468 354.126 352.876 354.126C346.285 354.126 340.942 359.474 340.942 366.072C340.942 372.669 346.285 378.017 352.876 378.017Z" fill="white"/>
<path d="M352.874 365.169C354.526 365.169 355.864 363.83 355.864 362.179C355.864 360.527 354.526 359.189 352.874 359.189C351.223 359.189 349.884 360.527 349.884 362.179C349.884 363.83 351.223 365.169 352.874 365.169Z" fill="#FC979A"/>
<path d="M348.674 366.129H357.074C357.82 366.129 358.426 366.735 358.426 367.481V372.636C358.426 372.815 358.28 372.961 358.1 372.961H347.648C347.469 372.961 347.323 372.815 347.323 372.636V367.481C347.323 366.735 347.929 366.129 348.674 366.129Z" fill="#FC979A"/>
<path d="M583.805 703.184C583.484 703.328 583.161 703.463 582.834 703.591C582.685 703.651 582.535 703.708 582.387 703.762C581.973 703.912 581.555 704.049 581.131 704.171C580.927 704.23 580.724 704.288 580.52 704.339C580.456 704.357 580.388 704.374 580.323 704.387C580.204 704.418 580.087 704.445 579.965 704.472C579.835 704.502 579.706 704.527 579.576 704.553C579.496 704.569 579.419 704.587 579.337 704.6C579.295 704.609 579.251 704.615 579.206 704.624C579.127 704.64 579.049 704.653 578.97 704.666C578.912 704.675 578.857 704.684 578.797 704.695C578.707 704.708 578.614 704.724 578.521 704.735C578.415 704.75 578.306 704.766 578.2 704.777C576.466 704.985 574.761 704.921 573.107 704.611C572.994 704.591 572.879 704.569 572.768 704.547C572.655 704.522 572.54 704.498 572.43 704.472C572.317 704.447 572.204 704.421 572.094 704.392C571.841 704.332 571.596 704.264 571.348 704.191C571.196 704.144 571.039 704.098 570.886 704.047C567.617 702.983 564.567 700.955 561.845 698.166C560.924 697.222 555.776 692.659 557.757 696.819C558.456 698.292 559.852 699.082 560.874 700.294C561.502 701.041 561.918 701.928 562.172 702.87C562.431 703.823 562.524 704.834 562.499 705.823C562.497 705.876 562.497 705.929 562.495 705.984V705.989C562.409 708.893 561.851 711.819 560.655 714.314C560.652 714.322 560.648 714.329 560.641 714.34C559.146 717.434 556.665 719.854 552.869 720.719C552.772 720.743 552.673 720.763 552.571 720.783C552.471 720.803 552.37 720.823 552.268 720.84C551.403 720.995 541.289 721.281 541.269 719.872C541.329 724.372 540.57 727.595 539.287 729.857C539.186 730.039 539.077 730.216 538.969 730.386C538.861 730.556 538.748 730.718 538.633 730.877C538.458 731.114 538.279 731.337 538.093 731.547C537.967 731.687 537.839 731.821 537.713 731.952C534.716 734.94 530.301 735.02 526.38 734.223C526.103 734.168 525.829 734.106 525.559 734.042C525.197 733.956 524.843 733.865 524.495 733.768C524.321 733.719 524.146 733.67 523.978 733.62C523.892 733.593 523.808 733.569 523.724 733.542C523.553 733.491 523.39 733.438 523.224 733.385C523.06 733.332 522.899 733.279 522.739 733.224C522.182 733.033 521.653 732.834 521.162 732.642C521.023 732.587 520.888 732.534 520.755 732.478C520.289 732.286 519.862 732.102 519.486 731.93C519.38 731.883 519.276 731.837 519.179 731.791C519.03 731.72 518.891 731.653 518.761 731.594C518.676 731.554 518.595 731.514 518.519 731.476C518.402 731.419 518.298 731.366 518.205 731.319C518.115 731.275 518.033 731.233 517.967 731.196C517.967 731.196 517.965 731.195 517.962 731.193C517.896 731.158 517.84 731.131 517.796 731.107C517.794 731.103 517.792 731.103 517.787 731.1C517.745 731.081 517.717 731.063 517.699 731.054C517.692 731.052 517.688 731.05 517.686 731.047H517.683C517.683 731.047 517.688 731.072 517.694 731.094C517.697 731.105 517.701 731.12 517.703 731.134C517.71 731.162 517.719 731.198 517.73 731.242C517.734 731.262 517.739 731.286 517.745 731.313C517.754 731.355 517.765 731.403 517.779 731.454C517.852 731.793 517.955 732.328 518.042 732.985C518.048 733.042 518.055 733.104 518.066 733.164C518.068 733.182 518.07 733.204 518.073 733.224C518.086 733.341 518.099 733.463 518.113 733.586C518.124 733.697 518.132 733.81 518.146 733.925C518.148 733.938 518.148 733.954 518.148 733.967C518.163 734.161 518.177 734.365 518.188 734.568C518.194 734.706 518.201 734.845 518.203 734.986C518.227 735.867 518.183 736.818 518.017 737.755C517.982 737.952 517.94 738.149 517.896 738.344C517.825 738.634 517.743 738.925 517.648 739.206C517.584 739.394 517.511 739.58 517.431 739.764C517.312 740.038 517.179 740.303 517.027 740.558C516.925 740.73 516.814 740.894 516.697 741.058C516.578 741.219 516.454 741.374 516.317 741.522C516.25 741.597 516.179 741.668 516.104 741.741C515.452 742.385 514.611 742.896 513.536 743.203C512.853 743.398 512.072 743.561 511.201 743.689C510.955 743.725 510.701 743.756 510.44 743.787C510.407 743.791 510.374 743.796 510.338 743.798C509.914 743.844 509.471 743.884 509.011 743.917C508.991 743.92 508.967 743.92 508.945 743.922C507.731 744.001 506.399 744.021 504.964 743.979C504.807 743.975 504.645 743.97 504.482 743.964C504.318 743.957 504.157 743.95 503.991 743.944C502.841 743.889 501.629 743.793 500.366 743.654C500.187 743.634 500.005 743.612 499.822 743.592C499.638 743.572 499.455 743.55 499.271 743.526C498.941 743.484 498.607 743.437 498.271 743.391C498.181 743.38 498.088 743.364 497.995 743.351C497.716 743.309 497.433 743.265 497.148 743.221C496.721 743.154 496.287 743.081 495.847 743.002C495.653 742.966 495.454 742.931 495.257 742.895C494.863 742.82 494.465 742.745 494.065 742.663C493.921 742.635 493.779 742.606 493.636 742.575C493.439 742.535 493.237 742.493 493.041 742.449C492.979 742.435 492.915 742.422 492.853 742.407C492.446 742.318 492.034 742.225 491.621 742.128C491.592 742.121 491.563 742.115 491.534 742.108C491.315 742.057 491.096 742.004 490.88 741.951C490.411 741.834 489.938 741.714 489.462 741.588C489.223 741.526 488.982 741.46 488.743 741.396C488.653 741.374 488.562 741.347 488.471 741.321C488.323 741.279 488.173 741.237 488.022 741.192C487.865 741.148 487.706 741.102 487.549 741.055C487.418 741.018 487.29 740.98 487.16 740.943C486.72 740.812 486.279 740.677 485.833 740.538C484.061 739.985 482.259 739.352 480.434 738.638C479.372 738.227 478.3 737.789 477.229 737.32C476.535 737.017 475.838 736.703 475.137 736.375C473.166 735.451 471.182 734.431 469.205 733.312C468.265 732.777 467.327 732.22 466.392 731.638C464.976 730.762 463.572 729.831 462.176 728.842C462.128 728.809 462.079 728.78 462.035 728.745C456.616 724.897 451.379 720.195 446.639 714.493C446.141 713.891 445.622 713.298 445.084 712.71C444.668 712.246 444.235 711.79 443.797 711.334C443.77 711.317 443.753 711.29 443.735 711.273C442.992 710.509 442.222 709.76 441.424 709.014C436.235 704.202 429.936 699.858 423.184 695.981C422.848 695.791 422.507 695.596 422.166 695.408C422.162 695.401 422.158 695.401 422.153 695.397C421.883 695.246 421.609 695.094 421.339 694.948C415.553 691.725 409.478 688.852 403.533 686.32C402.936 686.066 402.343 685.818 401.75 685.577C395.757 683.08 381.94 678.508 372.394 675.416C366.668 673.559 362.479 672.236 362.439 672.216C361.953 671.955 342.691 661.713 324.4 648.748C306.127 635.791 288.818 620.121 292.169 608.97C295.971 596.324 334.258 590.697 362.419 588.41C378.943 587.07 391.983 586.877 392.525 587.096C393.045 587.3 394.166 587.908 394.195 587.928C395.564 588.729 397.137 589.401 398.877 589.956C417.551 595.914 455.893 588.381 477.638 580.041C490.225 575.215 499.53 575.127 505.506 576.117C499.006 578.46 569.846 658.428 577.187 667.045C577.492 667.403 581.387 670.741 583.274 671.568C583.701 671.756 584.055 672.074 584.291 672.477C584.293 672.479 584.293 672.481 584.296 672.484C585.127 673.946 585.992 675.41 586.883 676.878C587.153 677.323 587.427 677.767 587.702 678.21C589.61 681.295 591.647 684.372 593.815 687.408C598.225 693.586 589.396 700.683 583.809 703.195L583.805 703.184Z" fill="#DB965F"/>
<path opacity="0.1" d="M586.879 676.866C585.868 676.676 584.877 676.386 583.92 676.01C581.785 675.178 579.808 673.911 578.134 672.246C577.806 671.916 577.488 671.573 577.183 671.215C569.842 662.601 557.021 649.202 540.893 639.028C538.453 637.489 535.943 636.027 533.358 634.664C520.51 627.877 505.975 623.593 490.67 625.234C477.937 626.594 457.751 627.333 450.217 625.669C442.496 623.969 434.337 611.108 436.1 604.811C437.427 611.415 443.969 620.107 450.217 621.485C457.748 623.15 477.937 622.409 490.67 621.049C505.975 619.408 520.51 623.692 533.358 630.48C535.943 631.842 538.453 633.304 540.893 634.844C557.021 645.02 569.842 658.416 577.183 667.031C577.488 667.389 577.806 667.729 578.134 668.061C579.635 669.554 581.383 670.729 583.269 671.556C583.696 671.744 584.05 672.062 584.287 672.465C584.289 672.467 584.289 672.469 584.291 672.471C585.123 673.933 585.987 675.397 586.879 676.866Z" fill="black"/>
<path opacity="0.1" d="M583.805 703.182C583.484 703.326 583.161 703.461 582.834 703.589C582.686 703.649 582.535 703.707 582.387 703.76C581.974 703.91 581.556 704.047 581.131 704.169C580.93 704.229 580.724 704.286 580.521 704.337C580.457 704.355 580.388 704.372 580.324 704.386C580.204 704.417 580.087 704.443 579.966 704.47C579.835 704.501 579.707 704.525 579.576 704.551C579.497 704.567 579.419 704.585 579.337 704.598C579.295 704.607 579.251 704.613 579.207 704.622C579.127 704.638 579.05 704.651 578.97 704.664C578.913 704.673 578.857 704.682 578.798 704.693C578.707 704.706 578.614 704.722 578.521 704.733C578.415 704.748 578.307 704.764 578.201 704.775C576.502 704.972 574.783 704.916 573.107 704.609C572.994 704.589 572.879 704.567 572.769 704.545C572.656 704.521 572.541 704.496 572.43 704.47C572.317 704.445 572.205 704.419 572.094 704.39C571.842 704.33 571.596 704.262 571.349 704.189C571.196 704.142 571.039 704.096 570.886 704.045C567.618 702.981 564.568 700.953 561.845 698.164C560.925 697.22 555.776 692.657 557.758 696.817C558.457 698.29 559.852 699.08 560.874 700.292C561.502 701.039 561.918 701.926 562.172 702.868C562.316 703.611 562.411 704.366 562.46 705.124C562.475 705.407 562.491 705.695 562.495 705.982V705.987C562.539 708.782 561.947 711.755 560.655 714.312C560.653 714.321 560.648 714.327 560.642 714.338C559.717 716.167 558.428 717.784 556.758 718.97C555.588 719.799 554.263 720.389 552.872 720.717C552.775 720.741 552.675 720.761 552.574 720.781C552.474 720.801 552.372 720.821 552.271 720.838C551.406 720.993 541.292 721.279 541.272 719.87C541.331 724.371 540.573 727.593 539.29 729.856C539.188 730.037 539.08 730.214 538.972 730.384C538.863 730.555 538.75 730.716 538.635 730.875C538.461 731.112 538.281 731.335 538.096 731.545C537.97 731.685 537.844 731.82 537.715 731.95C534.718 734.938 530.304 735.018 526.382 734.221C526.106 734.166 525.832 734.104 525.562 734.04C525.199 733.954 524.845 733.863 524.498 733.766C524.323 733.717 524.149 733.669 523.981 733.618C523.894 733.591 523.81 733.567 523.726 733.54C523.556 733.489 523.392 733.436 523.226 733.383C523.063 733.33 522.901 733.277 522.742 733.222C522.185 733.032 521.656 732.833 521.165 732.64C521.026 732.585 520.891 732.532 520.758 732.476C520.291 732.284 519.865 732.1 519.489 731.928C519.382 731.882 519.279 731.833 519.181 731.789C519.033 731.718 518.894 731.652 518.763 731.592C518.677 731.55 518.597 731.51 518.522 731.475C518.405 731.417 518.301 731.364 518.208 731.318C518.117 731.271 518.036 731.229 517.969 731.194C517.969 731.194 517.968 731.193 517.965 731.191C517.901 731.156 517.843 731.127 517.799 731.105C517.797 731.101 517.794 731.101 517.79 731.099C517.75 731.079 517.719 731.061 517.702 731.052C517.695 731.048 517.688 731.043 517.686 731.043C517.686 731.043 517.684 731.046 517.686 731.046C517.688 731.054 517.69 731.07 517.697 731.092C517.699 731.103 517.702 731.116 517.706 731.132C517.713 731.16 517.721 731.196 517.733 731.24C517.737 731.26 517.741 731.284 517.748 731.311C517.757 731.353 517.768 731.402 517.781 731.452C517.854 731.791 517.958 732.326 518.044 732.983C518.053 733.04 518.06 733.102 518.069 733.162C518.071 733.18 518.073 733.202 518.075 733.222C518.089 733.339 518.102 733.461 518.115 733.585C518.126 733.695 518.135 733.808 518.148 733.923C518.151 733.936 518.151 733.952 518.151 733.965C518.168 734.16 518.181 734.361 518.19 734.567C518.197 734.704 518.204 734.843 518.206 734.985C518.23 735.865 518.186 736.816 518.02 737.754C517.985 737.95 517.945 738.147 517.898 738.342C517.832 738.632 517.748 738.924 517.651 739.204C517.587 739.392 517.514 739.578 517.434 739.762C517.315 740.036 517.182 740.301 517.029 740.556C516.927 740.728 516.817 740.892 516.7 741.056C516.58 741.217 516.456 741.372 516.319 741.52C516.253 741.595 516.182 741.666 516.107 741.739C515.454 742.383 514.614 742.894 513.539 743.201C512.856 743.396 512.075 743.559 511.204 743.688C510.958 743.723 510.704 743.754 510.443 743.785C510.41 743.789 510.376 743.794 510.341 743.796C509.919 743.845 509.474 743.884 509.014 743.915C508.994 743.918 508.97 743.918 508.948 743.92C507.733 743.999 506.4 744.022 504.967 743.977C504.81 743.973 504.648 743.968 504.484 743.962C504.321 743.955 504.159 743.949 503.993 743.942C502.843 743.889 501.631 743.792 500.368 743.652C500.189 743.632 500.008 743.61 499.824 743.59C499.641 743.57 499.457 743.548 499.274 743.524C498.944 743.482 498.61 743.438 498.274 743.389C498.183 743.378 498.09 743.362 497.998 743.349C497.719 743.309 497.438 743.265 497.15 743.219C496.724 743.152 496.29 743.079 495.85 743C495.655 742.964 495.456 742.929 495.259 742.894C494.866 742.818 494.468 742.743 494.067 742.661C493.924 742.633 493.782 742.604 493.638 742.573C493.441 742.533 493.24 742.491 493.043 742.447C492.981 742.434 492.917 742.42 492.855 742.405C492.448 742.316 492.037 742.223 491.623 742.126C491.595 742.119 491.566 742.113 491.537 742.106C491.318 742.055 491.099 742.002 490.882 741.949C490.414 741.832 489.94 741.713 489.465 741.586C489.226 741.525 488.985 741.458 488.746 741.394C488.507 741.328 488.266 741.261 488.025 741.193C487.868 741.149 487.709 741.102 487.552 741.056C487.421 741.018 487.293 740.98 487.162 740.943C486.722 740.812 486.28 740.677 485.835 740.538C484.064 739.985 482.261 739.353 480.437 738.638C479.375 738.227 478.302 737.789 477.232 737.32C476.537 737.017 475.841 736.703 475.14 736.376L474.363 732.846C474.363 732.846 498.104 740.476 505.69 718.18C505.69 718.18 525.516 726.237 529.185 704.211C529.185 704.211 544.848 709.351 544.359 680.959C544.359 680.959 568.157 687.844 587.702 678.208C589.611 681.293 591.648 684.37 593.815 687.406C598.225 693.584 589.396 700.681 583.809 703.193L583.805 703.182Z" fill="black"/>
<path d="M711.534 637.549L623.017 663.541L617.507 665.253L610.304 667.487L595.03 672.227C592.411 673.038 589.7 673.184 587.116 672.724C586.024 672.534 584.951 672.231 583.921 671.824C581.786 670.993 579.809 669.725 578.135 668.06C577.807 667.73 577.489 667.388 577.184 667.029C569.843 658.415 557.022 645.016 540.894 634.842C538.454 633.303 535.944 631.841 533.359 630.479C520.511 623.691 505.976 619.407 490.671 621.048C477.938 622.408 457.752 623.147 450.218 621.484C440.719 619.389 430.552 600.402 439.032 597.531C439.266 597.449 439.516 597.383 439.779 597.33C444.287 596.405 453.655 597.168 464.473 594.972C470.77 593.694 477.557 591.413 484.164 587.209C492.148 582.129 499.002 578.448 505.502 576.104C520.533 570.681 533.69 572.382 554.653 580.357C569.712 586.085 583.538 586.065 593.577 584.623C594.346 584.513 595.094 584.393 595.817 584.267C596.054 584.227 596.288 584.188 596.518 584.143C604.766 582.642 688.749 562.23 688.749 562.23L711.531 637.549H711.534Z" fill="#AA6B3F"/>
<path opacity="0.1" d="M711.534 637.55L623.017 663.542L617.507 665.254L593.577 584.626C594.346 584.516 595.094 584.396 595.817 584.27C596.054 584.23 596.288 584.19 596.518 584.146C604.766 582.644 688.749 562.233 688.749 562.233L711.531 637.552L711.534 637.55Z" fill="black"/>
<path opacity="0.1" d="M398.871 589.943L372.386 675.403C366.66 673.545 362.471 672.222 362.431 672.202C361.945 671.942 342.683 661.699 324.392 648.734L362.411 588.397C378.935 587.056 391.975 586.864 392.517 587.083C393.037 587.286 394.158 587.894 394.187 587.914C395.556 588.715 397.129 589.387 398.869 589.943H398.871Z" fill="black"/>
<path d="M667.365 659.87L636.149 669.29L632.397 670.42L625.099 672.623C623.885 672.983 622.608 672.293 622.248 671.079L592.934 572.66C592.574 571.446 593.261 570.17 594.476 569.809L601.164 568.157L605.689 567.036L641.096 558.282L667.365 659.87Z" fill="white"/>
<path d="M873.39 477.38C863.663 501.465 852.246 527.643 838.939 556.092C838.939 556.092 818.551 583.124 798.159 620.212C796.025 624.096 793.948 628.136 791.944 632.303L687.994 663.225L643.366 676.518C640.796 677.283 638.094 675.821 637.328 673.251L636.158 669.327L636.147 669.29L633.518 660.458L620.851 617.918L611.075 585.125L611.022 584.931L609.894 581.147L609.678 580.419H609.667L605.789 567.374L605.688 567.036L605.528 566.518L604.358 562.584C603.595 560.016 605.057 557.311 607.627 556.548L639.719 546.991L873.39 477.38Z" fill="#EF405B"/>
<path d="M396.349 582.937L367.035 681.356C366.675 682.57 365.399 683.26 364.185 682.897L355.895 680.183L353.212 679.305L311.951 665.801L279.607 655.215L339.352 569.901L358.116 573.347L383.387 577.989L385.525 578.383L394.806 580.086C396.018 580.447 396.708 581.723 396.347 582.937H396.349Z" fill="white"/>
<path opacity="0.1" d="M385.528 578.383L355.895 680.186L353.212 679.308L356.596 667.942V667.931L368.429 628.2L378.806 593.39L383.389 577.992L385.528 578.383Z" fill="black"/>
<path d="M384.918 572.867L383.75 576.789L383.491 577.647L383.387 577.992L380.629 587.265L378.807 593.39L368.429 628.2L356.597 667.931V667.942L356.331 668.835L353.211 679.308L353.12 679.609L351.952 683.532C351.187 686.102 348.484 687.564 345.912 686.799L307.223 675.276L119.816 619.475C85.0237 568.882 59.3059 516.316 68.9932 473.604L363.997 561.572L381.649 566.827C384.221 567.592 385.685 570.297 384.918 572.867Z" fill="#EF405B"/>
<path d="M422.719 690.376C422.469 692.014 421.994 693.552 421.335 694.932C415.549 691.711 409.473 688.838 403.526 686.306C402.929 686.052 402.336 685.802 401.743 685.563C403.378 679.052 408.651 674.617 414.098 675.444C419.977 676.34 423.838 683.022 422.717 690.373L422.719 690.376Z" fill="#F4AA6E"/>
<path d="M490.373 738.7C490.015 739.312 489.61 739.909 489.155 740.487C488.933 740.77 488.703 741.044 488.469 741.309C487.598 741.064 486.722 740.805 485.83 740.526C484.059 739.973 482.256 739.341 480.432 738.627C479.37 738.215 478.297 737.779 477.225 737.311C476.53 737.008 475.834 736.693 475.135 736.366C473.162 735.442 471.18 734.422 469.203 733.303C469.276 733.004 469.355 732.71 469.448 732.412C469.448 732.407 469.453 732.407 469.453 732.407C469.501 732.241 469.561 732.073 469.619 731.907C470.183 730.286 471.039 728.692 472.193 727.219C472.487 726.847 472.79 726.489 473.104 726.146C477.72 721.158 484.583 719.823 488.969 723.253C493.189 726.553 493.673 733.146 490.373 738.702V738.7Z" fill="#F4AA6E"/>
<path d="M445.51 707.227C445.07 708.691 444.486 710.06 443.792 711.318C443.768 711.298 443.748 711.274 443.728 711.254C442.985 710.491 442.215 709.741 441.416 708.998C436.228 704.185 429.929 699.839 423.179 695.962C422.84 695.772 422.504 695.575 422.161 695.389C425.696 689.075 432.059 685.585 437.82 687.337C444.761 689.442 448.206 698.344 445.51 707.224V707.227Z" fill="#F4AA6E"/>
<path d="M470.191 723.937C469.311 726.845 467.993 729.444 466.387 731.627C464.972 730.751 463.567 729.82 462.172 728.832C462.123 728.796 462.074 728.767 462.03 728.734C456.612 724.886 451.374 720.184 446.635 714.48C446.135 713.878 445.617 713.285 445.078 712.697C448.798 704.463 456.145 699.593 462.601 701.55C469.871 703.757 473.268 713.779 470.187 723.935L470.191 723.937Z" fill="#F4AA6E"/>
<path d="M421.743 687.928C420.626 695.277 414.953 700.51 409.072 699.617C403.191 698.723 399.332 692.039 400.449 684.69C401.566 677.34 406.535 668.235 413.511 669.862C421.814 671.8 422.86 680.578 421.743 687.928Z" fill="#AA6B3F"/>
<path d="M489.391 736.252C489.033 736.865 488.628 737.462 488.173 738.04C487.81 738.504 487.43 738.94 487.038 739.351C486.244 740.174 485.393 740.888 484.503 741.494C480.195 744.431 474.973 744.803 471.399 742.003C468.017 739.36 467.033 734.607 468.466 729.962C468.466 729.958 468.471 729.958 468.471 729.958C468.519 729.792 468.579 729.624 468.637 729.458C469.198 727.837 470.057 726.242 471.211 724.769C471.505 724.398 471.808 724.039 472.122 723.697C476.738 718.709 481.113 717.139 487.987 720.804C491.851 722.865 492.691 730.697 489.391 736.252Z" fill="#AA6B3F"/>
<path d="M444.533 704.784C441.839 713.662 434.028 719.153 427.085 717.046C420.142 714.94 416.699 706.033 419.393 697.156C422.087 688.278 428.854 678.232 438.152 681.488C447.791 684.861 447.227 695.906 444.531 704.784H444.533Z" fill="#AA6B3F"/>
<path d="M469.207 721.489C466.126 731.646 457.733 738.091 450.463 735.883C443.193 733.678 439.796 723.655 442.879 713.501C445.96 703.345 451.867 692.644 462.793 696.364C472.775 699.762 472.29 711.333 469.209 721.489H469.207Z" fill="#AA6B3F"/>
<path d="M464.472 594.973C463.125 602.165 445.124 600.124 445.124 600.124L439.031 597.532C439.265 597.45 439.515 597.383 439.778 597.33C444.286 596.406 453.655 597.169 464.472 594.973Z" fill="#C1875F"/>
<path d="M405.142 684.74L416.3 688.228C416.3 688.228 417.605 684.16 417.795 680.648C417.923 678.306 416.357 676.172 414.071 675.645C411.107 674.966 406.975 675.847 405.142 684.738V684.74Z" fill="#C1875F"/>
<path d="M426.063 697.119L438.971 701.153C438.971 701.153 440.479 696.449 440.701 692.388C440.849 689.679 439.037 687.21 436.392 686.602C432.964 685.815 428.187 686.834 426.063 697.121V697.119Z" fill="#C1875F"/>
<path d="M451.867 711.424L464.363 715.33C464.363 715.33 465.825 710.776 466.038 706.841C466.181 704.218 464.427 701.827 461.866 701.239C458.549 700.478 453.922 701.464 451.865 711.424H451.867Z" fill="#C1875F"/>
<path d="M476.929 729.275L484.78 734.351C484.78 734.351 486.656 731.496 487.556 728.831C488.155 727.053 487.405 725.073 485.756 724.18C483.617 723.021 480.246 722.815 476.926 729.275H476.929Z" fill="#C1875F"/>
<path opacity="0.1" d="M636.147 669.288L632.396 670.416L601.162 568.156L605.688 567.034L605.789 567.373L609.666 580.417H609.68L611.022 584.929L611.075 585.124L620.851 617.917L636.147 669.288Z" fill="black"/>
</svg>
