<svg width="30" height="25" viewBox="0 0 30 25" fill="none" xmlns="http://www.w3.org/2000/svg">
<g id="Group">
<g id="Group_2">
<g id="Group_3">
<path id="Vector" d="M27.4999 3.75005H21.25V2.50001C21.25 1.12125 20.1288 0 18.7499 0H11.25C9.8712 0 8.74995 1.12119 8.74995 2.50001V3.74999H2.50001C1.12119 3.75005 0 4.87123 0 6.25V9.99999C0 11.3788 1.12119 12.5 2.50001 12.5H12.5V11.875C12.5 11.5295 12.7795 11.25 13.125 11.25H16.875C17.2205 11.25 17.5 11.5295 17.5 11.875V12.5H27.5C28.8787 12.5 29.9999 11.3788 29.9999 9.99999V6.25C29.9999 4.87123 28.8787 3.75005 27.4999 3.75005ZM18.7499 3.75005H11.25V2.50001H18.7499V3.75005Z" fill="#2B2B2B"/>
<path id="Vector_2" d="M29.6531 13.1744C29.4401 13.0688 29.1856 13.0933 28.9975 13.236C28.5532 13.5724 28.0356 13.75 27.4997 13.75H17.4998V15.625C17.4998 15.9704 17.2203 16.25 16.8748 16.25H13.1248C12.7794 16.25 12.4998 15.9704 12.4998 15.625V13.75H2.49989C1.96399 13.75 1.44644 13.5724 1.00206 13.236C0.81345 13.092 0.559564 13.0676 0.346517 13.1744C0.134174 13.28 -0.00012207 13.4967 -0.00012207 13.7341V22.5C-0.00012207 23.8787 1.12107 25 2.49989 25H27.4998C28.8786 25 29.9998 23.8788 29.9998 22.5V13.7341C29.9998 13.4967 29.8655 13.28 29.6531 13.1744Z" fill="#2B2B2B"/>
</g>
</g>
</g>
</svg>
