<svg width="33" height="32" viewBox="0 0 33 32" fill="none" xmlns="http://www.w3.org/2000/svg">
<g id="Line">
<path id="Vector" d="M24.1328 17.8421L20.9718 16.125L17.1708 32.0001H25.7562V20.5816C25.7563 20.0213 25.6057 19.4713 25.32 18.9893C25.0344 18.5073 24.6243 18.111 24.1328 17.8421Z" fill="#2B2B2B"/>
<path id="Vector_2" d="M11.7074 3.90244C11.7074 3.13061 11.4785 2.37611 11.0497 1.73436C10.6209 1.09261 10.0114 0.592423 9.29837 0.297057C8.58529 0.00169086 7.80064 -0.0755904 7.04364 0.074986C6.28664 0.225562 5.59129 0.597234 5.04553 1.143C4.49976 1.68877 4.12809 2.38411 3.97751 3.14111C3.82694 3.89811 3.90422 4.68276 4.19958 5.39584C4.49495 6.10892 4.99514 6.71839 5.63689 7.1472C6.27864 7.576 7.03314 7.80488 7.80497 7.80488C8.63118 7.79647 9.43284 7.52287 10.0918 7.02439C10.4468 6.29749 10.9247 5.63738 11.5045 5.07317C11.6353 4.69655 11.7038 4.30112 11.7074 3.90244Z" fill="#2B2B2B"/>
<path id="Vector_3" d="M16.3904 15.6099C19.4077 15.6099 21.8538 13.1639 21.8538 10.1465C21.8538 7.12916 19.4077 4.68311 16.3904 4.68311C13.373 4.68311 10.9269 7.12916 10.9269 10.1465C10.9269 13.1639 13.373 15.6099 16.3904 15.6099Z" fill="#2B2B2B"/>
<path id="Vector_4" d="M28.8779 3.90244C28.8779 2.86745 28.4668 1.87485 27.7349 1.143C27.0031 0.411149 26.0105 0 24.9755 0C23.9405 0 22.9479 0.411149 22.2161 1.143C21.4842 1.87485 21.0731 2.86745 21.0731 3.90244C21.0732 4.3116 21.1418 4.71786 21.276 5.10439C21.8528 5.65923 22.3306 6.30858 22.6887 7.02439C23.3476 7.52287 24.1493 7.79647 24.9755 7.80488C25.488 7.80488 25.9954 7.70394 26.4689 7.50782C26.9424 7.31171 27.3726 7.02426 27.7349 6.66188C28.0973 6.29951 28.3848 5.8693 28.5809 5.39584C28.777 4.92237 28.8779 4.41491 28.8779 3.90244Z" fill="#2B2B2B"/>
<path id="Vector_5" d="M9.36578 10.1462C9.36659 9.79848 9.3953 9.45135 9.45164 9.10819C8.91882 9.27658 8.3636 9.36342 7.80481 9.36575C6.68894 9.36699 5.59946 9.02653 4.68286 8.39014L2.0292 9.36575C1.4304 9.58946 0.914708 9.9916 0.551799 10.5178C0.18889 11.044 -0.00374233 11.669 -7.05395e-05 12.3082V23.4145H5.46334V20.5814C5.46461 19.7408 5.6921 18.9161 6.12194 18.1937C6.55177 17.4714 7.16811 16.8781 7.90627 16.476L11.0829 14.7355C9.9782 13.4614 9.36874 11.8325 9.36578 10.1462Z" fill="#2B2B2B"/>
<path id="Vector_6" d="M30.7512 9.36575L28.0975 8.39014C27.1809 9.02653 26.0914 9.36699 24.9756 9.36575C24.4168 9.36342 23.8615 9.27658 23.3287 9.10819C23.3851 9.45135 23.4138 9.79848 23.4146 10.1462C23.4116 11.8325 22.8022 13.4614 21.6975 14.7355L24.8741 16.476C25.6123 16.8781 26.2286 17.4714 26.6584 18.1937C27.0883 18.9161 27.3158 19.7408 27.317 20.5814V23.4145H32.7804V12.3082C32.7841 11.669 32.5915 11.044 32.2286 10.5178C31.8657 9.9916 31.35 9.58946 30.7512 9.36575Z" fill="#2B2B2B"/>
<path id="Vector_7" d="M17.1707 18.7312V25.3497L16.3902 28.6278L15.6097 25.3497V18.7312C15.6097 18.5242 15.6919 18.3257 15.8383 18.1793C15.9846 18.0329 16.1832 17.9507 16.3902 17.9507C16.5972 17.9507 16.7957 18.0329 16.9421 18.1793C17.0884 18.3257 17.1707 18.5242 17.1707 18.7312Z" fill="#2B2B2B"/>
<path id="Vector_8" d="M17.1707 18.7312V25.3497L16.3902 28.6278L15.6097 25.3497V18.7312C15.6097 18.5242 15.6919 18.3257 15.8383 18.1793C15.9846 18.0329 16.1832 17.9507 16.3902 17.9507C16.5972 17.9507 16.7957 18.0329 16.9421 18.1793C17.0884 18.3257 17.1707 18.5242 17.1707 18.7312Z" fill="#2B2B2B"/>
<path id="Vector_9" d="M8.64771 17.8421C8.15618 18.111 7.74609 18.5073 7.46046 18.9893C7.17482 19.4713 7.02416 20.0213 7.02429 20.5816V32.0001H15.6097L11.8087 16.125L8.64771 17.8421Z" fill="#2B2B2B"/>
</g>
</svg>
