<svg width="30" height="22" viewBox="0 0 30 22" fill="none" xmlns="http://www.w3.org/2000/svg">
<g id="Group 1000002427">
<g id="Group">
<g id="Group_2">
<path id="Vector" d="M19.4309 11.9026L16.9705 14.3714C15.9727 15.3726 14.2172 15.3942 13.1979 14.3714L10.7373 11.9026L1.90009 20.7685C2.22904 20.9206 2.59173 21.0114 2.97731 21.0114H27.191C27.5766 21.0114 27.9392 20.9207 28.268 20.7685L19.4309 11.9026Z" fill="#2B2B2B"/>
</g>
</g>
<g id="Group_3">
<g id="Group_4">
<path id="Vector_2" d="M27.1911 0.354492H2.97738C2.59179 0.354492 2.2291 0.445265 1.90027 0.597375L11.3434 10.0719C11.3441 10.0725 11.3448 10.0726 11.3455 10.0733C11.3461 10.0739 11.3462 10.0748 11.3462 10.0748L14.4167 13.1554C14.7428 13.4815 15.4258 13.4815 15.7519 13.1554L18.8218 10.0753C18.8218 10.0753 18.8225 10.0739 18.8231 10.0733C18.8231 10.0733 18.8245 10.0725 18.8251 10.0719L28.2681 0.597318C27.9393 0.44515 27.5767 0.354492 27.1911 0.354492Z" fill="#2B2B2B"/>
</g>
</g>
<g id="Group_5">
<g id="Group_6">
<path id="Vector_3" d="M0.670121 1.80127C0.499937 2.14543 0.395508 2.52745 0.395508 2.93668V18.4289C0.395508 18.8381 0.499822 19.2201 0.670064 19.5643L9.52259 10.6831L0.670121 1.80127Z" fill="#2B2B2B"/>
</g>
</g>
<g id="Group_7">
<g id="Group_8">
<path id="Vector_4" d="M29.4984 1.80127L20.646 10.6832L29.4984 19.5645C29.6686 19.2203 29.773 18.8383 29.773 18.429V2.93679C29.773 2.52745 29.6686 2.14543 29.4984 1.80127Z" fill="#2B2B2B"/>
</g>
</g>
</g>
</svg>
