<svg width="29" height="35" viewBox="0 0 29 35" fill="none" xmlns="http://www.w3.org/2000/svg">
<g id="Group">
<g id="Icon">
<path id="Vector" fill-rule="evenodd" clip-rule="evenodd" d="M14.5076 1.10483C21.963 1.20743 27.9319 7.34291 27.8293 14.7983C27.7759 18.6805 25.7837 22.6498 23.3054 25.9717C19.8449 30.6113 15.551 33.9695 15.551 33.9695L15.5509 33.9703C14.6681 34.6607 13.4238 34.6436 12.5602 33.9291L12.5602 33.9283C12.5602 33.9283 8.3603 30.4533 5.02882 25.7202C2.64284 22.3313 0.760687 18.3088 0.814113 14.4265C0.916712 6.97114 7.05219 1.00223 14.5076 1.10483ZM14.3982 9.05047C17.4676 9.09271 19.9259 11.6196 19.8836 14.689C19.8414 17.7584 17.3146 20.2166 14.2452 20.1744C11.1758 20.1321 8.71751 17.6053 8.75975 14.5359C8.80199 11.4665 11.3288 9.00823 14.3982 9.05047Z" fill="#2B2B2B"/>
</g>
</g>
</svg>
