<svg width="144" height="24" viewBox="0 0 144 24" fill="none" xmlns="http://www.w3.org/2000/svg">
<g id="Group 1000002395">
<g id="Group 1000002394">
<path id="Vector" d="M143.395 9.85082L138.029 15.3469L139.29 23.1254C139.401 23.7461 138.728 24.2006 138.189 23.9063L131.592 20.2522V0C131.872 0 132.152 0.130143 132.272 0.40044L135.586 7.45819L142.964 8.57942C143.581 8.68954 143.808 9.41534 143.395 9.85082Z" fill="#ECEFF1"/>
<path id="Vector_2" d="M131.591 0V20.2522L124.994 23.9063C124.465 24.2036 123.781 23.7531 123.893 23.1254L125.154 15.3469L119.788 9.85082C119.375 9.41534 119.601 8.68954 120.219 8.57942L127.597 7.45819L130.911 0.40044C131.031 0.130143 131.311 0 131.591 0Z" fill="#FFD043"/>
</g>
<path id="Vector_3" d="M23.398 8.57827L16.009 7.44959L12.6971 0.395088C12.4497 -0.131696 11.5854 -0.131696 11.338 0.395088L8.0271 7.44959L0.638099 8.57827C0.0311957 8.67141 -0.211165 9.40951 0.214468 9.84516L5.58246 15.3474L4.31357 23.1259C4.21242 23.7439 4.8724 24.2075 5.41822 23.9041L12.018 20.2567L18.6179 23.9051C19.1587 24.2055 19.8247 23.7509 19.7225 23.1269L18.4536 15.3484L23.8216 9.84616C24.2472 9.40951 24.0039 8.67141 23.398 8.57827Z" fill="#FFD043"/>
<path id="Vector_4" d="M53.7136 8.57827L46.3246 7.44959L43.0127 0.395088C42.7653 -0.131696 41.901 -0.131696 41.6536 0.395088L38.3427 7.44959L30.9537 8.57827C30.3468 8.67141 30.1044 9.40951 30.5301 9.84516L35.8981 15.3474L34.6292 23.1259C34.528 23.7439 35.188 24.2075 35.7338 23.9041L42.3337 20.2567L48.9335 23.9051C49.4743 24.2055 50.1403 23.7509 50.0381 23.1269L48.7692 15.3484L54.1372 9.84616C54.5629 9.40951 54.3195 8.67141 53.7136 8.57827Z" fill="#FFD043"/>
<path id="Vector_5" d="M84.0295 8.57827L76.6405 7.44959L73.3285 0.395088C73.0812 -0.131696 72.2169 -0.131696 71.9695 0.395088L68.6586 7.44959L61.2696 8.57827C60.6627 8.67141 60.4203 9.40951 60.8459 9.84516L66.2139 15.3474L64.945 23.1259C64.8439 23.7439 65.5039 24.2075 66.0497 23.9041L72.6495 20.2567L79.2493 23.9051C79.7901 24.2055 80.4561 23.7509 80.354 23.1269L79.0851 15.3484L84.4531 9.84616C84.8787 9.40951 84.6354 8.67141 84.0295 8.57827Z" fill="#FFD043"/>
<path id="Vector_6" d="M114.345 8.57827L106.956 7.44959L103.644 0.395088C103.397 -0.131696 102.533 -0.131696 102.285 0.395088L98.9744 7.44959L91.5854 8.57827C90.9785 8.67141 90.7362 9.40951 91.1618 9.84516L96.5298 15.3474L95.2609 23.1259C95.1597 23.7439 95.8197 24.2075 96.3655 23.9041L102.965 20.2567L109.565 23.9051C110.106 24.2055 110.772 23.7509 110.67 23.1269L109.401 15.3484L114.769 9.84616C115.195 9.40951 114.951 8.67141 114.345 8.57827Z" fill="#FFD043"/>
</g>
</svg>
