<svg width="50" height="50" viewBox="0 0 50 50" fill="none" xmlns="http://www.w3.org/2000/svg">
<g clip-path="url(#clip0_155_3287)">
<path d="M25 50C38.8071 50 50 38.8071 50 25C50 11.1929 38.8071 0 25 0C11.1929 0 0 11.1929 0 25C0 38.8071 11.1929 50 25 50Z" fill="#81C16F"/>
<path d="M49.8806 27.4507L35.2229 12.793L8.97461 33.4511L11.7916 36.1854V37.207L24.5792 49.9946C24.7194 49.997 24.8595 50 25.0002 50C37.9805 50 48.649 40.1075 49.8806 27.4507Z" fill="#5DA36F"/>
<path d="M11.792 32.512H18.4276V37.207H11.792V32.512Z" fill="#593F5B"/>
<path d="M31.5732 32.512H38.2089V37.207H31.5732V32.512Z" fill="#452B47"/>
<path d="M37.2507 22.9343L35.4104 23.3098H14.5895L12.749 22.9343L14.7773 12.793H35.2225L37.2507 22.9343Z" fill="#CE3B0E"/>
<path d="M37.2508 22.9343L35.4104 23.3098H25V12.793H35.2226L37.2508 22.9343Z" fill="#C2126A"/>
<path d="M35.4107 23.3098H14.5898L16.3176 14.671H33.683L35.4107 23.3098Z" fill="#452B47"/>
<path d="M35.4104 23.3098H25V14.671H33.6827L35.4104 23.3098Z" fill="#332135"/>
<path d="M24.0615 18.4269H25.9396V21.2439H24.0615V18.4269Z" fill="#EFF5FF"/>
<path d="M25 18.4269H25.939V21.2439H25V18.4269Z" fill="#DAE7FD"/>
<path d="M41.026 27.817L39.1479 28.756L41.026 29.6949V33.451H31.5733L29.6953 31.573H20.3053L18.4272 33.451H8.97461V29.6949L10.8526 28.756L8.97461 27.817V25C8.97461 23.4412 10.2328 22.183 11.7916 22.183H38.2089C39.7677 22.183 41.0259 23.4412 41.0259 25V27.817H41.026Z" fill="#DF6426"/>
<path d="M41.0257 27.817L39.1477 28.756L41.0257 29.6949V33.451H31.573L29.695 31.573H25V22.1829H38.2086C39.7674 22.1829 41.0256 23.4411 41.0256 24.9999V27.817H41.0257Z" fill="#CE3B0E"/>
<path d="M35.3916 27.817H41.0256V29.695H35.3916V27.817Z" fill="#F3D652"/>
<path d="M8.97461 27.817H14.6086V29.695H8.97461V27.817Z" fill="#F3D652"/>
<path d="M18.4277 20.305V33.451H31.5737V20.305H18.4277Z" fill="#EFF5FF"/>
<path d="M25.001 20.305H31.574V33.451H25.001V20.305Z" fill="#DAE7FD"/>
<path d="M22.1836 27.817H27.8176V29.695H22.1836V27.817Z" fill="#DAE7FD"/>
<path d="M22.1836 24.061H27.8176V25.9391H22.1836V24.061Z" fill="#DAE7FD"/>
<path d="M25 24.061H27.817V25.9391H25V24.061Z" fill="#BFDAFE"/>
<path d="M25 27.817H27.817V29.695H25V27.817Z" fill="#BFDAFE"/>
</g>
<defs>
<clipPath id="clip0_155_3287">
<rect width="50" height="50" fill="white"/>
</clipPath>
</defs>
</svg>
