<svg width="50" height="50" viewBox="0 0 50 50" fill="none" xmlns="http://www.w3.org/2000/svg">
<g clip-path="url(#clip0_155_3349)">
<path d="M25 50C38.8071 50 50 38.8071 50 25C50 11.1929 38.8071 0 25 0C11.1929 0 0 11.1929 0 25C0 38.8071 11.1929 50 25 50Z" fill="#7583F1"/>
<path d="M50 25C50 23.301 49.8305 21.6414 49.5075 20.0376L41.3733 11.9033L36.9073 20.0025L32.8805 15.9758L30.8564 22.3873L24.4448 15.9758L22.2904 22.257L16.0091 15.9758L7.57336 36.0513L21.2414 49.7192C22.4674 49.9042 23.7225 50 25 50C38.8072 50 50 38.8071 50 25Z" fill="#4855B6"/>
<path d="M40.9931 32.6045L33.9681 36.0512H7.57336V20.4297L16.0091 15.9756V20.4297L24.4448 15.9756V20.4297L32.8804 15.9756V20.4297H40.9931V32.6045Z" fill="white"/>
<path d="M32.8803 20.4297V15.9756L24.4447 20.4297V15.9756L20.472 18.0731V36.0512H33.968L40.993 32.6045V20.4297H32.8803Z" fill="#E9EDF5"/>
<path d="M42.4804 36.0514H33.968L34.7778 18.3937L35.4572 16.6757L34.9665 14.2789L35.0753 11.9033H41.3731L41.4821 14.2789L40.7704 16.3363L41.6708 18.3937L42.4804 36.0514Z" fill="#CDD2E1"/>
<path d="M10.5763 23.1023H14.2786V30.229H10.5763V23.1023Z" fill="#636978"/>
<path d="M26.7073 23.1023H30.4096V30.229H26.7073V23.1023Z" fill="#414952"/>
<path d="M18.6418 23.1023H22.3442V30.229H18.6418V23.1023Z" fill="#636978"/>
<path d="M20.472 23.1023H22.3441V30.229H20.472V23.1023Z" fill="#414952"/>
<path d="M34.7778 18.3937H41.6708L41.4821 14.2788H34.9665L34.7778 18.3937Z" fill="#FE8205"/>
</g>
<defs>
<clipPath id="clip0_155_3349">
<rect width="50" height="50" fill="white"/>
</clipPath>
</defs>
</svg>
