<svg width="50" height="50" viewBox="0 0 50 50" fill="none" xmlns="http://www.w3.org/2000/svg">
<g clip-path="url(#clip0_155_3387)">
<path d="M25 50C38.8071 50 50 38.8071 50 25C50 11.1929 38.8071 0 25 0C11.1929 0 0 11.1929 0 25C0 38.8071 11.1929 50 25 50Z" fill="#E6F3FF"/>
<path d="M49.13 31.5542L30.6566 13.0808L18.0977 23.4849L10.8586 30.0505L30.2534 49.4454C39.4058 47.4877 46.7 40.5219 49.13 31.5542Z" fill="#CFDBE6"/>
<path d="M39.1415 30.0504H27.8284V18.7373H36.3131L39.1415 24.3938V30.0504Z" fill="#F9B54C"/>
<path d="M37.856 23.7511H30.5557V19.3801H35.6705L37.856 23.7511Z" fill="#31BAFD"/>
<path d="M30.6566 13.0808H10.8586V30.0505H30.6566V13.0808Z" fill="#FC6F58"/>
<path d="M30.6566 13.0808H20.7576V30.0505H30.6566V13.0808Z" fill="#F1543F"/>
<path d="M34.5134 32.8788C36.0754 32.8788 37.3417 31.6125 37.3417 30.0505C37.3417 28.4885 36.0754 27.2222 34.5134 27.2222C32.9513 27.2222 31.6851 28.4885 31.6851 30.0505C31.6851 31.6125 32.9513 32.8788 34.5134 32.8788Z" fill="#324A5E"/>
<path d="M16.5151 32.8788C18.0771 32.8788 19.3434 31.6125 19.3434 30.0505C19.3434 28.4885 18.0771 27.2222 16.5151 27.2222C14.9531 27.2222 13.6868 28.4885 13.6868 30.0505C13.6868 31.6125 14.9531 32.8788 16.5151 32.8788Z" fill="#324A5E"/>
</g>
<defs>
<clipPath id="clip0_155_3387">
<rect width="50" height="50" fill="white"/>
</clipPath>
</defs>
</svg>
