<svg width="50" height="50" viewBox="0 0 50 50" fill="none" xmlns="http://www.w3.org/2000/svg">
<g clip-path="url(#clip0_155_3398)">
<path d="M25 50C38.8071 50 50 38.8071 50 25C50 11.1929 38.8071 0 25 0C11.1929 0 0 11.1929 0 25C0 38.8071 11.1929 50 25 50Z" fill="#334D5C"/>
<path opacity="0.1" d="M29.8594 10.9583C29.75 10.7916 29.5729 10.677 29.3646 10.677H20.6354C20.3021 10.677 20.0365 10.9478 20.0365 11.2811V16.9634H14.2917V38.4218C14.2917 38.677 14.3959 38.9062 14.5677 39.0728L25.4825 49.9877C37.1934 49.7651 46.9285 41.4952 49.3915 30.4738L29.8646 10.9426L29.8594 10.9583Z" fill="black"/>
<path d="M29.9652 25.1262V11.2805C29.9652 10.9473 29.6954 10.677 29.3626 10.677H20.6373C20.3044 10.677 20.0347 10.9472 20.0347 11.2805V25.1262C20.0347 25.4595 20.3044 25.7297 20.6373 25.7297H29.3626C29.6954 25.7296 29.9652 25.4595 29.9652 25.1262Z" fill="#27A2DB"/>
<path d="M23.8223 24.7239C23.8235 24.7392 23.8372 24.7598 23.8248 24.7727C23.8026 24.7633 23.7813 24.7466 23.7709 24.7239C23.7662 24.7133 23.7679 24.6992 23.7632 24.688C23.7544 24.6667 23.7322 24.6555 23.717 24.6369C23.7026 24.6192 23.6904 24.596 23.6785 24.5778C23.6672 24.5604 23.6439 24.535 23.6606 24.5137C23.6906 24.5154 23.6903 24.5472 23.7145 24.5548C23.7324 24.5547 23.7345 24.5388 23.753 24.5394C23.7841 24.5749 23.8065 24.6309 23.8709 24.6393C23.8994 24.6432 23.9606 24.62 23.9632 24.6547C23.9664 24.6956 23.9221 24.6725 23.8992 24.6752C23.8898 24.6762 23.8835 24.6858 23.8709 24.6905C23.8485 24.6991 23.8281 24.6984 23.8223 24.7239Z" fill="#2D93BA"/>
<path d="M23.6683 24.4752C23.6255 24.461 23.6031 24.3986 23.5759 24.3572C23.5676 24.3446 23.5486 24.3343 23.5427 24.3188C23.5347 24.2988 23.5373 24.2761 23.5273 24.2547C23.5114 24.2208 23.4802 24.1954 23.4606 24.1649C23.4415 24.1351 23.4145 24.0915 23.4119 24.0572C23.4089 24.0192 23.4333 23.9491 23.4682 23.9956C23.4833 24.0158 23.501 24.0585 23.5118 24.0803C23.5484 24.1532 23.573 24.2557 23.6169 24.3162C23.6418 24.3503 23.6681 24.3812 23.6887 24.4136C23.6991 24.4299 23.6713 24.4572 23.6683 24.4752Z" fill="#2D93BA"/>
<path d="M25.3838 24.0317C25.386 24.0399 25.3798 24.0396 25.3787 24.0446C25.3421 24.0414 25.3181 24.0196 25.3222 23.9727C25.3242 23.9517 25.3398 23.9152 25.3504 23.9138C25.3873 23.9085 25.3646 24.0082 25.3838 24.0317Z" fill="#2D93BA"/>
<path d="M25.2095 23.906C25.2043 23.9245 25.146 24.0069 25.1198 23.9803C25.1054 23.966 25.1274 23.9475 25.1325 23.924C25.1394 23.8925 25.131 23.8684 25.148 23.8471C25.1671 23.8227 25.2087 23.8168 25.2326 23.7906C25.2446 23.7774 25.2609 23.7424 25.2583 23.7189C25.2539 23.6781 25.2072 23.6785 25.1864 23.642C25.1902 23.607 25.18 23.5863 25.1891 23.5599C25.1986 23.5322 25.2345 23.5183 25.2377 23.4932C25.2413 23.4671 25.1957 23.4055 25.2352 23.3958C25.2671 23.388 25.2776 23.4389 25.2993 23.4419C25.3215 23.4452 25.3562 23.422 25.366 23.4111C25.3757 23.4004 25.3765 23.3852 25.3839 23.3726C25.3917 23.3596 25.4068 23.3494 25.4147 23.3342C25.4428 23.2805 25.4314 23.1985 25.4763 23.1778C25.4842 23.1742 25.4929 23.1799 25.5044 23.1753C25.5185 23.1697 25.5231 23.149 25.5353 23.1419C25.5665 23.1237 25.6127 23.1365 25.6174 23.1676C25.6215 23.1956 25.5869 23.2509 25.566 23.2573C25.5551 23.2607 25.5428 23.2549 25.5301 23.2573C25.5149 23.2602 25.4779 23.2828 25.4763 23.3035C25.4741 23.33 25.515 23.3457 25.5301 23.3701C25.5405 23.387 25.5524 23.4146 25.5506 23.4368C25.5489 23.4586 25.5318 23.4732 25.5224 23.4983C25.5157 23.5162 25.5131 23.5385 25.5071 23.5599C25.5018 23.5785 25.4909 23.5946 25.484 23.6137C25.4618 23.6748 25.4489 23.7475 25.4096 23.7804C25.3989 23.7895 25.383 23.7893 25.3712 23.801C25.3602 23.8118 25.3495 23.8712 25.325 23.8727C25.3064 23.874 25.3053 23.8483 25.2865 23.8472C25.2491 23.8446 25.2514 23.897 25.2095 23.906Z" fill="#2D93BA"/>
<path d="M23.6736 23.3649C23.6415 23.3573 23.606 23.3329 23.5839 23.3009C23.5678 23.2778 23.5352 23.2041 23.5812 23.1958C23.594 23.1934 23.6536 23.2101 23.6659 23.2162C23.7018 23.2343 23.6783 23.2538 23.6736 23.283C23.6687 23.3129 23.6917 23.341 23.6736 23.3649Z" fill="#2D93BA"/>
<path d="M27.4023 23.1649C27.3716 23.1754 27.3413 23.1825 27.3126 23.1906C27.2774 23.1623 27.2904 23.1064 27.2716 23.065C27.2627 23.0455 27.2303 23.0401 27.2254 23.0214C27.2214 23.0063 27.2385 22.9946 27.2382 22.9804C27.2375 22.9435 27.1766 22.9255 27.192 22.8804C27.1767 22.8545 27.1176 22.8814 27.1126 22.8496C27.109 22.8271 27.1382 22.8146 27.1561 22.8009C27.1779 22.7843 27.1898 22.7606 27.2074 22.76C27.2257 22.7593 27.2562 22.7968 27.269 22.8086C27.2845 22.8232 27.3136 22.8519 27.3177 22.8702C27.3252 22.9044 27.3144 22.9391 27.3253 22.9651C27.3349 22.9876 27.3703 22.9889 27.3792 23.001C27.3869 23.0113 27.3847 23.023 27.3895 23.0318C27.4024 23.0556 27.4468 23.0813 27.492 23.0677C27.5206 23.0592 27.552 23.0117 27.5869 23.0421C27.5821 23.0875 27.5373 23.1474 27.492 23.1549C27.4743 23.1579 27.4566 23.1481 27.4382 23.1497C27.4276 23.1504 27.4163 23.1602 27.4023 23.1649Z" fill="#2D93BA"/>
<path d="M27.6818 23.1752C27.6687 23.1694 27.6715 23.1578 27.6639 23.147C27.6565 23.1365 27.633 23.1241 27.6306 23.1111C27.6267 23.0904 27.6508 23.0674 27.6459 23.0469C27.6402 23.0229 27.6218 23.0369 27.5999 23.029C27.6043 23.0079 27.6277 22.9735 27.6511 22.9725C27.6658 22.9719 27.6749 22.9911 27.6921 22.9956C27.7214 23.0033 27.7362 22.9835 27.7639 22.9725C27.7681 22.9717 27.7683 22.975 27.7717 22.9751C27.777 23.0001 27.7297 23.0493 27.7204 23.1059C27.7143 23.1424 27.7175 23.173 27.6818 23.1752Z" fill="#2D93BA"/>
<path d="M25.0787 23.0804C25.0573 23.0831 25.0599 23.0459 25.0736 23.042C25.0902 23.0427 25.0954 23.0759 25.0787 23.0804Z" fill="#2D93BA"/>
<path d="M27.897 22.9008C27.8836 22.9262 27.8532 22.9877 27.8252 22.9443C27.835 22.9182 27.8681 22.8908 27.897 22.9008Z" fill="#2D93BA"/>
<path d="M25.1915 22.7829C25.2075 22.8122 25.2426 22.8443 25.225 22.8957C25.193 22.8844 25.1937 22.8457 25.1788 22.8213C25.1637 22.7966 25.1381 22.7756 25.1353 22.7444C25.1398 22.742 25.1432 22.7387 25.1455 22.7341C25.1741 22.7339 25.1806 22.7625 25.1915 22.7829Z" fill="#2D93BA"/>
<path d="M25.6738 22.7136C25.6737 22.7437 25.683 22.7721 25.6712 22.793C25.6071 22.7891 25.6559 22.6896 25.6456 22.6238C25.6435 22.6098 25.6326 22.6056 25.638 22.5903C25.6596 22.5911 25.6816 22.6146 25.684 22.6391C25.686 22.658 25.6739 22.6861 25.6738 22.7136Z" fill="#2D93BA"/>
<path d="M25.5942 22.7391C25.5587 22.7421 25.5548 22.6935 25.5275 22.6801C25.4949 22.7014 25.4494 22.7097 25.4199 22.734C25.4003 22.733 25.3747 22.738 25.3659 22.7263C25.3561 22.6747 25.4489 22.6469 25.4813 22.6263C25.4739 22.5868 25.3477 22.6228 25.3634 22.5699C25.3711 22.544 25.4071 22.5702 25.4351 22.5647C25.4597 22.56 25.4648 22.5359 25.484 22.534C25.4997 22.5325 25.5165 22.5514 25.5327 22.5571C25.556 22.5653 25.6006 22.5601 25.6018 22.5878C25.6025 22.6016 25.5731 22.62 25.5711 22.6289C25.5645 22.6594 25.6024 22.6959 25.5942 22.7391Z" fill="#2D93BA"/>
<path d="M25.2122 22.6443C25.1928 22.6348 25.2021 22.5821 25.22 22.5776C25.2401 22.5867 25.234 22.6399 25.2122 22.6443Z" fill="#2D93BA"/>
<path d="M25.1507 22.5957C25.1468 22.5927 25.1434 22.5893 25.1404 22.5855C25.1466 22.566 25.1514 22.5452 25.1712 22.5393C25.1923 22.5538 25.1748 22.5951 25.1507 22.5957Z" fill="#2D93BA"/>
<path d="M25.2147 22.5262C25.1962 22.5132 25.2162 22.468 25.1968 22.4518C25.1974 22.4252 25.1978 22.3983 25.2199 22.3928C25.2387 22.4006 25.2258 22.4249 25.2276 22.4441C25.2303 22.4751 25.252 22.518 25.2147 22.5262Z" fill="#2D93BA"/>
<path d="M24.2327 22.1647C24.2554 22.1645 24.2753 22.1503 24.2993 22.1467C24.308 22.1453 24.3192 22.148 24.3301 22.1467C24.346 22.1449 24.3592 22.1371 24.3686 22.1389C24.3856 22.1425 24.3874 22.1623 24.4019 22.1672C24.4259 22.1753 24.4297 22.1573 24.4584 22.1569C24.4786 22.1566 24.4885 22.1723 24.5149 22.1827C24.5271 22.1875 24.5498 22.1877 24.5584 22.1929C24.5693 22.1996 24.5786 22.2278 24.5839 22.239C24.6033 22.2784 24.6391 22.3098 24.6456 22.3494C24.6472 22.3594 24.6444 22.373 24.6456 22.3801C24.6496 22.4034 24.6692 22.4326 24.6763 22.4648C24.6833 22.4959 24.6807 22.5234 24.6943 22.5469C24.7092 22.5726 24.748 22.609 24.7712 22.6186C24.7994 22.6303 24.8232 22.6268 24.8328 22.6494C24.8374 22.6605 24.8323 22.6713 24.8353 22.6828C24.8385 22.6947 24.8506 22.7201 24.8584 22.7289C24.8744 22.7468 24.9006 22.7497 24.9174 22.7699C24.9289 22.784 24.9468 22.8103 24.9558 22.8289C24.9613 22.8399 24.967 22.8602 24.9661 22.8698C24.9631 22.906 24.9125 22.9228 24.9226 22.9622C24.9261 22.9762 24.9559 22.9906 24.9738 23.0033C25 23.0218 25.0353 23.0352 25.043 23.0674C25.0494 23.0933 25.0331 23.1223 25.0558 23.1366C25.072 23.1398 25.0817 23.1245 25.0917 23.1366C25.0899 23.1665 25.0495 23.217 25.0482 23.2622C25.0474 23.2865 25.0748 23.3318 25.0379 23.3365C25.0217 23.3387 25.0084 23.3183 24.9918 23.3135C24.98 23.31 24.9736 23.3185 24.9609 23.3109C24.9527 23.2901 24.9484 23.268 24.925 23.2674C24.8957 23.2666 24.882 23.3088 24.8659 23.334C24.8549 23.3514 24.8382 23.3658 24.8327 23.3751C24.828 23.383 24.8258 23.3954 24.8224 23.4007C24.8116 23.4174 24.7871 23.4292 24.7865 23.4521C24.7859 23.4782 24.819 23.5042 24.8507 23.5187C24.8876 23.5358 24.9323 23.5367 24.9712 23.5444C24.9841 23.5469 24.9968 23.5562 25.0097 23.5598C25.0447 23.5697 25.0921 23.5831 25.1046 23.6136C25.0721 23.6443 25.009 23.6547 24.9557 23.6497C24.9402 23.6701 24.9454 23.7061 24.9096 23.7111C24.8971 23.7128 24.8814 23.705 24.8687 23.706C24.8471 23.7077 24.8282 23.7238 24.8097 23.7266C24.7755 23.7316 24.7473 23.7209 24.7225 23.7367C24.6912 23.7568 24.6922 23.796 24.6583 23.8214C24.6372 23.821 24.6288 23.8293 24.6123 23.8342C24.6045 23.8366 24.5917 23.8343 24.5866 23.8368C24.5695 23.8451 24.5678 23.8672 24.5533 23.8753C24.5462 23.8793 24.5328 23.8781 24.5199 23.883C24.5011 23.89 24.4871 23.9069 24.4687 23.9189C24.4509 23.9305 24.4316 23.9494 24.4173 23.9523C24.3918 23.9575 24.3743 23.9389 24.3532 23.9343C24.3277 23.9288 24.2948 23.9343 24.2686 23.9241C24.2378 23.9122 24.2073 23.8828 24.1686 23.8599C24.1366 23.8411 24.1007 23.8156 24.0789 23.7881C24.0659 23.7719 24.0584 23.7527 24.0454 23.7368C24.0254 23.7123 23.9994 23.6922 23.9762 23.6702C23.9518 23.6471 23.9332 23.6191 23.9121 23.6009C23.8816 23.5746 23.8324 23.5615 23.8275 23.5164C23.8246 23.49 23.8269 23.4662 23.8172 23.442C23.8022 23.4041 23.7744 23.3789 23.7737 23.36C23.7731 23.3402 23.797 23.3219 23.7993 23.3036C23.802 23.283 23.7838 23.267 23.784 23.237C23.7841 23.2248 23.7912 23.2185 23.7968 23.2011C23.8084 23.1644 23.8079 23.1241 23.8481 23.119C23.8699 23.116 23.8798 23.1329 23.8994 23.1317C23.919 23.1306 23.9239 23.1114 23.9404 23.1034C23.9581 23.1085 23.9804 23.1093 23.9918 23.0906C24.0078 23.09 24.0192 23.094 24.0277 23.1009C24.0214 23.086 24.0174 23.0664 24.0072 23.0495C23.9959 23.0308 23.97 23.0173 23.9739 22.9958C23.981 22.9755 24.0012 22.9911 24.0174 22.988C24.0298 22.9858 24.0829 22.9574 24.0918 22.9444C24.102 22.9295 24.1223 22.8753 24.1252 22.8572C24.1376 22.778 24.0951 22.7274 24.0891 22.6649C24.0876 22.6488 24.0919 22.6313 24.0891 22.6162C24.0801 22.5647 24.0392 22.5073 24.0122 22.4751C24.0069 22.4221 24.0231 22.3683 24.007 22.3135C23.9912 22.2592 23.9459 22.228 23.9584 22.1443C23.9727 22.1277 23.9797 22.0982 24.0045 22.0981C24.024 22.0979 24.0367 22.127 24.0507 22.1366C24.0656 22.1467 24.1009 22.164 24.1225 22.1648C24.1395 22.1653 24.1599 22.1533 24.1814 22.1545C24.1981 22.1554 24.216 22.1649 24.2327 22.1647Z" fill="#2D93BA"/>
<path d="M25.302 22.1211C25.304 22.1352 25.3143 22.1456 25.3148 22.1596C25.316 22.1895 25.2927 22.219 25.2968 22.2544C25.2885 22.2621 25.2817 22.2568 25.2686 22.257C25.2526 22.2871 25.2554 22.3362 25.225 22.3519C25.2012 22.3294 25.2183 22.296 25.2225 22.2672C25.2261 22.2412 25.2243 22.2135 25.2276 22.1851C25.2317 22.1492 25.2516 22.1168 25.2558 22.0826C25.2584 22.0618 25.2528 22.0406 25.2558 22.0209C25.2593 21.9979 25.2918 21.9119 25.3146 21.9107C25.3382 21.9095 25.345 21.9494 25.3404 21.985C25.3345 22.0312 25.2938 22.062 25.302 22.1211Z" fill="#2D93BA"/>
<path d="M25.4788 22.1904C25.4842 22.1711 25.4813 22.1529 25.4866 22.1445C25.4973 22.1269 25.5281 22.1295 25.5456 22.1238C25.5633 22.1182 25.5727 22.0968 25.5968 22.0855C25.6318 22.0688 25.71 22.0615 25.7174 22.1059C25.7203 22.1238 25.7066 22.1421 25.7096 22.1546C25.7157 22.1793 25.7477 22.175 25.761 22.1956C25.7684 22.2071 25.7653 22.2281 25.7713 22.2443C25.7775 22.2611 25.7935 22.2737 25.8072 22.2853C25.82 22.2961 25.8415 22.3045 25.8507 22.3187C25.8612 22.3347 25.8615 22.3494 25.8713 22.3622C25.8969 22.3958 25.9327 22.3969 25.9636 22.4238C25.9898 22.4466 25.9384 22.4826 25.9175 22.4854C25.9012 22.4982 25.8971 22.5233 25.879 22.5342C25.8338 22.5191 25.83 22.4765 25.7662 22.4854C25.7558 22.487 25.7365 22.494 25.7226 22.5008C25.7075 22.5081 25.6913 22.5298 25.6816 22.529C25.6624 22.5272 25.6632 22.4887 25.6431 22.4802C25.6245 22.4725 25.6233 22.4809 25.5944 22.4777C25.5734 22.4669 25.5684 22.4379 25.543 22.429C25.5125 22.4182 25.4731 22.4306 25.4506 22.406C25.4516 22.3889 25.4359 22.3703 25.4379 22.3496C25.44 22.3271 25.4708 22.3057 25.4713 22.27C25.4714 22.2563 25.4625 22.2403 25.4636 22.2264C25.4643 22.2155 25.4743 22.2065 25.4788 22.1904Z" fill="#2D93BA"/>
<path d="M25.5358 22.0246C25.5358 22.0898 25.4346 22.0898 25.4346 22.0246C25.4346 21.9593 25.5358 21.9593 25.5358 22.0246Z" fill="#2D93BA"/>
<path d="M25.548 21.9287C25.5469 21.9368 25.5074 21.9651 25.4966 21.9646C25.4785 21.9637 25.4795 21.9367 25.4556 21.9287C25.4188 21.9167 25.377 21.9341 25.3581 21.9134C25.351 21.9017 25.3531 21.8807 25.353 21.8621C25.3857 21.8156 25.4247 21.7788 25.4683 21.739C25.4842 21.7246 25.498 21.707 25.5145 21.6979C25.539 21.6846 25.5659 21.6798 25.5889 21.6647C25.609 21.6512 25.6234 21.6265 25.6452 21.6133C25.6632 21.6026 25.6869 21.6016 25.7042 21.5903C25.7203 21.5797 25.7272 21.5618 25.7401 21.5492C25.7486 21.5411 25.7617 21.5364 25.7709 21.5287C25.8094 21.4965 25.8296 21.4345 25.8863 21.4314C25.9014 21.4445 25.8807 21.458 25.8761 21.4827C25.8731 21.4985 25.8774 21.5174 25.8735 21.5289C25.8657 21.5521 25.8293 21.5682 25.8094 21.5929C25.7982 21.6068 25.7906 21.6249 25.7787 21.639C25.766 21.6543 25.7477 21.6654 25.7403 21.6775C25.73 21.6942 25.7233 21.7172 25.7094 21.739C25.6906 21.7687 25.671 21.8216 25.6324 21.8287C25.6229 21.8305 25.6067 21.8243 25.5992 21.8261C25.5857 21.8297 25.5798 21.8466 25.5683 21.8569C25.554 21.8695 25.5326 21.8722 25.5298 21.8903C25.525 21.9084 25.5505 21.9092 25.548 21.9287Z" fill="#2D93BA"/>
<path d="M26.0865 20.7184C26.0793 20.7404 25.9897 20.8142 25.9404 20.7927C25.9263 20.7866 25.9082 20.7612 25.9122 20.7363C25.9202 20.6855 26.0332 20.6952 26.0789 20.7106C26.0826 20.7122 26.0851 20.7148 26.0865 20.7184Z" fill="#2D93BA"/>
<path d="M24.7889 19.013C24.8096 19.0153 24.8434 19.03 24.8556 19.0464C24.8732 19.07 24.8714 19.102 24.8838 19.1259C24.8941 19.1457 24.9112 19.1729 24.93 19.1875C24.946 19.1999 24.9643 19.2005 24.9762 19.2106C24.9844 19.2174 24.9866 19.233 24.9966 19.2413C25.0057 19.2487 25.0226 19.2471 25.0325 19.2593C25.0478 19.2949 24.9826 19.3052 24.9377 19.3107C24.9237 19.3123 24.9087 19.3195 24.9018 19.3183C24.8814 19.3146 24.8771 19.2921 24.8633 19.285C24.8071 19.2833 24.7583 19.2612 24.7121 19.2414C24.6722 19.2244 24.6285 19.2144 24.5941 19.2004C24.5816 19.1953 24.5718 19.1845 24.5608 19.18C24.5172 19.1614 24.4486 19.1546 24.43 19.121C24.4233 19.1088 24.4119 19.0621 24.4121 19.0491C24.4126 19.0177 24.4361 18.9905 24.4634 18.9825C24.4779 18.9781 24.4932 18.9824 24.5096 18.98C24.5301 18.9768 24.5477 18.9646 24.5711 18.9671C24.6233 18.9728 24.6486 19.0237 24.6917 19.0261C24.7239 19.0277 24.7561 19.0095 24.7889 19.013Z" fill="#2D93BA"/>
<path d="M28.4384 17.7768C28.3953 17.7798 28.4007 17.7111 28.364 17.7025C28.3473 17.6986 28.3251 17.7105 28.3102 17.7077C28.2832 17.7024 28.2911 17.6763 28.2768 17.6436C28.2696 17.6268 28.2428 17.6105 28.2409 17.5923C28.2391 17.5754 28.2508 17.5652 28.2485 17.5539C28.2454 17.5371 28.2247 17.5427 28.2204 17.518C28.2169 17.4982 28.238 17.4638 28.2126 17.4615C28.1964 17.46 28.1876 17.4924 28.1895 17.5128C28.1911 17.5288 28.2022 17.5406 28.2024 17.5563C28.2027 17.5867 28.1798 17.6065 28.1793 17.6256C28.178 17.6696 28.22 17.7129 28.2152 17.7589C28.213 17.7798 28.1983 17.7922 28.1998 17.8077C28.2022 17.8324 28.2307 17.8534 28.2409 17.8718C28.2841 17.864 28.3411 17.8725 28.3434 17.9128C28.3451 17.9405 28.296 17.9821 28.3434 17.9872C28.364 17.9894 28.3822 17.9653 28.3819 17.9488C28.3816 17.934 28.3527 17.9146 28.3767 17.9026C28.4002 17.9027 28.394 17.929 28.3998 17.9437C28.4042 17.9546 28.416 17.9623 28.4204 17.9744C28.4418 18.0354 28.3993 18.12 28.4511 18.1437C28.4973 18.0895 28.4342 17.9974 28.4383 17.9359C28.44 17.9097 28.4594 17.8751 28.4844 17.8668C28.4924 17.8641 28.503 17.8664 28.5177 17.8642C28.5341 17.8619 28.5513 17.8534 28.5613 17.8539C28.6076 17.8565 28.6164 17.9718 28.6742 17.9718C28.6953 17.9499 28.6918 17.8853 28.6691 17.8641C28.6609 17.8566 28.6445 17.8569 28.628 17.8462C28.593 17.8232 28.5888 17.749 28.5459 17.7257C28.5363 17.7205 28.5103 17.7115 28.4946 17.7154C28.4705 17.7213 28.4639 17.7751 28.4384 17.7768ZM25.9302 17.1665C25.941 17.0926 25.9112 17.0171 25.8892 16.9664C25.8765 16.9372 25.857 16.9075 25.8559 16.8818C25.8546 16.8574 25.8688 16.8334 25.8712 16.81C25.8744 16.7795 25.8714 16.7403 25.8661 16.7099C25.8608 16.6804 25.8399 16.6539 25.838 16.6279C25.8342 16.5781 25.8827 16.5308 25.9071 16.4997C25.922 16.4806 25.9342 16.4611 25.9481 16.4433C25.9632 16.4242 25.9722 16.3993 25.9866 16.3843C26.0061 16.3641 26.0401 16.3641 26.0661 16.3536C26.0966 16.3411 26.1191 16.303 26.1482 16.2741C26.1699 16.2524 26.2023 16.2025 26.2303 16.1971C26.2446 16.1944 26.261 16.2033 26.2765 16.2022C26.299 16.2009 26.3117 16.1839 26.3278 16.1843C26.3503 16.1848 26.3677 16.2114 26.3868 16.2177C26.3965 16.221 26.4102 16.2194 26.4227 16.2228C26.4487 16.23 26.4641 16.2472 26.5022 16.2433C26.5174 16.2418 26.5312 16.2288 26.5509 16.2279C26.5644 16.2274 26.5719 16.2367 26.5843 16.2356C26.6062 16.2337 26.6105 16.2052 26.6356 16.2022C26.6615 16.1993 26.683 16.2271 26.7125 16.2433C26.7257 16.2507 26.746 16.2546 26.756 16.2612C26.7779 16.2756 26.7884 16.2991 26.8099 16.31C26.8258 16.318 26.8493 16.3205 26.8612 16.3279C26.8765 16.3373 26.8847 16.3561 26.9047 16.374C26.9211 16.3886 26.941 16.3946 26.9483 16.4048C26.9576 16.4177 26.9599 16.4369 26.9662 16.451C26.9879 16.4985 27.0156 16.5331 27.0611 16.556C27.1023 16.549 27.1198 16.5596 27.1483 16.5766C27.1746 16.5923 27.1999 16.6037 27.215 16.6305C27.2331 16.6625 27.2348 16.6927 27.2688 16.715C27.2858 16.7262 27.3152 16.7431 27.3329 16.7433C27.3583 16.7435 27.3908 16.7173 27.3945 16.6946C27.3981 16.6714 27.3769 16.6358 27.4021 16.6228C27.4102 16.6186 27.429 16.6243 27.438 16.6228C27.4548 16.6198 27.4666 16.6054 27.479 16.6049C27.5031 16.6036 27.5281 16.6286 27.5559 16.6356C27.5937 16.6451 27.6226 16.6359 27.6662 16.633C27.7227 16.669 27.6946 16.7486 27.6893 16.8279C27.6884 16.8399 27.6921 16.8535 27.6918 16.8664C27.6907 16.9135 27.6765 16.9505 27.7174 16.9664C27.7328 16.9724 27.7902 16.9777 27.8046 16.9741C27.8218 16.97 27.8663 16.9363 27.8763 16.9202C27.8925 16.8948 27.8855 16.8579 27.9148 16.8433C27.9654 16.8551 27.9232 16.9119 27.9353 16.9458C27.9414 16.9632 27.9715 16.9612 27.9764 16.9767C27.9797 16.9871 27.9658 17.0006 27.9661 17.0151C27.9665 17.0275 27.989 17.0726 27.997 17.0843C28.0081 17.1007 28.031 17.1058 28.0405 17.1202C28.0469 17.13 28.0461 17.1429 28.0508 17.1536C28.0601 17.1753 28.0793 17.203 28.097 17.2177C28.1224 17.2388 28.1538 17.2484 28.1585 17.274C28.1648 17.3084 28.1517 17.3862 28.1893 17.392C28.2251 17.3975 28.2533 17.3605 28.2919 17.3741C28.3224 17.3849 28.317 17.4123 28.3354 17.451C28.3221 17.4697 28.2841 17.4643 28.261 17.4664C28.2608 17.4902 28.2681 17.5387 28.2892 17.5433C28.3157 17.5491 28.3425 17.5086 28.3585 17.4997C28.3758 17.4902 28.4062 17.488 28.4098 17.469C28.4173 17.43 28.356 17.392 28.356 17.3433C28.356 17.3113 28.3807 17.2774 28.4047 17.2689C28.4184 17.2641 28.4313 17.2685 28.4458 17.2664C28.4667 17.2632 28.4885 17.2507 28.5175 17.2561C28.5512 17.2757 28.5566 17.321 28.574 17.3536C28.5805 17.3659 28.5945 17.3757 28.5996 17.3895C28.608 17.4125 28.5995 17.4464 28.6124 17.469C28.6204 17.4833 28.6345 17.4793 28.6509 17.4896C28.6611 17.496 28.6671 17.5116 28.679 17.5203C28.6873 17.5263 28.6997 17.527 28.7073 17.5331C28.735 17.5554 28.7453 17.5961 28.7739 17.6126C28.7867 17.6199 28.7913 17.5999 28.8099 17.6049C28.8278 17.6132 28.8146 17.6452 28.8176 17.6638C28.8216 17.6894 28.8526 17.713 28.8586 17.7407C28.8649 17.7698 28.861 17.801 28.8714 17.828C28.8776 17.8441 28.8923 17.8589 28.8945 17.8742C28.8953 17.8796 28.8915 17.8947 28.8919 17.9024C28.8924 17.9121 28.8984 17.9227 28.8997 17.9357C28.9015 17.9546 28.8951 17.978 28.8946 18.0025C28.8937 18.043 28.9068 18.0815 28.8921 18.1153C28.8843 18.133 28.8644 18.1309 28.8561 18.1537C28.852 18.1652 28.8578 18.1804 28.8561 18.1974C28.8538 18.2225 28.8364 18.2487 28.8331 18.282C28.8319 18.2938 28.8346 18.3061 28.8331 18.3179C28.8286 18.3545 28.8092 18.3948 28.7971 18.4308C28.787 18.4608 28.7744 18.5245 28.7459 18.5257C28.7121 18.5272 28.7023 18.4704 28.7023 18.4462C28.7023 18.4058 28.7259 18.3524 28.7126 18.3103C28.6546 18.3109 28.6107 18.3736 28.6177 18.4308C28.645 18.4358 28.6298 18.3985 28.6561 18.4026C28.6755 18.4281 28.6432 18.4587 28.6484 18.4949C28.6523 18.5091 28.6726 18.5066 28.6869 18.5103C28.7054 18.5408 28.7325 18.5789 28.7125 18.6257C28.7171 18.6281 28.7204 18.6315 28.7228 18.636C28.751 18.6391 28.7656 18.6052 28.7921 18.6232C28.8103 18.6321 28.804 18.68 28.7895 18.6873C28.7721 18.6909 28.774 18.6755 28.7588 18.677C28.7383 18.6861 28.7351 18.707 28.7357 18.7181C28.737 18.7433 28.7596 18.7483 28.7716 18.772C28.7765 18.7816 28.777 18.7956 28.7819 18.8079C28.7877 18.8225 28.7993 18.8348 28.8024 18.8464C28.8047 18.8549 28.8024 18.8678 28.805 18.8797C28.8082 18.8949 28.8203 18.9109 28.8203 18.9233C28.8203 18.9387 28.8024 18.9498 28.7998 18.9695C28.7984 18.9802 28.8059 18.9924 28.8075 19.0079C28.8088 19.0205 28.806 19.0335 28.8075 19.0438C28.8111 19.0683 28.824 19.0851 28.8229 19.1054C28.8221 19.1197 28.8028 19.1442 28.8126 19.1541C28.8291 19.1707 28.8413 19.1319 28.8562 19.1439C28.8533 19.1832 28.8542 19.225 28.8485 19.2645C28.8402 19.3231 28.8112 19.3782 28.8101 19.4311C28.8457 19.4261 28.8355 19.3853 28.8511 19.367C28.8558 19.3614 28.8934 19.3385 28.905 19.3388C28.9108 19.3389 28.9601 19.3678 28.9665 19.3747C28.9878 19.3973 28.9876 19.4715 28.9589 19.4926C28.9392 19.5072 28.9095 19.5023 28.9102 19.5234C28.9107 19.5415 28.9552 19.5511 28.9563 19.5721C28.9573 19.5895 28.9278 19.5982 28.9281 19.6156C28.9285 19.6369 28.968 19.6516 28.9692 19.6797C28.9698 19.6949 28.9614 19.7 28.9589 19.7233C28.9692 19.7393 28.9828 19.7179 28.9973 19.7259C29.0182 19.7546 29.0023 19.8201 29.0152 19.8566C29.0274 19.8669 29.036 19.8436 29.0486 19.8541C29.0707 19.8857 29.0727 19.9388 29.0819 19.9926C29.0875 20.0255 29.1104 20.0565 29.1127 20.0823C29.1151 20.1093 29.0969 20.135 29.0973 20.1592C29.0975 20.174 29.102 20.1912 29.1076 20.2054C29.1132 20.2199 29.1272 20.2297 29.1307 20.244C29.1362 20.2665 29.1281 20.2948 29.1307 20.3209C29.1334 20.3484 29.1441 20.3727 29.141 20.3926C29.138 20.4112 29.1181 20.4262 29.1153 20.4439C29.1069 20.4979 29.1235 20.5536 29.1103 20.6029C29.1078 20.6117 29.0988 20.6206 29.0948 20.6312C29.0828 20.6641 29.0866 20.6866 29.0461 20.6927C29.0369 20.7186 29.0131 20.7338 29.005 20.7644C28.9996 20.7849 29.0075 20.8055 29.0075 20.8285C29.0075 20.8588 29.0064 20.8976 29.0024 20.9234C29.0002 20.9382 28.9893 20.9503 28.987 20.9645C28.9852 20.9749 28.9881 20.9886 28.987 21.0004C28.9854 21.0165 28.9788 21.0309 28.9792 21.044C28.98 21.0708 29.0041 21.0913 29.0075 21.1131C29.0093 21.1249 29.0033 21.1406 29.0024 21.1516C28.9988 21.1948 29.008 21.2446 28.9998 21.2799C28.9954 21.2987 28.9747 21.3309 28.9588 21.3517C28.9473 21.3667 28.929 21.3759 28.9203 21.3901C28.9122 21.4037 28.8975 21.4378 28.8998 21.4518C28.9023 21.4681 28.9206 21.4689 28.928 21.485C28.9393 21.5359 28.9118 21.6262 28.9305 21.6671C28.9378 21.683 28.9546 21.6798 28.9639 21.6928C28.9676 21.7697 28.9607 21.8464 28.9588 21.9185C28.9581 21.9438 28.9653 21.97 28.9613 21.9929C28.957 22.0183 28.9314 22.0368 28.9229 22.0621C28.9172 22.0789 28.9201 22.1086 28.9151 22.1339C28.9118 22.1509 28.9016 22.1649 28.8998 22.1775C28.8959 22.2048 28.9028 22.2311 28.9049 22.2571C28.9096 22.3159 28.9127 22.3915 28.8895 22.4495C28.8771 22.4803 28.8522 22.4932 28.8485 22.5264C28.8432 22.5738 28.8524 22.6471 28.8485 22.6957C28.8475 22.7073 28.8427 22.718 28.8434 22.7264C28.8445 22.7427 28.8584 22.7525 28.8588 22.7726C28.8594 22.7979 28.8192 22.8384 28.8254 22.8752C28.8362 22.8911 28.8512 22.8625 28.8613 22.8777C28.8733 22.8921 28.8614 22.9118 28.8613 22.9341C28.8612 22.9462 28.8675 22.9612 28.8664 22.9726C28.864 23.0007 28.8386 23.0275 28.8305 23.0623C28.824 23.09 28.8217 23.128 28.8253 23.1624C28.8281 23.187 28.8363 23.2082 28.8331 23.2316C28.8315 23.2428 28.8233 23.253 28.8202 23.2648C28.8175 23.2758 28.8201 23.2865 28.8177 23.2956C28.8154 23.3042 28.8073 23.3126 28.8049 23.3214C28.7912 23.369 28.7845 23.4325 28.769 23.4829C28.7598 23.5126 28.7414 23.5429 28.7408 23.5676C28.7404 23.5797 28.7461 23.5904 28.7459 23.606C28.7454 23.6835 28.7131 23.7746 28.6407 23.7674C28.6209 23.6768 28.7031 23.6009 28.6791 23.5059C28.6753 23.4908 28.6587 23.4739 28.6432 23.4752C28.5986 23.4787 28.6023 23.5914 28.5586 23.6007C28.5448 23.5823 28.5578 23.5622 28.5561 23.5469C28.5533 23.5238 28.5289 23.4848 28.5151 23.47C28.4988 23.4526 28.4572 23.4374 28.4535 23.4187C28.449 23.3958 28.4761 23.3608 28.4689 23.3264C28.4662 23.3137 28.4505 23.3016 28.4483 23.2905C28.4429 23.2622 28.4637 23.2262 28.4304 23.2085C28.407 23.2178 28.3744 23.2121 28.3611 23.2315C28.3526 23.244 28.3592 23.2596 28.3534 23.275C28.3467 23.293 28.3247 23.303 28.3123 23.3185C28.3022 23.3312 28.302 23.3449 28.2892 23.352C28.2703 23.3536 28.2683 23.3445 28.2559 23.3468C28.2344 23.3509 28.2295 23.3844 28.2149 23.3853C28.1964 23.3864 28.2003 23.3641 28.1815 23.3597C28.1696 23.3581 28.1664 23.3736 28.1508 23.3751C28.1403 23.3761 28.1293 23.3666 28.1174 23.3675C28.1003 23.3686 28.0889 23.382 28.0739 23.3802C28.061 23.3786 28.0508 23.3675 28.0457 23.3571C28.0772 23.3079 28.1207 23.2638 28.1611 23.2109C28.2025 23.1568 28.2534 23.0711 28.3406 23.0622C28.3539 23.0619 28.3644 23.0905 28.3841 23.0954C28.3923 23.0975 28.4038 23.0923 28.4149 23.0929C28.445 23.0947 28.474 23.1196 28.4918 23.1186C28.5114 23.1174 28.5478 23.0808 28.5533 23.0622C28.5455 23.0473 28.5299 23.062 28.5174 23.0596C28.5019 23.0567 28.483 23.0379 28.4815 23.0212C28.4773 22.9727 28.5439 22.9673 28.525 22.8904C28.5201 22.8704 28.4901 22.8426 28.4532 22.8494C28.442 22.8515 28.4299 22.8823 28.4148 22.8801C28.4 22.878 28.3956 22.8102 28.3969 22.7955C28.4002 22.7541 28.4311 22.7328 28.4302 22.6955C28.4298 22.6772 28.4149 22.6611 28.4123 22.6467C28.3976 22.566 28.4521 22.4461 28.3816 22.4186C28.3716 22.4146 28.3586 22.4168 28.3482 22.4134C28.3334 22.4084 28.3218 22.3966 28.3123 22.3928C28.3044 22.3897 28.2888 22.3902 28.2764 22.3851C28.2652 22.3804 28.2215 22.3319 28.2097 22.3748C28.2069 22.3851 28.2141 22.3899 28.2122 22.4031C28.2093 22.4251 28.1739 22.4618 28.1738 22.4876C28.1737 22.5031 28.1912 22.5246 28.1917 22.5364C28.1928 22.5602 28.1775 22.5773 28.1686 22.5954C28.1601 22.6127 28.1423 22.639 28.1429 22.6518C28.1442 22.676 28.161 22.6644 28.1686 22.6877C28.1555 22.7321 28.1085 22.7528 28.0711 22.7954C28.0577 22.8108 28.0461 22.8336 28.0276 22.8544C28.0172 22.866 27.9894 22.9017 27.9763 22.9031C27.9641 22.9044 27.9588 22.8931 27.948 22.8902C27.9325 22.886 27.921 22.8958 27.9096 22.8851C27.9247 22.8442 27.9651 22.8349 27.9993 22.8055C28.012 22.7946 28.0272 22.7837 28.0455 22.7671C28.0537 22.7595 28.0826 22.7324 28.0762 22.7157C28.064 22.6835 28.0151 22.7334 28.0044 22.7413C27.9818 22.7583 27.9514 22.781 27.9275 22.7824C27.9122 22.7834 27.8845 22.7725 27.8583 22.7722C27.8406 22.772 27.8245 22.7766 27.8096 22.7747C27.7945 22.7728 27.7774 22.7621 27.7609 22.7567C27.742 22.7507 27.7197 22.7493 27.7071 22.744C27.684 22.734 27.6567 22.7004 27.6558 22.6773C27.6549 22.656 27.6722 22.6468 27.6711 22.626C27.6696 22.5944 27.6406 22.5886 27.6173 22.5696C27.5921 22.5713 27.5834 22.5792 27.5661 22.5747C27.5389 22.5678 27.5341 22.53 27.5071 22.5312C27.482 22.5322 27.4772 22.5658 27.466 22.5824C27.4507 22.6053 27.4168 22.6454 27.3891 22.6672C27.3707 22.6814 27.3367 22.7021 27.3173 22.7005C27.2919 22.6986 27.2567 22.6256 27.2661 22.5953C27.2749 22.5666 27.3024 22.5764 27.3276 22.5697C27.347 22.5644 27.3554 22.5493 27.3712 22.5416C27.3795 22.5375 27.3926 22.5393 27.4019 22.5338C27.428 22.5184 27.4137 22.4913 27.4302 22.4594C27.4409 22.4385 27.4635 22.4445 27.4841 22.4364C27.5116 22.4254 27.5247 22.3789 27.5173 22.3416C27.512 22.3141 27.489 22.3055 27.4841 22.28C27.5063 22.2424 27.5614 22.2877 27.5662 22.2416C27.5698 22.2062 27.5154 22.1828 27.4994 22.162C27.4888 22.148 27.4865 22.1226 27.4713 22.121C27.443 22.118 27.4487 22.1508 27.4379 22.1774C27.428 22.2014 27.4009 22.2042 27.3994 22.2261C27.3982 22.2444 27.4184 22.2566 27.42 22.2748C27.4227 22.3064 27.4086 22.3319 27.3969 22.3517C27.3658 22.3389 27.343 22.2698 27.302 22.2696C27.2782 22.2695 27.2741 22.2972 27.2584 22.3184C27.2451 22.3363 27.2077 22.3599 27.1815 22.385C27.1702 22.3959 27.1628 22.4135 27.1559 22.4185C27.1389 22.4303 27.1183 22.4284 27.1072 22.4415C27.0931 22.4437 27.0897 22.435 27.0765 22.4364C27.058 22.4427 27.0615 22.4711 27.0431 22.4775C26.9988 22.4722 26.9572 22.4906 26.9406 22.4544C26.8612 22.4377 26.7992 22.4189 26.7559 22.3647C26.7172 22.3159 26.7057 22.2515 26.6866 22.1927C26.6818 22.1775 26.6657 22.1654 26.661 22.1517C26.6494 22.1177 26.6564 22.0568 26.6148 22.0544C26.5943 22.053 26.5819 22.0804 26.561 22.0826C26.5289 22.0858 26.4966 22.057 26.4943 22.0364C26.4927 22.0215 26.503 21.9894 26.5302 21.9877C26.5607 21.9856 26.5732 22.0256 26.5917 22.0288C26.6244 22.0341 26.6561 22.0006 26.6533 21.9621C26.6507 21.9282 26.5828 21.8512 26.5456 21.8493C26.5178 21.8478 26.4599 21.9043 26.443 21.9237C26.3795 21.9957 26.3415 22.0722 26.1866 22.0596C26.1473 22.0416 26.139 21.9956 26.1173 21.9596C26.1008 21.9322 26.0498 21.9185 26.0455 21.8723C26.0518 21.8538 26.0808 21.8646 26.0942 21.8595C26.1126 21.8525 26.1216 21.8157 26.1404 21.7929C26.1558 21.774 26.1801 21.7662 26.1943 21.7518C26.212 21.7339 26.2157 21.707 26.2277 21.685C26.2352 21.6712 26.2616 21.6605 26.2609 21.6466C26.26 21.624 26.2382 21.6318 26.202 21.6261C26.1663 21.6204 26.139 21.5944 26.0968 21.603C26.0797 21.6067 26.0657 21.6282 26.0481 21.6389C26.019 21.6567 25.9851 21.6592 25.9686 21.6774C25.9576 21.6894 25.9552 21.7099 25.9455 21.7236C25.926 21.7507 25.8839 21.7987 25.8608 21.8082C25.8339 21.8193 25.802 21.8086 25.7737 21.8159C25.7408 21.8245 25.7173 21.8674 25.6839 21.8417C25.6885 21.8172 25.7046 21.7957 25.7173 21.775C25.7391 21.7398 25.7579 21.7235 25.7942 21.7006C25.8048 21.6939 25.8152 21.6839 25.8249 21.68C25.8479 21.6711 25.874 21.673 25.9018 21.6647C25.9258 21.6575 25.9638 21.6297 25.9839 21.6082C26.0009 21.5902 26.0108 21.5583 26.0352 21.557C26.0696 21.5551 26.1101 21.5687 26.1507 21.5672C26.1594 21.5669 26.1683 21.5609 26.1788 21.5596C26.1986 21.5569 26.2226 21.5615 26.2405 21.557C26.2569 21.5528 26.2716 21.5408 26.2866 21.5339C26.3013 21.527 26.3162 21.52 26.3353 21.5134C26.3649 21.5029 26.4222 21.4913 26.425 21.4672C26.4282 21.4415 26.3768 21.4162 26.3763 21.3826C26.376 21.3654 26.3898 21.3424 26.4071 21.3391C26.4229 21.3358 26.4387 21.3471 26.4558 21.3468C26.4902 21.3459 26.5035 21.3215 26.5277 21.3031C26.5374 21.2957 26.5511 21.2938 26.5584 21.2877C26.5723 21.276 26.58 21.2538 26.5943 21.239C26.6079 21.2249 26.6274 21.2095 26.6405 21.2031C26.6605 21.1932 26.6865 21.1899 26.6892 21.1749C26.6917 21.1604 26.671 21.1437 26.6661 21.1287C26.661 21.113 26.6544 21.0747 26.6533 21.0594C26.6497 21.0079 26.6635 20.9661 26.602 20.9722C26.5744 20.9642 26.5741 20.9351 26.561 20.9158C26.5443 20.8913 26.5109 20.8734 26.4841 20.8466C26.471 20.8336 26.4629 20.8148 26.4507 20.8031C26.4407 20.7933 26.4245 20.7902 26.4148 20.78C26.389 20.7526 26.3868 20.7116 26.3508 20.6929C26.3081 20.6918 26.2759 20.713 26.2354 20.7083C26.217 20.706 26.2005 20.6923 26.1815 20.6903C26.1652 20.6886 26.1476 20.697 26.1302 20.6929C26.1209 20.6907 26.116 20.6803 26.1046 20.6723C26.0943 20.6652 26.0808 20.6624 26.0739 20.6571C26.0628 20.6484 26.055 20.6342 26.0456 20.6262C26.0301 20.6131 26.0191 20.6104 26.0174 20.598C26.0094 20.5418 26.1162 20.5279 26.161 20.5031C26.1816 20.4916 26.2002 20.4683 26.2251 20.4569C26.2539 20.4438 26.2899 20.4397 26.3226 20.421C26.3504 20.405 26.3783 20.383 26.4072 20.3723C26.4316 20.3631 26.4621 20.3553 26.4893 20.3466C26.5179 20.3375 26.5539 20.3276 26.5765 20.3261C26.6097 20.3239 26.6303 20.3325 26.6432 20.3055C26.6374 20.2808 26.6125 20.2698 26.6125 20.2414C26.6125 20.2141 26.6599 20.1406 26.7022 20.162C26.7276 20.1441 26.7415 20.0989 26.7714 20.0644C26.7886 20.0447 26.8294 20.0269 26.8329 19.9927C26.8339 19.9833 26.8286 19.971 26.8278 19.9619C26.826 19.9402 26.8298 19.9017 26.8278 19.8773C26.8254 19.8465 26.8185 19.8085 26.8228 19.7695C26.8255 19.7445 26.8303 19.7133 26.833 19.6874C26.8364 19.6546 26.8442 19.6109 26.8613 19.5926C26.8718 19.5812 26.9055 19.5767 26.91 19.5566C26.9155 19.5328 26.8971 19.5198 26.8921 19.4977C26.8813 19.4507 26.9018 19.4115 26.9229 19.3797C26.9378 19.3572 26.9455 19.3367 26.9562 19.3207C26.9824 19.2818 27.0608 19.2747 27.0614 19.2155C27.0616 19.195 27.0487 19.1622 27.0255 19.1591C27.0091 19.1571 26.9789 19.1786 26.9665 19.1874C26.926 19.2162 26.9107 19.2689 26.8563 19.2848C26.8522 19.2954 26.8657 19.3171 26.8538 19.3284C26.8304 19.3383 26.7871 19.3283 26.7769 19.3514C26.7593 19.4581 26.8177 19.4885 26.859 19.5362C26.8409 19.5638 26.8251 19.5547 26.8052 19.5644C26.7847 19.5742 26.7686 19.5896 26.7615 19.6079C26.7566 19.6208 26.7612 19.6373 26.7539 19.6566C26.7493 19.6687 26.7014 19.7193 26.6846 19.7208C26.6696 19.7221 26.6182 19.6875 26.6052 19.6771C26.5925 19.6669 26.5858 19.6511 26.5744 19.6463C26.5656 19.6427 26.5468 19.6439 26.5411 19.6413C26.5308 19.6366 26.5175 19.6135 26.5052 19.6002C26.492 19.5861 26.482 19.5699 26.4718 19.5566C26.4594 19.5405 26.4423 19.5304 26.4359 19.5131C26.4233 19.479 26.4287 19.4466 26.4103 19.4182C26.3983 19.3997 26.371 19.3996 26.3564 19.3772C26.3412 19.3538 26.3411 19.3136 26.3256 19.2796C26.3158 19.2579 26.2964 19.2447 26.2897 19.2259C26.287 19.2182 26.2893 19.2085 26.2872 19.2002C26.2828 19.1831 26.2707 19.1674 26.2667 19.1515C26.2635 19.1388 26.2651 19.1254 26.2615 19.113C26.2501 19.0735 26.21 19.0373 26.2334 18.9976C26.2766 18.9789 26.3309 18.9759 26.3693 18.9541C26.3888 18.943 26.3948 18.921 26.4153 18.9131C26.4318 18.912 26.4273 18.9319 26.441 18.9336C26.4686 18.9271 26.4817 18.9009 26.5052 18.8848C26.5167 18.877 26.5329 18.8733 26.5462 18.8643C26.5906 18.8337 26.6138 18.7734 26.6693 18.7616C26.6843 18.7585 26.6962 18.7622 26.7077 18.7591C26.7266 18.754 26.7467 18.7412 26.7615 18.7283C26.7729 18.7185 26.7806 18.6985 26.7974 18.6873C26.8085 18.6799 26.8241 18.6782 26.8359 18.6719C26.8835 18.6464 26.9255 18.6095 26.959 18.5694C26.9559 18.5484 26.9545 18.5259 26.941 18.5156C26.9074 18.5259 26.8793 18.542 26.8512 18.5591C26.8257 18.5748 26.798 18.5971 26.7691 18.6078C26.7585 18.6119 26.7445 18.6111 26.7332 18.6156C26.6925 18.6316 26.68 18.6824 26.6331 18.6925C26.6017 18.6993 26.5799 18.6909 26.5486 18.7002C26.5184 18.7091 26.5006 18.7535 26.4717 18.772C26.4481 18.7871 26.4146 18.7872 26.3922 18.7977C26.3593 18.813 26.3451 18.8559 26.3229 18.8874C26.303 18.9157 26.2723 18.9358 26.2511 18.9591C26.2386 18.9728 26.2363 18.9916 26.2228 18.995C26.2054 18.9994 26.1996 18.9877 26.1843 18.9847C26.1638 19.0045 26.1259 19.0236 26.1228 19.0565C26.1215 19.0701 26.1352 19.0872 26.1382 19.1078C26.1398 19.1182 26.1366 19.1299 26.1382 19.1385C26.1407 19.1522 26.1529 19.1641 26.1562 19.1796C26.1617 19.2058 26.1595 19.2362 26.1639 19.2694C26.1679 19.3007 26.1944 19.3223 26.187 19.3463C26.158 19.3726 26.1252 19.3537 26.0973 19.3463C26.0874 19.3436 26.0772 19.3436 26.069 19.3412C26.0233 19.3273 25.9895 19.291 25.9484 19.2744C25.9358 19.2694 25.9205 19.2703 25.9074 19.2643C25.8663 19.2451 25.8257 19.2054 25.7921 19.1744C25.7732 19.1571 25.756 19.1417 25.7408 19.1232C25.7256 19.1048 25.7174 19.0823 25.7024 19.0615C25.6723 19.0205 25.6292 18.9777 25.5894 18.9487C25.5741 18.9375 25.5563 18.9321 25.5433 18.9204C25.5246 18.9038 25.5154 18.8779 25.4971 18.8641C25.4826 18.8531 25.4565 18.8459 25.4304 18.8333C25.4011 18.8191 25.3813 18.7897 25.3407 18.7948C25.3252 18.7967 25.3155 18.8107 25.2996 18.8154C25.2723 18.8233 25.2493 18.8172 25.2202 18.8127C25.185 18.8273 25.1459 18.8376 25.1227 18.864C25.0708 18.8671 25.0205 18.8597 24.9765 18.864C24.9486 18.8667 24.9279 18.8776 24.9022 18.8665C24.8795 18.8569 24.8395 18.8195 24.8253 18.7973C24.8096 18.7731 24.8055 18.7361 24.7867 18.7101C24.7737 18.6921 24.7507 18.677 24.7354 18.6588C24.7101 18.6286 24.6866 18.5871 24.661 18.5844C24.6462 18.5829 24.624 18.596 24.6097 18.5998C24.5719 18.6099 24.5174 18.6195 24.4764 18.6024C24.432 18.5838 24.4412 18.4898 24.3943 18.4794C24.38 18.4762 24.3686 18.4857 24.3532 18.4844C24.3402 18.4835 24.293 18.4663 24.2788 18.4588C24.2576 18.4475 24.2481 18.4217 24.2301 18.405C24.2074 18.384 24.1744 18.3734 24.1506 18.3511C24.1181 18.3209 24.0839 18.28 24.0557 18.2408C24.0311 18.2067 24.0056 18.1456 24.0018 18.0921C23.9996 18.061 24.0091 18.0275 24.0044 17.9946C24.0026 17.9826 23.9916 17.9695 23.989 17.9535C23.9875 17.9443 23.9906 17.9348 23.989 17.9254C23.9862 17.9093 23.9734 17.8941 23.9736 17.8792C23.974 17.8459 24.0136 17.8033 24.0531 17.8023C24.0683 17.8019 24.0828 17.8153 24.0967 17.8151C24.1131 17.8148 24.1336 17.7947 24.1635 17.7792C24.192 17.7642 24.2245 17.7583 24.248 17.7433C24.273 17.7273 24.2848 17.7063 24.3044 17.6945C24.3439 17.6709 24.3906 17.6692 24.4378 17.6612C24.4532 17.6586 24.47 17.6481 24.4891 17.6457C24.5127 17.643 24.5388 17.6486 24.5582 17.6432C24.5733 17.639 24.5886 17.6224 24.607 17.6124C24.6402 17.5942 24.6837 17.5816 24.7095 17.5663C24.7337 17.5518 24.759 17.5227 24.7864 17.5201C24.8051 17.5184 24.8398 17.5224 24.8582 17.5252C24.8762 17.5279 24.8905 17.5413 24.9095 17.5457C24.9221 17.5487 24.9367 17.5451 24.9506 17.5483C25.0093 17.5614 25.0307 17.626 25.102 17.6175C25.1322 17.6139 25.1471 17.5925 25.1815 17.5894C25.1976 17.5878 25.2117 17.5974 25.2277 17.5971C25.2494 17.5967 25.2815 17.5783 25.3021 17.5688C25.3586 17.5429 25.4104 17.5269 25.4533 17.4894C25.4767 17.4689 25.4933 17.4421 25.5149 17.4253C25.5325 17.4114 25.5654 17.3948 25.579 17.3945C25.5936 17.3942 25.6028 17.4057 25.6174 17.4098C25.6363 17.4152 25.6721 17.4156 25.702 17.4226C25.7158 17.4259 25.749 17.4407 25.7712 17.4381C25.7927 17.4356 25.8338 17.4036 25.8404 17.3766C25.8492 17.3407 25.8289 17.3039 25.8327 17.2587C25.8575 17.2199 25.9221 17.2227 25.9302 17.1665ZM25.0121 18.5846C25.031 18.5965 25.084 18.6114 25.0968 18.5846C25.0968 18.5829 25.0968 18.5812 25.0968 18.5796C25.0755 18.5681 25.0241 18.5559 25.0121 18.5846ZM25.5481 18.5487C25.5658 18.5574 25.5847 18.5777 25.607 18.5744C25.6565 18.5669 25.6321 18.4746 25.5968 18.4642C25.573 18.4571 25.5541 18.4684 25.53 18.459C25.511 18.4691 25.5073 18.4944 25.5096 18.5257C25.5173 18.5429 25.5319 18.5408 25.5481 18.5487ZM25.284 18.3923C25.3028 18.4025 25.3151 18.3761 25.3353 18.3717C25.359 18.3666 25.3868 18.3774 25.3994 18.3563C25.3994 18.3537 25.3994 18.3512 25.3994 18.3486C25.3574 18.3301 25.288 18.3565 25.284 18.3923ZM27.8305 20.1412C27.8499 20.1316 27.8249 20.1039 27.8075 20.1157C27.8063 20.133 27.8164 20.1393 27.8305 20.1412ZM27.7254 19.5438C27.7334 19.5854 27.7998 19.5443 27.7921 19.513C27.7819 19.4721 27.72 19.5154 27.7254 19.5438ZM27.3947 19.354C27.4836 19.3668 27.4903 19.2975 27.5537 19.2847C27.5528 19.2906 27.5611 19.2876 27.5614 19.2924C27.5695 19.3092 27.5485 19.3348 27.569 19.3436C27.5994 19.3438 27.622 19.3053 27.6075 19.2667C27.6151 19.2556 27.6324 19.2541 27.6486 19.2513C27.6659 19.2223 27.7037 19.1503 27.7383 19.1514C27.7668 19.1522 27.7827 19.189 27.7818 19.2309C27.7952 19.2486 27.8364 19.2372 27.8459 19.2206C27.8605 19.1543 27.8506 19.119 27.8203 19.077C27.8057 19.0569 27.7957 19.0344 27.7869 19.0231C27.7789 19.0127 27.7569 18.9989 27.7459 19.0001C27.73 19.0017 27.7207 19.0244 27.6997 19.0335C27.6889 19.038 27.6754 19.037 27.6664 19.0412C27.6416 19.0524 27.6257 19.0811 27.6048 19.1027C27.5901 19.118 27.5582 19.1609 27.5407 19.1617C27.5261 19.1625 27.5228 19.1486 27.5074 19.1438C27.4922 19.1389 27.4564 19.1335 27.4433 19.1361C27.4151 19.1417 27.4142 19.1709 27.4022 19.1975C27.3904 19.224 27.3695 19.2495 27.3689 19.2771C27.3682 19.3064 27.3776 19.3376 27.3947 19.354ZM27.5793 18.7514C27.5918 18.8208 27.6506 18.7891 27.6716 18.7539C27.6875 18.7273 27.7014 18.6953 27.7203 18.6642C27.7313 18.6461 27.7521 18.5774 27.7741 18.577C27.7982 18.5765 27.806 18.6281 27.8485 18.6077C27.857 18.5726 27.8436 18.4891 27.8049 18.4949C27.7825 18.4982 27.7949 18.5247 27.7715 18.5308C27.7626 18.5057 27.7392 18.4752 27.7433 18.4487C27.7482 18.4173 27.7868 18.4093 27.81 18.3924C27.8092 18.368 27.8336 18.3519 27.8305 18.3231C27.8273 18.2929 27.7834 18.2769 27.7613 18.2616C27.7496 18.2534 27.7436 18.2404 27.7331 18.2359C27.7268 18.2333 27.7166 18.2362 27.7075 18.2334C27.679 18.2245 27.6685 18.1999 27.6434 18.2026C27.6212 18.205 27.6112 18.2291 27.5921 18.2308C27.5724 18.2291 27.5826 18.1976 27.5587 18.2C27.5209 18.2459 27.5766 18.2484 27.5844 18.2718C27.5907 18.2907 27.5792 18.3275 27.5844 18.3513C27.5885 18.3705 27.607 18.3857 27.6151 18.4077C27.6202 18.4212 27.6247 18.4379 27.6254 18.4565C27.6287 18.5381 27.5756 18.5907 27.5741 18.6616C27.5736 18.685 27.5748 18.727 27.5793 18.7514ZM27.2767 18.5872C27.3042 18.5886 27.3249 18.5767 27.3638 18.5744C27.3924 18.5271 27.3374 18.4917 27.3434 18.4437C27.347 18.4142 27.3814 18.3929 27.3766 18.3616C27.3741 18.3443 27.3517 18.3357 27.3485 18.3179C27.3418 18.2813 27.3778 18.2646 27.3638 18.2257C27.4056 18.1707 27.4738 18.1462 27.551 18.1333C27.5903 18.1034 27.5583 18.0577 27.5331 18.0358C27.5332 18.0224 27.5405 18.0055 27.5254 18.0026C27.478 17.9925 27.4729 18.0696 27.4407 18.0692C27.4198 18.069 27.4217 18.0391 27.4075 18.0257C27.3922 18.0113 27.3787 18.0209 27.369 18.0026C27.3629 17.952 27.3906 17.9352 27.4357 17.9358C27.4688 17.914 27.4929 17.8864 27.5203 17.8667C27.5304 17.8593 27.5461 17.8484 27.5614 17.8461C27.5734 17.8443 27.5885 17.8518 27.6024 17.8487C27.6269 17.8431 27.6453 17.7975 27.6587 17.7691C27.6732 17.7388 27.6868 17.7009 27.7049 17.6794C27.7177 17.6641 27.74 17.657 27.7485 17.6435C27.7557 17.632 27.7542 17.6177 27.7613 17.6076C27.7711 17.5935 27.7875 17.5959 27.7921 17.5769C27.7957 17.5672 27.7825 17.5523 27.7741 17.5461C27.7181 17.5336 27.7143 17.5792 27.6896 17.5999C27.6726 17.6143 27.6469 17.6214 27.6356 17.6359C27.6236 17.6513 27.6259 17.6724 27.6177 17.6922C27.6121 17.7059 27.595 17.7149 27.587 17.7281C27.5722 17.7526 27.5695 17.7919 27.5408 17.7948C27.5305 17.7796 27.5559 17.7451 27.5306 17.7333C27.5139 17.7303 27.5053 17.7465 27.4896 17.7461C27.4643 17.7455 27.4367 17.7174 27.4408 17.6922C27.4559 17.6897 27.4682 17.7056 27.4845 17.705C27.5171 17.7039 27.5669 17.6383 27.5819 17.605C27.589 17.5894 27.5894 17.5704 27.5973 17.5563C27.6114 17.5311 27.6463 17.487 27.6665 17.4717C27.6908 17.4534 27.7357 17.4377 27.7332 17.3973C27.7322 17.3808 27.7171 17.3673 27.7101 17.3538C27.7038 17.3415 27.698 17.3278 27.6897 17.3153C27.6798 17.3004 27.6697 17.2882 27.6691 17.2742C27.6678 17.2421 27.693 17.2147 27.687 17.187C27.685 17.1777 27.6766 17.1699 27.6665 17.1588C27.6515 17.1584 27.642 17.1632 27.6255 17.1613C27.611 17.153 27.6119 17.1281 27.6024 17.11C27.5883 17.0835 27.5597 17.0599 27.5383 17.0382C27.5246 17.0243 27.5133 17.0118 27.5024 17.01C27.4939 17.0087 27.4779 17.0173 27.4665 17.0152C27.4541 17.013 27.4284 16.9897 27.4177 16.9741C27.4115 16.9651 27.4107 16.953 27.4049 16.9434C27.3929 16.9232 27.3774 16.9141 27.3742 16.8972C27.3659 16.8524 27.3832 16.771 27.3358 16.7716C27.304 16.772 27.3039 16.8148 27.305 16.8409C27.3065 16.8771 27.2973 16.908 27.3025 16.928C27.3059 16.9419 27.3215 16.957 27.3281 16.9716C27.3323 16.9807 27.3323 16.9903 27.3359 16.9972C27.3436 17.0126 27.3561 17.0212 27.3615 17.0331C27.3722 17.0565 27.3805 17.1003 27.382 17.1254C27.3841 17.16 27.3785 17.1961 27.382 17.2407C27.3833 17.2567 27.3935 17.2724 27.3949 17.2895C27.3971 17.3173 27.3839 17.3541 27.3846 17.3767C27.3851 17.3923 27.4002 17.4097 27.3999 17.4279C27.3996 17.4486 27.3849 17.4703 27.3717 17.4741C27.3641 17.4762 27.3521 17.4697 27.3409 17.4716C27.3223 17.4745 27.3146 17.4906 27.3025 17.4896C27.2864 17.4882 27.265 17.4482 27.246 17.4537C27.2338 17.4572 27.2212 17.4859 27.2127 17.4998C27.2038 17.5144 27.1915 17.539 27.1896 17.5562C27.1879 17.5707 27.1936 17.5836 27.1921 17.5973C27.1897 17.6194 27.1764 17.6552 27.1665 17.6691C27.1495 17.6932 27.1223 17.6899 27.1127 17.7178C27.1085 17.7297 27.1108 17.7512 27.1075 17.7666C27.0994 17.8039 27.0684 17.8317 27.0716 17.8589C27.0766 17.9019 27.117 17.8823 27.1459 17.8872C27.2114 17.8982 27.2084 18.0261 27.1639 18.0513C27.159 18.07 27.1631 18.0864 27.1562 18.1077C27.1522 18.12 27.1387 18.1291 27.1357 18.141C27.1334 18.15 27.137 18.163 27.1357 18.1744C27.1301 18.2235 27.0935 18.2681 27.0998 18.3103C27.1037 18.337 27.1289 18.3565 27.1305 18.382C27.1335 18.431 27.094 18.4625 27.1126 18.5154C27.1262 18.5543 27.1666 18.5456 27.2075 18.5589C27.2359 18.5683 27.2552 18.5862 27.2767 18.5872ZM28.1511 21.3517C28.1837 21.3618 28.2167 21.3461 28.2383 21.326C28.2332 21.2964 28.2024 21.3178 28.1843 21.3158C28.1589 21.3128 28.1412 21.2859 28.1151 21.2875C28.1036 21.2776 28.099 21.2608 28.0792 21.2593C28.0679 21.2756 28.088 21.2827 28.0997 21.2952C28.1182 21.3149 28.1291 21.345 28.1511 21.3517ZM29.041 20.6798C29.041 20.6516 29.0299 20.6409 29.0204 20.6234C29.0153 20.6138 29.0125 20.5941 28.9973 20.6003C29.0004 20.6249 29.0116 20.674 29.041 20.6798ZM28.7255 19.5976C28.7115 19.6579 28.7795 19.6862 28.8179 19.6463C28.8268 19.637 28.8303 19.6056 28.8512 19.5925C28.8762 19.5769 28.9097 19.579 28.9024 19.5412C28.8995 19.5408 28.8952 19.5417 28.8948 19.5385C28.8387 19.535 28.8246 19.6166 28.7794 19.6154C28.7557 19.615 28.7532 19.5899 28.7255 19.5976Z" fill="#2D93BA"/>
<path d="M28.823 18.7539C28.8508 18.7465 28.8463 18.7991 28.8205 18.7898C28.8127 18.7817 28.8134 18.7592 28.823 18.7539Z" fill="#2D93BA"/>
<path d="M27.2894 18.4385C27.3105 18.4397 27.3184 18.4879 27.2997 18.4974C27.279 18.4942 27.2648 18.4484 27.2894 18.4385Z" fill="#2D93BA"/>
<path d="M27.4279 17.5588C27.4495 17.5856 27.4349 17.6451 27.4356 17.6819C27.416 17.675 27.3905 17.674 27.3792 17.6588C27.3868 17.6168 27.3971 17.5777 27.4279 17.5588Z" fill="#2D93BA"/>
<path d="M27.5637 17.3717C27.6006 17.4069 27.5811 17.4439 27.5099 17.4307C27.4887 17.4222 27.4603 17.3856 27.4919 17.3691C27.5167 17.3747 27.5351 17.3723 27.5637 17.3717Z" fill="#2D93BA"/>
<path d="M27.6459 17.423C27.6242 17.426 27.6144 17.4169 27.6074 17.4051C27.6133 17.3713 27.6741 17.397 27.6459 17.423Z" fill="#2D93BA"/>
<path d="M28.1665 16.9257C28.1812 16.9286 28.1994 16.9172 28.2076 16.9026C28.2124 16.8941 28.2102 16.8813 28.2154 16.8719C28.2291 16.8468 28.2577 16.8378 28.2641 16.8231C28.2922 16.825 28.3125 16.8154 28.3308 16.8231C28.3419 16.8278 28.3731 16.8615 28.3795 16.8795C28.3875 16.9019 28.3803 16.9254 28.3974 16.9385C28.3983 16.9444 28.397 16.9484 28.3949 16.9513C28.3787 16.9512 28.3761 16.9376 28.3615 16.9358C28.3382 16.939 28.3528 16.9801 28.3308 16.9846C28.3068 16.9807 28.3021 16.9591 28.2846 16.9589C28.2694 16.9588 28.2405 16.9901 28.2205 17.0051C28.2057 17.0164 28.1947 17.036 28.1794 17.0462C28.1661 17.0551 28.1503 17.057 28.1435 17.0641C28.1308 17.0775 28.1287 17.1081 28.1102 17.1103C28.0857 17.1133 28.076 17.0799 28.0486 17.0847C28.021 17.0495 28.0353 16.9907 28.0281 16.9333C28.0248 16.9074 27.999 16.8787 28.0203 16.8512C28.0375 16.8449 28.0399 16.874 28.0563 16.8768C28.0714 16.8748 28.0693 16.8557 28.0819 16.8512C28.1018 16.8586 28.1059 16.8819 28.1358 16.8795C28.1514 16.8937 28.1455 16.9213 28.1665 16.9257Z" fill="#2D93BA"/>
<path d="M28.2281 16.7332C28.249 16.7674 28.233 16.8272 28.2075 16.8305C28.1883 16.833 28.1856 16.8123 28.164 16.8049C28.1444 16.7982 28.1211 16.8062 28.1075 16.7972C28.0958 16.7894 28.0965 16.768 28.0922 16.7536C28.0825 16.7214 28.0447 16.6591 28.0871 16.6331C28.1098 16.6368 28.1143 16.6588 28.1332 16.6664C28.148 16.6668 28.1558 16.6511 28.1716 16.6536C28.1909 16.6568 28.1843 16.6713 28.1922 16.6921C28.1979 16.7071 28.2162 16.7136 28.2281 16.7332Z" fill="#2D93BA"/>
<path d="M28.7844 14.9815C28.7617 14.9869 28.7319 14.9141 28.7614 14.9071C28.785 14.9017 28.8144 14.963 28.7844 14.9815Z" fill="#2D93BA"/>
<path d="M23.0042 14.8971C23.0042 14.8843 23.0042 14.8715 23.0042 14.8586C23.0084 14.8656 23.0084 14.8902 23.0042 14.8971Z" fill="#2D93BA"/>
<path d="M28.9666 14.7817C28.9701 14.7851 28.9701 14.7938 28.9666 14.7972C28.9606 14.7947 28.954 14.7926 28.9563 14.7817C28.9598 14.7817 28.9632 14.7817 28.9666 14.7817Z" fill="#2D93BA"/>
<path d="M28.5588 14.5533C28.5446 14.5538 28.5212 14.5023 28.5485 14.4968C28.5533 14.4959 28.5628 14.4971 28.5689 14.5071C28.5774 14.5208 28.5726 14.5528 28.5588 14.5533Z" fill="#2D93BA"/>
<path d="M26.1765 13.4867C26.1727 13.4853 26.17 13.4829 26.1663 13.4816C26.1672 13.4542 26.2021 13.4788 26.1765 13.4867Z" fill="#2D93BA"/>
<path d="M27.969 12.4454C27.9795 12.4634 27.9533 12.4806 27.9409 12.4685C27.937 12.4487 27.9597 12.4437 27.969 12.4454Z" fill="#2D93BA"/>
<path d="M27.874 15.2406C27.877 15.2286 27.8765 15.2123 27.8791 15.1971C27.8815 15.184 27.8853 15.1685 27.8869 15.1561C27.8906 15.1244 27.8815 15.0902 27.8997 15.0714C27.9403 15.102 27.9801 15.1425 28.015 15.1817C28.0254 15.1934 28.0326 15.2184 28.0535 15.2124C28.0726 15.1906 28.0524 15.1638 28.0407 15.1432C28.0285 15.1215 28.011 15.0958 28.0073 15.0713C28.001 15.0289 28.0197 14.9727 27.997 14.938C27.9777 14.9332 27.9851 14.9775 27.9559 14.9712C27.9532 14.9543 27.9518 14.9382 27.9637 14.9252C27.9744 14.9133 27.9905 14.9201 27.997 14.9123C28.0079 14.8992 28.0109 14.8498 28.0073 14.8277C28.0029 14.8008 27.9868 14.777 27.9638 14.7738C27.9486 14.8061 27.9793 14.8596 27.9407 14.8713C27.9087 14.8536 27.8911 14.8117 27.8484 14.8173C27.8319 14.8196 27.8099 14.8392 27.8073 14.8532C27.8049 14.8674 27.8189 14.8754 27.8176 14.8892C27.8163 14.9037 27.7997 14.9003 27.8021 14.9174C27.8127 14.9422 27.8473 14.9558 27.8458 14.9841C27.8046 15.018 27.7845 14.9534 27.7714 14.9174C27.7566 14.8763 27.7486 14.823 27.7355 14.7917C27.7287 14.7753 27.6687 14.7133 27.715 14.7045C27.7484 14.6982 27.7389 14.7352 27.7663 14.743C27.774 14.7033 27.7492 14.6663 27.7355 14.6302C27.716 14.5786 27.7037 14.4913 27.6458 14.4788C27.6342 14.4764 27.6125 14.4839 27.6048 14.4763C27.5986 14.4701 27.5975 14.4333 27.592 14.4173C27.5835 14.3925 27.5653 14.371 27.5612 14.3557C27.5581 14.3442 27.559 14.3271 27.5561 14.3198C27.5481 14.2995 27.5205 14.2919 27.5022 14.2685C27.4947 14.259 27.4893 14.2377 27.4817 14.2301C27.4685 14.2169 27.4354 14.215 27.4304 14.1916C27.4291 14.1768 27.4416 14.1647 27.433 14.1505C27.4003 14.1488 27.3558 14.162 27.3227 14.148C27.298 14.1176 27.2804 14.0843 27.2586 14.0454C27.2465 14.024 27.2433 14.0047 27.2303 13.9787C27.2212 13.9603 27.1992 13.9435 27.1868 13.9224C27.158 13.8734 27.1238 13.8142 27.0509 13.8146C27.0351 13.8147 27.018 13.8229 26.9996 13.8249C26.9887 13.8261 26.9782 13.8236 26.9662 13.8249C26.9394 13.828 26.9053 13.8474 26.8868 13.8249C26.9009 13.7904 26.9057 13.7465 26.9303 13.7224C26.9557 13.7158 26.9765 13.7357 26.9996 13.7326C27.0181 13.7302 27.0511 13.7042 27.0535 13.689C27.056 13.6734 27.0394 13.659 27.0407 13.6429C27.0422 13.6238 27.0686 13.6059 27.0714 13.5814C27.0756 13.5453 27.0632 13.5187 27.0689 13.4788C27.0482 13.4402 27.0114 13.4288 27.0151 13.3815C27.0163 13.3648 27.029 13.3495 27.033 13.3302C27.0374 13.3093 27.0447 13.2775 27.0433 13.2558C27.0403 13.2121 27.009 13.1805 26.9894 13.1429C26.9722 13.1099 26.9508 13.063 26.915 13.0532C26.8958 13.0478 26.8687 13.0524 26.8509 13.0455C26.8392 13.0409 26.8287 13.031 26.8176 13.0249C26.7651 12.9961 26.6957 12.9723 26.6201 12.9942C26.6089 12.9975 26.5457 13.0261 26.5329 13.0378C26.5188 13.051 26.4974 13.0899 26.497 13.1121C26.4966 13.1309 26.5066 13.1529 26.5098 13.1711C26.5136 13.1922 26.5139 13.2186 26.5201 13.2378C26.5378 13.2933 26.6129 13.2823 26.6381 13.3378C26.6491 13.3621 26.6512 13.3901 26.6534 13.4328C26.642 13.4463 26.6221 13.4526 26.6047 13.4508C26.5916 13.4493 26.5798 13.4369 26.5611 13.4302C26.5447 13.4244 26.5256 13.4232 26.5123 13.4174C26.4951 13.4098 26.4824 13.3927 26.4662 13.3867C26.4556 13.3827 26.4425 13.3848 26.4329 13.3816C26.416 13.3757 26.4041 13.3531 26.3867 13.3636C26.3648 13.4185 26.3929 13.4849 26.3842 13.5329C26.3805 13.5531 26.3563 13.5948 26.3252 13.5944C26.3019 13.5941 26.2866 13.5764 26.2611 13.5738C26.2289 13.5707 26.1897 13.5574 26.1637 13.5559C26.1212 13.5537 26.0478 13.6184 26.0484 13.6637C26.049 13.7124 26.0969 13.7409 26.0715 13.7996C26.063 13.8191 26.0315 13.8397 26.033 13.8611C26.0343 13.8788 26.0654 13.9057 26.0869 13.9176C26.1132 13.932 26.1353 13.933 26.1485 13.9586C26.1627 13.9861 26.1559 14.008 26.169 14.0432C26.1748 14.059 26.1849 14.0726 26.1947 14.0867C26.2032 14.0992 26.2256 14.1123 26.21 14.1278C26.1896 14.1483 26.1781 14.1028 26.1561 14.1201C26.1373 14.1556 26.1911 14.1738 26.192 14.1997C26.1923 14.2079 26.176 14.2363 26.1664 14.2509C26.1533 14.271 26.1347 14.2778 26.1305 14.2997C26.1277 14.3137 26.1359 14.3363 26.133 14.356C26.1293 14.3822 26.1068 14.3978 26.1074 14.4176C26.108 14.4418 26.1343 14.4533 26.1381 14.474C26.1463 14.5193 26.133 14.5361 26.1047 14.5561C26.1009 14.5785 26.1306 14.5792 26.1201 14.5996C26.0977 14.5885 26.0874 14.6035 26.0688 14.6125C26.0568 14.6183 26.0484 14.6173 26.0432 14.6227C26.0315 14.6349 26.0315 14.6586 26.0201 14.6765C26.0082 14.6955 25.986 14.7062 25.9611 14.7278C25.9356 14.7502 25.9091 14.7877 25.9073 14.8175C25.9055 14.8457 25.9152 14.8686 25.9124 14.892C25.9059 14.945 25.8793 14.978 25.8507 15.0151C25.8349 15.0358 25.8238 15.0546 25.8046 15.0612C25.7913 15.0659 25.7734 15.0636 25.7585 15.0689C25.7265 15.0802 25.7112 15.1268 25.6559 15.11C25.6398 15.1177 25.634 15.135 25.6226 15.1535C25.6134 15.1684 25.5944 15.181 25.5917 15.1971C25.59 15.2075 25.5949 15.2188 25.5944 15.2278C25.5923 15.2569 25.5811 15.2769 25.5713 15.3022C25.5653 15.3178 25.5628 15.3379 25.5558 15.3483C25.5471 15.3614 25.5176 15.363 25.5097 15.3791C25.5047 15.3895 25.5117 15.4128 25.5097 15.4303C25.5065 15.4579 25.4897 15.4952 25.4892 15.5201C25.4889 15.5351 25.4954 15.5476 25.4944 15.5611C25.4895 15.6238 25.4144 15.6595 25.3918 15.7201C25.3848 15.739 25.3897 15.7687 25.3841 15.7817C25.3742 15.8044 25.3048 15.8236 25.2739 15.8252C25.1808 15.8304 25.1509 15.7588 25.0892 15.7175C25.0763 15.7089 25.0559 15.7041 25.0379 15.6919C25.0017 15.6673 24.9942 15.6399 24.9277 15.6431C24.9094 15.6441 24.8916 15.6534 24.8712 15.6534C24.8464 15.6534 24.8139 15.6513 24.7917 15.6457C24.7747 15.6415 24.7609 15.6274 24.7455 15.6251C24.7299 15.6229 24.7178 15.6297 24.7044 15.6277C24.6896 15.6254 24.6688 15.6107 24.648 15.5994C24.6043 15.5757 24.5528 15.5705 24.5352 15.5225C24.5248 15.4943 24.5306 15.456 24.5198 15.4251C24.5154 15.4126 24.5038 15.3969 24.4967 15.3815C24.4759 15.3368 24.4478 15.2733 24.4018 15.261C24.3608 15.25 24.328 15.2762 24.2812 15.2687C24.2673 15.2608 24.2533 15.25 24.2377 15.238C24.2231 15.2269 24.206 15.2214 24.1915 15.2098C24.1722 15.1943 24.1636 15.1704 24.1376 15.1611C24.1287 15.1579 24.1182 15.1598 24.1043 15.156C24.0991 15.1545 24.0911 15.145 24.0812 15.1405C24.0721 15.1363 24.0605 15.1365 24.0529 15.1328C24.0293 15.1211 23.9755 15.0862 23.9683 15.061C23.9533 15.0078 23.9909 14.9516 23.9838 14.9148C23.958 14.9201 23.9607 14.9388 23.9427 14.9507C23.9321 14.9577 23.9179 14.9615 23.9068 14.9711C23.8934 14.9826 23.8885 14.9928 23.8734 14.9942C23.8418 14.9972 23.81 14.9726 23.799 14.9558C23.789 14.9404 23.7831 14.9086 23.7786 14.8813C23.7754 14.8624 23.7752 14.8134 23.7631 14.8044C23.7453 14.7912 23.7014 14.8114 23.6837 14.8019C23.6461 14.7828 23.6847 14.7312 23.6734 14.7044C23.6541 14.7022 23.6337 14.7093 23.6247 14.725C23.6152 14.741 23.6275 14.7656 23.6092 14.7762C23.5837 14.771 23.5804 14.7436 23.5553 14.7378C23.5308 14.7385 23.5244 14.746 23.5092 14.7429C23.4763 14.7362 23.4776 14.685 23.4425 14.6864C23.39 14.6887 23.4115 14.7872 23.3604 14.789C23.3295 14.79 23.3292 14.7607 23.2989 14.7505C23.2828 14.745 23.279 14.7537 23.2656 14.7505C23.2474 14.7462 23.2421 14.7249 23.222 14.7249C23.1975 14.7248 23.1705 14.7608 23.1502 14.7787C23.1303 14.7963 23.102 14.8188 23.0887 14.8428C23.0688 14.8788 23.0733 14.9324 23.0374 14.948C23.0158 14.9431 23.0101 14.9222 23.0042 14.9018C23.0042 14.9 23.0042 14.8983 23.0042 14.8967C23.0083 14.8898 23.0083 14.8651 23.0042 14.8582C23.0042 14.8462 23.0042 14.8342 23.0042 14.8223C23.0199 14.788 23.0302 14.7463 23.0451 14.7043C23.0505 14.6892 23.0634 14.6721 23.0707 14.6556C23.0764 14.6433 23.0785 14.6293 23.0836 14.6197C23.0952 14.5976 23.1327 14.5727 23.1477 14.5504C23.1568 14.5369 23.1616 14.5156 23.1709 14.5069C23.1796 14.4984 23.1985 14.4939 23.2093 14.4863C23.2211 14.4781 23.2297 14.4628 23.2427 14.453C23.271 14.4317 23.3091 14.4044 23.33 14.4042C23.3505 14.404 23.3645 14.4238 23.3837 14.417C23.4019 14.4107 23.3979 14.3714 23.4197 14.3658C23.4328 14.3623 23.4549 14.3771 23.4735 14.3761C23.4843 14.3754 23.499 14.3553 23.5146 14.3632C23.5325 14.3724 23.5131 14.3898 23.5222 14.4043C23.5593 14.3934 23.6189 14.4051 23.63 14.3684C23.614 14.3495 23.5782 14.3878 23.5684 14.3556C23.5823 14.3246 23.623 14.3318 23.6531 14.3249C23.6729 14.3204 23.6907 14.3105 23.7121 14.3095C23.7232 14.309 23.7363 14.3139 23.7479 14.3121C23.7825 14.3066 23.8107 14.2681 23.8454 14.2659C23.8621 14.2649 23.8762 14.2762 23.8941 14.2787C23.9063 14.2805 23.9199 14.277 23.9326 14.2787C23.9489 14.2809 23.9638 14.29 23.9788 14.2915C24.007 14.2946 24.0553 14.2914 24.0789 14.2864C24.1085 14.2801 24.1336 14.2565 24.166 14.2531C24.1777 14.2518 24.1972 14.2569 24.2121 14.2556C24.2261 14.2544 24.2398 14.2468 24.2558 14.2453C24.2704 14.244 24.2844 14.249 24.302 14.2504C24.3341 14.2532 24.37 14.2441 24.402 14.2453C24.4113 14.2456 24.4183 14.2506 24.4276 14.2504C24.454 14.2501 24.4808 14.2413 24.5071 14.2401C24.5559 14.2381 24.5904 14.2455 24.6353 14.2376C24.6694 14.2316 24.7216 14.2243 24.7429 14.212C24.7668 14.1982 24.8073 14.1443 24.8225 14.1171C24.8325 14.0992 24.8359 14.0776 24.8456 14.0581C24.866 14.0163 24.9094 13.9354 24.9507 13.917C24.9627 13.9117 24.9784 13.9124 24.9918 13.9067C25.018 13.8955 25.0408 13.872 25.0661 13.8554C25.1145 13.8238 25.1752 13.7982 25.2251 13.7657C25.2504 13.7492 25.2792 13.735 25.2995 13.717C25.3114 13.7064 25.3226 13.6726 25.3406 13.6682C25.3643 13.6625 25.3968 13.645 25.4149 13.6477C25.4395 13.6514 25.4593 13.6991 25.4816 13.699C25.5006 13.6989 25.5117 13.6735 25.5278 13.6682C25.567 13.6553 25.59 13.6759 25.6227 13.6913C25.6333 13.6964 25.6506 13.7014 25.6586 13.7067C25.6727 13.7161 25.6767 13.7352 25.6919 13.7477C25.7005 13.7547 25.7183 13.7591 25.7304 13.7682C25.7563 13.7878 25.766 13.8192 25.7894 13.8272C25.8084 13.8338 25.9037 13.8376 25.9356 13.8298C25.954 13.8253 25.9693 13.8081 25.9868 13.8016C26.0178 13.79 26.0516 13.7873 26.0509 13.7554C26.0505 13.7358 26.0287 13.7219 26.015 13.7092C25.9968 13.7062 25.977 13.7078 25.9715 13.6887C25.9628 13.6595 26.0022 13.6483 26.0125 13.6143C26.0166 13.6008 26.0163 13.5792 26.0202 13.5708C26.0314 13.546 26.0677 13.5379 26.0817 13.5118C26.0934 13.4899 26.0894 13.4712 26.1074 13.4579C26.1197 13.4524 26.1421 13.4567 26.1587 13.4553C26.1751 13.4273 26.2364 13.4034 26.2509 13.3707C26.2606 13.349 26.2597 13.3158 26.2688 13.2886C26.2732 13.2759 26.2787 13.266 26.2816 13.2527C26.2853 13.2362 26.2855 13.2193 26.2919 13.2066C26.3171 13.1559 26.3987 13.1285 26.397 13.0655C26.3963 13.0387 26.3713 13.0128 26.3714 12.9886C26.3715 12.9645 26.3907 12.924 26.4047 12.8937C26.4194 12.8622 26.4273 12.8274 26.4406 12.8014C26.4514 12.7805 26.4711 12.7659 26.4792 12.7475C26.4854 12.7335 26.4865 12.7129 26.4919 12.7015C26.4996 12.6851 26.5162 12.668 26.5305 12.6475C26.5439 12.6282 26.5643 12.6073 26.5817 12.6064C26.6018 12.6056 26.6189 12.6249 26.6382 12.627C26.6992 12.6336 26.7432 12.5885 26.7793 12.5603C26.8061 12.5393 26.8288 12.5147 26.8536 12.4936C26.8701 12.4948 26.8731 12.4948 26.8895 12.4936C26.905 12.4777 26.9279 12.4643 26.9511 12.4474C26.972 12.4322 26.9943 12.4026 27.0177 12.3987C27.0465 12.3939 27.0718 12.4097 27.0998 12.3987C27.1463 12.3804 27.1252 12.316 27.0639 12.3243C27.047 12.3266 27.0242 12.3504 27.0074 12.3576C26.9904 12.365 26.969 12.3636 26.9484 12.3704C26.9287 12.377 26.9116 12.3969 26.8894 12.4038C26.8544 12.4147 26.8165 12.4144 26.7945 12.4244C26.775 12.4332 26.7566 12.4657 26.733 12.4474C26.7279 12.4231 26.7522 12.4139 26.7664 12.3987C26.7742 12.3903 26.789 12.3598 26.8074 12.3552C26.8224 12.3513 26.8428 12.3647 26.8613 12.3603C26.8975 12.3514 26.8984 12.2784 26.9356 12.2782C26.959 12.2781 26.9618 12.3087 26.9844 12.309C27.0091 12.3092 27.03 12.2752 27.051 12.2679C27.0702 12.2612 27.1008 12.2602 27.1279 12.2576C27.1533 12.2552 27.1827 12.2583 27.2024 12.2524C27.2199 12.2471 27.2442 12.2207 27.2536 12.2037C27.2661 12.1812 27.2609 12.1634 27.2793 12.1524C27.2952 12.1429 27.3287 12.1366 27.3459 12.1345C27.3767 12.1309 27.4105 12.1337 27.4433 12.132C27.4763 12.1303 27.5079 12.1269 27.5433 12.132C27.5682 12.1447 27.5804 12.1678 27.6049 12.1807C27.622 12.1898 27.6431 12.191 27.6612 12.2012C27.6947 12.22 27.7256 12.2609 27.7587 12.2883C27.7943 12.318 27.8283 12.3453 27.869 12.3627C27.8834 12.3689 27.9153 12.3856 27.933 12.3833C27.9578 12.3799 27.9781 12.3334 28.0074 12.3371C28.0256 12.3394 28.0253 12.3654 28.0433 12.373C28.0526 12.3769 28.0784 12.3805 28.0895 12.3807C28.1142 12.3811 28.1401 12.368 28.1664 12.373C28.189 12.3772 28.198 12.4107 28.2228 12.3935C28.2473 12.3764 28.2095 12.3457 28.2254 12.3268C28.2399 12.3094 28.2575 12.3303 28.2844 12.3319C28.2951 12.3325 28.3073 12.3257 28.3151 12.3268C28.3266 12.3283 28.3458 12.3507 28.3536 12.3447C28.3711 12.3309 28.4156 12.3153 28.4305 12.2857C28.4494 12.2481 28.4367 12.2074 28.4458 12.155C28.4514 12.1228 28.4815 12.1077 28.4791 12.0781C28.4777 12.0598 28.4567 12.0493 28.4458 12.0242C28.435 11.9992 28.4386 11.9668 28.433 11.9421C28.4274 11.9176 28.4104 11.9059 28.4125 11.8805C28.4141 11.8595 28.4331 11.8593 28.4356 11.8344C28.4366 11.8247 28.4296 11.8064 28.4278 11.7909C28.4237 11.7512 28.4217 11.6797 28.4304 11.6395C28.4383 11.6028 28.45 11.5801 28.4688 11.5395C28.483 11.509 28.5004 11.4525 28.5227 11.4549C28.5371 11.4564 28.5523 11.5085 28.5587 11.5293C28.5688 11.5627 28.5853 11.5833 28.5869 11.6088C28.5875 11.6187 28.5808 11.6316 28.5817 11.6447C28.5828 11.6579 28.5949 11.674 28.5972 11.6909C28.6022 11.7267 28.5954 11.7772 28.6306 11.773C28.652 11.7458 28.6146 11.6349 28.6613 11.6319C28.6896 11.6302 28.6981 11.674 28.7048 11.7063C28.711 11.7357 28.7215 11.7803 28.7202 11.8063C28.7187 11.8356 28.6859 11.8741 28.7227 11.8909C28.7489 11.899 28.7709 11.8809 28.792 11.8754C28.822 11.8972 28.8183 11.9373 28.8227 11.9678C28.8278 12.0026 28.834 12.0311 28.8484 12.0653C28.861 12.0953 28.8693 12.1271 28.874 12.1627C28.8785 12.1975 28.8917 12.2314 28.8946 12.2628C28.8969 12.2887 28.8949 12.3124 28.8996 12.3372C28.9039 12.3591 28.9161 12.3823 28.915 12.4064C28.9143 12.4226 28.9025 12.4364 28.8996 12.4525C28.897 12.4678 28.9005 12.4852 28.8971 12.5013C28.8946 12.5137 28.8861 12.5248 28.8843 12.5372C28.8813 12.5566 28.887 12.5774 28.8843 12.5962C28.8818 12.6134 28.8711 12.628 28.8689 12.6449C28.8638 12.6844 28.871 12.7296 28.8637 12.768C28.861 12.7825 28.8539 12.7956 28.8509 12.8115C28.8482 12.8266 28.8513 12.8431 28.8484 12.8577C28.8443 12.878 28.825 12.8951 28.8227 12.9167C28.8186 12.9564 28.8399 13.0009 28.8433 13.0423C28.8456 13.0723 28.8421 13.1032 28.8484 13.1347C28.8542 13.1633 28.8653 13.1911 28.8663 13.2168C28.8669 13.2307 28.862 13.2425 28.8637 13.2552C28.8656 13.2686 28.8814 13.2844 28.8791 13.2988C28.876 13.3179 28.8519 13.3145 28.8457 13.3347C28.8573 13.3571 28.8449 13.3793 28.8457 13.4039C28.8465 13.4279 28.8575 13.4492 28.8535 13.4757C28.8461 13.5224 28.8005 13.5876 28.8253 13.6244C28.8316 13.6337 28.8424 13.6314 28.8586 13.6399C28.8807 13.6512 28.9067 13.6735 28.9382 13.668C28.9374 13.6167 28.9123 13.5675 28.91 13.509C28.947 13.4499 28.97 13.5248 28.9869 13.568C29.001 13.6037 29.032 13.6318 29.0382 13.6758C29.0434 13.7117 29.0303 13.7511 29.0254 13.7937C29.0225 13.8185 29.0271 13.8434 29.0228 13.8578C29.0152 13.883 28.9903 13.8959 28.9844 13.9168C28.9818 13.9257 28.982 13.9406 28.9792 13.9527C28.9739 13.9758 28.9617 13.9964 28.9792 14.0194C28.9759 14.0375 28.9567 14.0396 28.9536 14.0579C28.9627 14.0748 28.9861 14.0881 28.992 14.1142C28.9945 14.1256 28.9901 14.1376 28.992 14.1501C28.9954 14.1711 29.0236 14.1988 28.9972 14.2117C28.9787 14.2064 28.9759 14.1784 28.9613 14.1629C28.9483 14.1491 28.9185 14.1279 28.9048 14.1297C28.8803 14.1327 28.8898 14.1693 28.8586 14.1707C28.8407 14.1652 28.8488 14.1444 28.8407 14.1271C28.8334 14.1114 28.8183 14.1055 28.8151 14.0887C28.8063 14.0421 28.8268 14.0034 28.8254 13.963C28.8079 13.9612 28.7977 13.983 28.7921 13.9938C28.7729 14.0304 28.7755 14.0602 28.7767 14.1117C28.7773 14.1381 28.7687 14.1684 28.7844 14.1912C28.7943 14.2056 28.8159 14.2048 28.8279 14.2169C28.8424 14.2314 28.857 14.2648 28.8536 14.2861C28.8516 14.2978 28.8378 14.3142 28.8279 14.3143C28.8046 14.3147 28.8121 14.2813 28.7868 14.2809C28.7738 14.3026 28.8011 14.36 28.8227 14.363C28.8385 14.3653 28.8477 14.3444 28.8637 14.3451C28.8906 14.3463 28.8902 14.3829 28.9176 14.3785C28.9315 14.3609 28.9147 14.3425 28.9176 14.3246C28.9218 14.2994 28.952 14.2768 28.9716 14.2656C28.9854 14.2767 28.9761 14.3001 28.9741 14.3168C29.0002 14.3357 29.0103 14.3708 29.0152 14.4194C29.0169 14.4367 29.0237 14.4598 29.0075 14.4681C28.9832 14.4723 28.9686 14.4322 28.9407 14.4398C28.9321 14.4743 28.9787 14.4857 28.9972 14.5142C29.0053 14.5268 29.0108 14.5447 29.0176 14.5629C29.0236 14.5787 29.0386 14.5962 29.0382 14.6091C29.0378 14.6232 29.0262 14.6258 29.0203 14.6398C29.015 14.6524 29.0239 14.669 29.0075 14.6732C28.956 14.6435 28.9856 14.5327 28.9331 14.5039C28.8979 14.5103 28.8644 14.4865 28.8407 14.5065C28.8239 14.5207 28.8353 14.5529 28.8176 14.5603C28.794 14.5703 28.794 14.5291 28.7664 14.5398C28.7501 14.567 28.7818 14.5992 28.7946 14.6244C28.8082 14.6513 28.8244 14.6854 28.8561 14.6885C28.8821 14.6749 28.862 14.6244 28.8894 14.6167C28.9042 14.6126 28.9376 14.6322 28.9433 14.6372C28.9733 14.6639 29.0159 14.7573 29.01 14.8244C29.0089 14.8371 29.0011 14.85 28.9997 14.8628C28.9953 14.907 29.0188 14.9589 28.9997 14.9936C29.016 15.0215 28.9975 15.0549 29.0024 15.0936C28.9848 15.1235 28.9472 15.1153 28.9306 15.1604C28.926 15.1726 28.9292 15.1879 28.9255 15.2039C28.9226 15.2158 28.9086 15.2287 28.9024 15.2423C28.8935 15.2618 28.8956 15.2766 28.8819 15.2808C28.8685 15.2849 28.8599 15.2667 28.846 15.268C28.8369 15.2791 28.8231 15.2698 28.8101 15.2757C28.7863 15.2868 28.7881 15.3147 28.7768 15.3423C28.7688 15.3618 28.7444 15.4032 28.7255 15.4013C28.7128 15.4001 28.6905 15.3624 28.6844 15.3501C28.6801 15.3413 28.6592 15.2981 28.6613 15.2834C28.6649 15.2592 28.7139 15.2498 28.7126 15.2167C28.712 15.2024 28.7033 15.1888 28.6843 15.1884C28.6506 15.1879 28.6493 15.2262 28.6202 15.2269C28.5854 15.2279 28.583 15.2079 28.5613 15.1782C28.5699 15.1569 28.5821 15.139 28.5844 15.1114C28.5649 15.095 28.5579 15.1384 28.5331 15.1242C28.5244 15.083 28.5448 15.0516 28.5562 15.014C28.5598 15.0022 28.5583 14.9852 28.5639 14.9755C28.5724 14.961 28.5973 14.9567 28.6101 14.9447C28.625 14.9309 28.6461 14.9032 28.646 14.8806C28.6459 14.849 28.6066 14.8031 28.6435 14.7781C28.7022 14.7955 28.6587 14.8777 28.6794 14.932C28.6871 14.9522 28.7085 14.9591 28.7179 14.9756C28.7368 15.0088 28.7394 15.0627 28.7769 15.0577C28.7957 15.0552 28.7955 15.0288 28.8051 15.0142C28.8183 14.9941 28.8644 14.9788 28.8667 14.9501C28.8678 14.9353 28.8554 14.9247 28.8539 14.909C28.8507 14.8758 28.8672 14.8389 28.8539 14.809C28.8459 14.7951 28.8331 14.8044 28.818 14.7936C28.8055 14.7847 28.802 14.7636 28.7898 14.7552C28.7753 14.7453 28.7574 14.7474 28.7462 14.7346C28.7276 14.7136 28.7246 14.669 28.7155 14.6424C28.7114 14.6305 28.6974 14.6154 28.6975 14.6039C28.6976 14.5828 28.726 14.5737 28.7155 14.55C28.688 14.548 28.677 14.579 28.6642 14.5987C28.6505 14.62 28.6369 14.6425 28.613 14.65C28.5687 14.6291 28.6153 14.5959 28.6155 14.5628C28.6158 14.5264 28.5462 14.4733 28.6027 14.4423C28.6326 14.45 28.6373 14.483 28.6668 14.491C28.6607 14.4548 28.6302 14.4233 28.6206 14.3807C28.6166 14.3628 28.6177 14.3454 28.613 14.3295C28.6039 14.2987 28.5813 14.2774 28.5693 14.2449C28.5647 14.2322 28.5661 14.2171 28.5617 14.2038C28.5513 14.1729 28.5328 14.1358 28.5155 14.1038C28.4978 14.0712 28.4792 14.0344 28.4616 14.0141C28.4521 14.0031 28.4185 13.9746 28.4078 13.9757C28.3925 13.977 28.3875 14.0057 28.3719 14.0064C28.3624 14.0058 28.342 13.9897 28.3283 14.0013C28.3158 14.0118 28.3259 14.0328 28.3233 14.0551C28.3184 14.0943 28.286 14.1199 28.2693 14.15C28.2568 14.1727 28.2418 14.2065 28.2386 14.2321C28.2343 14.2673 28.2489 14.3068 28.2207 14.3116C28.1936 14.3162 28.1839 14.2784 28.1668 14.2756C28.1418 14.2947 28.1298 14.2627 28.1078 14.2628C28.09 14.2629 28.0634 14.2847 28.0617 14.3038C28.0595 14.3297 28.0872 14.3675 28.113 14.3782C28.1437 14.3909 28.1854 14.3855 28.2079 14.4089C28.2047 14.5284 28.2622 14.6295 28.3848 14.6218C28.3969 14.621 28.4125 14.6142 28.4259 14.6167C28.4457 14.6205 28.4623 14.6546 28.4874 14.65C28.4977 14.6835 28.5514 14.682 28.5593 14.7167C28.5658 14.7457 28.5387 14.7786 28.5414 14.8167C28.5422 14.8291 28.5534 14.8453 28.5516 14.8578C28.5482 14.8828 28.5173 14.898 28.5029 14.9168C28.4902 14.9335 28.4943 14.951 28.4773 14.9553C28.4485 14.9503 28.4478 14.93 28.4209 14.9322C28.3974 14.9341 28.3796 14.9584 28.3773 14.9706C28.3738 14.9894 28.3838 15.0161 28.3926 15.0347C28.4089 15.069 28.4578 15.0984 28.4516 15.1271C28.4468 15.1497 28.3749 15.1674 28.3491 15.1706C28.3214 15.1742 28.3002 15.1669 28.2747 15.1681C28.2315 15.1714 28.2359 15.2259 28.2132 15.2527C28.2063 15.2608 28.1888 15.264 28.1798 15.2707C28.1624 15.2837 28.1624 15.2995 28.1439 15.3014C28.0997 15.3062 28.0959 15.2613 28.0465 15.2655C28.0273 15.2563 28.0285 15.2329 28.0029 15.2348C27.9624 15.2378 27.9935 15.296 27.9618 15.3117C27.9448 15.3203 27.9322 15.3103 27.908 15.304C27.8843 15.3238 27.8465 15.3237 27.8465 15.2886C27.8458 15.2681 27.8687 15.2622 27.874 15.2406ZM27.9407 12.4685C27.9531 12.4806 27.9794 12.4634 27.9689 12.4454C27.9595 12.4436 27.9368 12.4487 27.9407 12.4685ZM27.7073 14.2585C27.7178 14.2478 27.7147 14.2129 27.7124 14.1892C27.7107 14.1724 27.7071 14.1525 27.6945 14.1507C27.6823 14.1774 27.6734 14.2501 27.7073 14.2585ZM27.7509 14.1251C27.7667 14.1452 27.7991 14.1363 27.8048 14.1148C27.807 14.1064 27.7986 14.0952 27.7996 14.0815C27.8007 14.0669 27.8139 14.0525 27.8149 14.0405C27.8167 14.02 27.8066 13.9993 27.797 13.9917C27.7817 13.9909 27.7792 14.003 27.7637 14.002C27.7459 13.9771 27.6863 13.9903 27.6841 14.0148C27.6819 14.0409 27.7499 14.0543 27.7559 14.0892C27.7582 14.1018 27.7488 14.1083 27.7509 14.1251ZM27.6483 14.0892C27.6612 14.0528 27.6395 14.0191 27.6355 13.9892C27.6331 13.9714 27.6392 13.9389 27.6124 13.943C27.5906 13.9463 27.5986 13.9799 27.6047 13.9995C27.6176 14.04 27.6286 14.0656 27.6483 14.0892ZM27.8432 13.9764C27.865 14.0274 27.932 13.9663 27.9381 13.943C27.949 13.9014 27.9076 13.8423 27.8945 13.7943C27.8871 13.7672 27.8865 13.7415 27.8637 13.7353C27.8235 13.7596 27.8725 13.8075 27.8662 13.843C27.8631 13.8609 27.8385 13.8714 27.8355 13.8892C27.8335 13.9013 27.8412 13.9715 27.8432 13.9764ZM27.8022 13.9405C27.8147 13.9299 27.8007 13.8723 27.7894 13.8558C27.7816 13.8445 27.7625 13.8368 27.7483 13.8251C27.7338 13.813 27.7225 13.7995 27.7099 13.7892C27.6985 13.7799 27.6235 13.728 27.6149 13.7687C27.6113 13.786 27.6473 13.8216 27.6611 13.8251C27.7081 13.8367 27.7417 13.8579 27.7637 13.8943C27.7765 13.9153 27.7749 13.937 27.8022 13.9405ZM28.0894 13.6198C28.0904 13.6484 28.175 13.6678 28.1638 13.6198C28.1563 13.5878 28.088 13.58 28.0894 13.6198ZM26.1661 13.4814C26.1699 13.4827 26.1726 13.4851 26.1764 13.4865C26.2019 13.4787 26.167 13.4541 26.1661 13.4814ZM28.3125 12.3967C28.3174 12.3973 28.3182 12.3937 28.3228 12.3941C28.3229 12.3863 28.3243 12.3773 28.315 12.3787C28.3077 12.3823 28.3064 12.3923 28.3125 12.3967ZM28.7152 15.0919C28.7137 15.1045 28.7177 15.1116 28.7306 15.1098C28.7385 15.0985 28.728 15.0818 28.7152 15.0919ZM28.9665 14.797C28.97 14.7936 28.97 14.7849 28.9665 14.7815C28.9631 14.7815 28.9597 14.7815 28.9562 14.7815C28.9539 14.7925 28.9605 14.7944 28.9665 14.797ZM28.769 13.8226C28.7745 13.8311 28.7819 13.8442 28.7947 13.8379C28.808 13.8096 28.7978 13.7617 28.8024 13.72C28.8359 13.6963 28.841 13.6567 28.787 13.6533C28.7482 13.701 28.805 13.7732 28.769 13.8226ZM28.5048 13.3635C28.5099 13.378 28.5073 13.3983 28.5228 13.4019C28.5324 13.3899 28.5454 13.3776 28.5459 13.3635C28.5465 13.3449 28.5302 13.3359 28.5203 13.3173C28.5088 13.2956 28.5061 13.2655 28.4869 13.2635C28.4791 13.3032 28.4964 13.3389 28.5048 13.3635ZM28.6896 13.3506C28.6923 13.3669 28.685 13.3838 28.6998 13.3942C28.7563 13.382 28.7218 13.3039 28.7178 13.2583C28.7017 13.2487 28.6889 13.2359 28.6665 13.2327C28.6574 13.2681 28.6828 13.3107 28.6896 13.3506ZM26.0686 14.1199C26.0719 14.1402 26.1185 14.1343 26.1072 14.1096C26.0985 14.0911 26.0656 14.1008 26.0686 14.1199Z" fill="#2D93BA"/>
<path d="M28.3227 12.3942C28.3182 12.3938 28.3172 12.3973 28.3125 12.3967C28.3064 12.3924 28.3077 12.3825 28.315 12.3788C28.3243 12.3773 28.3228 12.3864 28.3227 12.3942Z" fill="#2D93BA"/>
<path d="M28.1716 12.317C28.1548 12.3115 28.1475 12.2968 28.1409 12.2811C28.1445 12.2762 28.1488 12.272 28.1537 12.2683C28.178 12.2694 28.1959 12.304 28.1716 12.317Z" fill="#2D93BA"/>
<path d="M27.9114 24.577C28.5764 24.577 29.1155 24.0372 29.1155 23.3713C29.1155 22.7054 28.5764 22.1655 27.9114 22.1655C27.2464 22.1655 26.7073 22.7054 26.7073 23.3713C26.7073 24.0372 27.2464 24.577 27.9114 24.577Z" fill="#E56353"/>
<path d="M27.9114 23.0045C28.5764 23.0045 29.1155 22.4647 29.1155 21.7988C29.1155 21.1328 28.5764 20.593 27.9114 20.593C27.2464 20.593 26.7073 21.1328 26.7073 21.7988C26.7073 22.4647 27.2464 23.0045 27.9114 23.0045Z" fill="#FCD462"/>
<path d="M25.0101 11.8518H24.531V15.7716H25.0101V11.8518Z" fill="white"/>
<path d="M21.8536 11.8489H21.3745V13.8431H21.8536V11.8489Z" fill="white"/>
<path d="M21.8597 15.447H21.3806V17.4412H21.8597V15.447Z" fill="white"/>
<path d="M21.8536 18.8843H21.3745V20.8785H21.8536V18.8843Z" fill="white"/>
<path d="M21.8495 22.4812H21.3704V24.4754H21.8495V22.4812Z" fill="white"/>
<path d="M23.288 11.8489H22.8088V17.739H23.288V11.8489Z" fill="white"/>
<path d="M28.7525 13.875V11.8919C28.7525 11.7827 28.6642 11.6943 28.5552 11.6943H26.5749C26.466 11.6943 26.3777 11.7827 26.3777 11.8919V13.875C26.3777 13.9841 26.466 14.0726 26.5749 14.0726H28.5552C28.6642 14.0725 28.7525 13.9841 28.7525 13.875Z" fill="#FCD462"/>
<path d="M27.9752 14.0726H28.1816V13.5002H28.7541V13.2938H28.1816V12.4735H28.7541V12.2671H28.1816V11.6946H27.9752V12.2671H27.1549V11.6946H26.9485V12.2671H26.376V12.4735H26.9485V13.2938H26.376V13.5002H26.9485V14.0726H27.1549V13.5002H27.9752V14.0726ZM27.1548 13.2938V12.4735H27.9751V13.2938H27.1548Z" fill="#DC8744"/>
<path d="M14.29 16.9653V38.4243C14.29 38.9207 14.6924 39.3231 15.1888 39.3231H34.8114C35.3076 39.3231 35.7098 38.9208 35.7098 38.4246V16.9653H14.29Z" fill="#FCD462"/>
<path d="M14.29 34.2056V38.4241C14.29 38.9205 14.6924 39.323 15.1888 39.323H34.8114C35.3076 39.323 35.7098 38.9206 35.7098 38.4244V34.2057H14.29V34.2056Z" fill="#F6C358"/>
<path d="M18.7143 20.2203C19.2269 20.2203 19.6424 19.8048 19.6424 19.2922C19.6424 18.7796 19.2269 18.364 18.7143 18.364C18.2017 18.364 17.7861 18.7796 17.7861 19.2922C17.7861 19.8048 18.2017 20.2203 18.7143 20.2203Z" fill="#DC8744"/>
<path d="M31.2865 20.2203C31.7991 20.2203 32.2147 19.8048 32.2147 19.2922C32.2147 18.7796 31.7991 18.364 31.2865 18.364C30.7739 18.364 30.3584 18.7796 30.3584 19.2922C30.3584 19.8048 30.7739 20.2203 31.2865 20.2203Z" fill="#DC8744"/>
<path d="M24.9998 30.3278C21.2466 30.3278 18.1934 27.008 18.1934 22.9278V19.2911C18.1934 19.0032 18.4263 18.7703 18.7142 18.7703C19.0021 18.7703 19.235 19.0032 19.235 19.2911V22.9278C19.235 26.4337 21.8209 29.2861 24.9998 29.2861C28.1787 29.2861 30.7651 26.4337 30.7651 22.9278V19.2911C30.7651 19.0032 30.998 18.7703 31.2859 18.7703C31.5738 18.7703 31.8067 19.0032 31.8067 19.2911V22.9278C31.8067 27.008 28.753 30.3278 24.9998 30.3278Z" fill="#F6C358"/>
<path d="M24.9998 29.4214C21.2466 29.4214 18.1934 26.3676 18.1934 22.6145V19.2911C18.1934 19.0032 18.4263 18.7703 18.7142 18.7703C19.0021 18.7703 19.235 19.0032 19.235 19.2911V22.6145C19.235 25.7934 21.8209 28.3797 24.9998 28.3797C28.1787 28.3797 30.7651 25.7934 30.7651 22.6145V19.2911C30.7651 19.0032 30.998 18.7703 31.2859 18.7703C31.5738 18.7703 31.8067 19.0032 31.8067 19.2911V22.6145C31.8067 26.3676 28.753 29.4214 24.9998 29.4214Z" fill="white"/>
</g>
<defs>
<clipPath id="clip0_155_3398">
<rect width="50" height="50" fill="white"/>
</clipPath>
</defs>
</svg>
