<svg xmlns="http://www.w3.org/2000/svg" width="2475.72" height="464.871" viewBox="0 0 2475.72 464.871"><defs><style>.a{fill:#b9e3f4;opacity:0.18;}.b{fill:#d9f4ff;opacity:0.34;}</style></defs><g transform="translate(243.665 -3587.645)"><path class="a" d="M-10952,2949.645c4.518,42.609,27.759,113.751,270.183,91.022s409.7-90.917,710.3-33.22,516.363,99.659,829.091,33.22,446.205-128.49,471.757-167.951,13.867-72.314-54.4-80.007-232.533,66.256-304.533,11.924-217.6-121.26-448-42.792c-197.682,67.325-236.772,1.584-325.2-23.175-14.542-4.072-32.8-10.385-69.6-14.328-128.4-8.655-150.8,17.886-248.4,55.966s-510.4-124.338-718.4-98.951-242.618,87.333-220.8,147.705S-10956.518,2907.037-10952,2949.645Z" transform="translate(10822 909)"/><path class="b" d="M-7109.7,3778.182s206.061-179.394,630.3-55.758,569.7,94.546,683.636,55.758,227.878-133.333,429.091-55.758,315.151,94.545,431.515,82.424,261.817-31.515,244.848,77.576-261.818,155.151-353.939,140.606-160-80-269.091-87.272-184.242,4.849-336.97,60.606-191.515,46.061-315.151,0-332.121-38.788-513.939,26.667-303.031,87.273-370.91,19.394-109.09-84.848-230.3-106.667-29.091-172.121-29.091-172.121" transform="translate(6921 -31.386)"/></g></svg>