<svg xmlns="http://www.w3.org/2000/svg" width="2308.504" height="1096.037" viewBox="0 0 2308.504 1096.037"><defs><style>.a{fill:rgba(185,227,244,0.33);}</style></defs><path class="a" d="M-6921,5325c116.2-68.2,215.4-151.4,628.2-36.2,180.806,50.458,317.071,93.422,421.56,123.578,134.463,38.806,236.115,14.387,293.664,0C-5475.176,5386.778-5150.4,5228-5022.4,5308s262.4,179.2,224,390.4S-4923.2,6140-5144,6184.8s-470.182-107.515-779.636,0-686.061,223.079-967.878,66.109c-75.019-62.533-138.6-58.063-193.12-232.922-12.334-39.555-18.118-86.753-14.565-143.587C-7080,5567.2-7037.2,5393.2-6921,5325Z" transform="translate(7100.234 -5231.565)"/></svg>