<svg xmlns="http://www.w3.org/2000/svg" xmlns:xlink="http://www.w3.org/1999/xlink" width="34" height="34" viewBox="0 0 34 34">
  <defs>
    <clipPath id="clip-path">
      <rect id="Rectangle_520" data-name="Rectangle 520" width="7.035" height="13.609" fill="#fff"/>
    </clipPath>
  </defs>
  <g id="Group_6546" data-name="Group 6546" transform="translate(-771 -8211)">
    <rect id="Rectangle_516" data-name="Rectangle 516" width="34" height="34" rx="7" transform="translate(771 8211)" fill="#555"/>
    <g id="Group_943" data-name="Group 943" transform="translate(784 8221)">
      <g id="Group_942" data-name="Group 942" clip-path="url(#clip-path)">
        <path id="Path_595" data-name="Path 595" d="M4.582,13.608h-2.5V7.4H0V4.99H2.076c0-.31-.007-.591,0-.871A12.816,12.816,0,0,1,2.16,2.371,2.721,2.721,0,0,1,4.869.013C5.582-.028,6.3.037,7.035.054v2.2c-.261,0-.514,0-.768,0s-.514.006-.77.022a.855.855,0,0,0-.9.884c-.027.592-.006,1.186-.006,1.814H6.971L6.658,7.4H4.582Z" transform="translate(0 0)" fill="#fff"/>
      </g>
    </g>
  </g>
</svg>