<svg xmlns="http://www.w3.org/2000/svg" xmlns:xlink="http://www.w3.org/1999/xlink" width="34" height="34" viewBox="0 0 34 34">
  <defs>
    <clipPath id="clip-path">
      <rect id="Rectangle_519" data-name="Rectangle 519" width="13.611" height="13.609" fill="#fff"/>
    </clipPath>
  </defs>
  <g id="Group_6545" data-name="Group 6545" transform="translate(-723 -8211)">
    <rect id="Rectangle_515" data-name="Rectangle 515" width="34" height="34" rx="7" transform="translate(723 8211)" fill="#555"/>
    <g id="Group_941" data-name="Group 941" transform="translate(733 8221)">
      <g id="Group_940" data-name="Group 940" clip-path="url(#clip-path)">
        <path id="Path_592" data-name="Path 592" d="M6.806,13.606c-1.036,0-2.072.008-3.108,0A3.665,3.665,0,0,1,.092,10.694a3.52,3.52,0,0,1-.084-.763C0,7.851-.006,5.771.007,3.69A3.654,3.654,0,0,1,2.922.089,4.079,4.079,0,0,1,3.791.006Q6.805,0,9.82,0A3.682,3.682,0,0,1,13.607,3.8c0,2.027.007,4.055,0,6.082a3.658,3.658,0,0,1-2.9,3.636,4.262,4.262,0,0,1-.895.088c-1,.01-2,0-3,0m3.718-6.794A3.718,3.718,0,1,0,6.8,10.522a3.731,3.731,0,0,0,3.726-3.71M11.7,2.859a1.1,1.1,0,0,0-1.094-1.1,1.11,1.11,0,0,0-1.093,1.1,1.1,1.1,0,0,0,1.1,1.09,1.085,1.085,0,0,0,1.088-1.1" transform="translate(0 0)" fill="#fff"/>
        <path id="Path_593" data-name="Path 593" d="M160.77,157.771a2.922,2.922,0,1,1-2.927-2.916,2.931,2.931,0,0,1,2.927,2.916" transform="translate(-151.043 -150.973)" fill="#fff"/>
        <path id="Path_594" data-name="Path 594" d="M412.024,103.032c-.274-.017-.39-.114-.39-.3a.272.272,0,0,1,.283-.29c.181,0,.322.106.292.294-.019.119-.135.222-.185.3" transform="translate(-401.314 -99.871)" fill="#fff"/>
      </g>
    </g>
  </g>
</svg>