<svg xmlns="http://www.w3.org/2000/svg" xmlns:xlink="http://www.w3.org/1999/xlink" width="34" height="34" viewBox="0 0 34 34">
  <defs>
    <clipPath id="clip-path">
      <rect id="Rectangle_813" data-name="Rectangle 813" width="13.445" height="13.429" fill="#fff"/>
    </clipPath>
  </defs>
  <g id="Group_6549" data-name="Group 6549" transform="translate(-858 -8148.679)">
    <rect id="Rectangle_517" data-name="Rectangle 517" width="34" height="34" rx="7" transform="translate(858 8148.679)" fill="#555"/>
    <g id="Group_1353" data-name="Group 1353" transform="translate(868 8158.763)">
      <g id="Group_1352" data-name="Group 1352" clip-path="url(#clip-path)">
        <path id="Path_1087" data-name="Path 1087" d="M56.2,56.433h-2.77V47.5h2.639V48.63c.065-.036.1-.044.112-.064a3.5,3.5,0,0,1,4.53-.855A2.955,2.955,0,0,1,62,50.037a13.626,13.626,0,0,1,.092,1.636c.012,1.455,0,2.911,0,4.366v.371H59.309c0-.12,0-.235,0-.351,0-1.422.007-2.845-.007-4.267a5.125,5.125,0,0,0-.119-1.072A1.167,1.167,0,0,0,58.026,49.7a1.42,1.42,0,0,0-1.579.8,2.714,2.714,0,0,0-.216.951c-.029,1.52-.024,3.041-.031,4.562,0,.129,0,.259,0,.421" transform="translate(-48.652 -43.003)" fill="#fff"/>
        <rect id="Rectangle_812" data-name="Rectangle 812" width="2.747" height="8.937" transform="translate(0.232 4.488)" fill="#fff"/>
        <path id="Path_1088" data-name="Path 1088" d="M0,1.6A1.592,1.592,0,0,1,1.606,0a1.616,1.616,0,0,1,1.62,1.628A1.641,1.641,0,0,1,1.61,3.238,1.621,1.621,0,0,1,0,1.6" transform="translate(0 0)" fill="#fff"/>
      </g>
    </g>
  </g>
</svg>