<svg xmlns="http://www.w3.org/2000/svg" xmlns:xlink="http://www.w3.org/1999/xlink" width="34" height="34" viewBox="0 0 34 34">
  <defs>
    <clipPath id="clip-path">
      <rect id="Rectangle_518" data-name="Rectangle 518" width="13.611" height="10.336" fill="#fff"/>
    </clipPath>
  </defs>
  <g id="Group_6544" data-name="Group 6544" transform="translate(-675 -8211)">
    <rect id="Rectangle_514" data-name="Rectangle 514" width="34" height="34" rx="7" transform="translate(675 8211)" fill="#555"/>
    <g id="Group_939" data-name="Group 939" transform="translate(685 8223)">
      <g id="Group_938" data-name="Group 938" clip-path="url(#clip-path)">
        <path id="Path_590" data-name="Path 590" d="M6.755,0c1.495.059,2.964.116,4.434.176a2.194,2.194,0,0,1,2.292,2.26,28.866,28.866,0,0,1,0,5.494,3.553,3.553,0,0,1-.335,1.165,1.927,1.927,0,0,1-1.734,1.09,67.283,67.283,0,0,1-7.6.082c-.6-.027-1.2-.059-1.8-.129A1.922,1.922,0,0,1,.2,8.5a10.945,10.945,0,0,1-.2-2C-.007,5.168.027,3.838.093,2.512A3.317,3.317,0,0,1,.418,1.319,1.946,1.946,0,0,1,2.21.19C3.732.113,5.255.061,6.755,0m-1.7,5.057c0,.514-.008,1.028,0,1.541a.559.559,0,0,0,.891.522C6.9,6.618,7.836,6.107,8.781,5.6a.574.574,0,0,0,0-1.084C7.843,4.013,6.914,3.5,5.98,2.993c-.52-.282-.916-.046-.923.549-.006.5,0,1.01,0,1.515" transform="translate(0)" fill="#fff"/>
        <path id="Path_591" data-name="Path 591" d="M233.986,155.559v-2.424l2.236,1.22-2.236,1.2" transform="translate(-228.12 -149.296)" fill="#fff"/>
      </g>
    </g>
  </g>
</svg>