<svg width="136" height="31" viewBox="0 0 136 31" fill="none" xmlns="http://www.w3.org/2000/svg">
<g id="Vector">
<path d="M11.1207 0.0362356L1.91633 0.0516919C1.29381 0.0522771 0.710275 0.35914 0.351216 0.874737C-0.00784296 1.39033 -0.0977727 2.05054 0.110009 2.6455L5.0793 11.3336C5.62737 12.027 6.45632 12.4307 7.33276 12.4309H11.5297C12.2294 12.4296 12.8766 12.8067 13.2277 13.4203C13.5788 14.0339 13.5804 14.7908 13.2319 15.4059L11.1309 19.0815C10.6934 19.8517 10.627 20.7823 10.9505 21.6084L15.9299 30.3197C16.3356 30.8003 16.9464 31.0508 17.5675 30.9914C18.1887 30.9319 18.7425 30.5699 19.0523 30.0209L23.6252 21.9304L11.1207 0.0362356Z" fill="#ED1A3B"/>
<path d="M29.8646 10.9524L23.6124 0.0156123L11.1207 0.0362356L23.6352 21.9303L29.8646 10.9524Z" fill="#F79F1F"/>
<path d="M32.7561 4.53929e-05L23.6254 0.0155017L29.8776 10.9522L34.4354 2.91583C34.7773 2.31114 34.7744 1.56728 34.4277 0.965369C34.0811 0.36346 33.4435 -0.00470353 32.7561 4.53929e-05Z" fill="#FFC312"/>
<path d="M57.8669 4.58499C57.8633 4.73003 57.8258 4.87213 57.7577 4.9997L48.6727 23.5891C48.6026 23.8398 48.3832 24.0178 48.1264 24.0321C47.9258 24.0321 47.7454 23.8853 47.5803 23.5891L38.5512 4.9997C38.483 4.87213 38.4456 4.73003 38.4419 4.58499C38.4419 4.21666 38.6782 4.0312 39.1507 4.0312H42.1232C42.5449 3.9989 42.9401 4.24224 43.1064 4.63651L48.1264 15.1972L53.1745 4.63651C53.3385 4.23966 53.7346 3.99375 54.1578 4.02605L57.1606 4.02605C57.6306 4.0312 57.8669 4.21666 57.8669 4.58499Z" fill="#ED1A3B"/>
<path d="M64.4443 29.9253H61.6497C61.177 29.9253 60.9408 29.7295 60.9408 29.3432C60.9456 29.2106 60.9731 29.0798 61.0221 28.9568L63.207 23.6713L57.2138 10.0454C57.1617 9.91348 57.1342 9.77287 57.1325 9.63073C57.1265 9.47595 57.1923 9.32721 57.3104 9.2289C57.4564 9.11827 57.6366 9.06434 57.8185 9.07694H60.8214C61.2289 9.05667 61.6006 9.31176 61.7335 9.70284L65.2902 18.749L68.537 9.73376C68.6562 9.30805 69.0576 9.0288 69.4922 9.06918H72.4648C72.6604 9.05576 72.8544 9.11428 73.0109 9.23405C73.1377 9.34459 73.2078 9.50768 73.2015 9.67707C73.1957 9.80123 73.1682 9.92333 73.1201 10.0377L65.3715 29.2916C65.2399 29.6916 64.8593 29.9516 64.4443 29.9253Z" fill="#ED1A3B"/>
<path fill-rule="evenodd" clip-rule="evenodd" d="M85.5079 24.0038C85.3553 23.8405 85.2763 23.6204 85.2894 23.3959V22.7056C84.927 23.2018 84.3172 23.6312 83.4602 23.9935C82.5973 24.3642 81.6689 24.5526 80.7316 24.5473C79.3275 24.5821 77.9408 24.2257 76.7226 23.5169C75.5866 22.8379 74.675 21.832 74.1034 20.6269C73.4911 19.3824 73.1818 18.0071 73.2015 16.6164C73.1802 15.215 73.494 13.8293 74.116 12.5776C74.7069 11.4015 75.6096 10.4158 76.7226 9.73141C77.9356 9.00773 79.3248 8.64364 80.7316 8.68047C81.658 8.66251 82.5781 8.83785 83.4348 9.19564C84.1593 9.48879 84.7977 9.96494 85.2894 10.5788V9.83184C85.2763 9.60921 85.3588 9.3917 85.5156 9.23522C85.6724 9.07875 85.888 8.99858 86.1075 9.01535H88.5082C88.7299 8.99815 88.948 9.07999 89.1053 9.2394C89.2625 9.39884 89.3433 9.61994 89.3264 9.84474V23.3959C89.3433 23.6207 89.2625 23.8418 89.1053 24.0012C88.948 24.1606 88.7299 24.2425 88.5082 24.2253H86.1075C85.886 24.2386 85.6689 24.1584 85.5079 24.0038ZM84.3214 13.492C83.5344 12.6876 82.4503 12.2557 81.3337 12.302C80.0787 12.302 79.0777 12.7013 78.3307 13.492C77.5839 14.2828 77.213 15.3286 77.213 16.619C77.1681 17.7639 77.5813 18.8785 78.3587 19.71C79.1379 20.52 80.2185 20.9579 81.3337 20.9154C82.6074 20.9154 83.6117 20.5325 84.3468 19.7666C85.0819 19.0008 85.4502 17.9541 85.452 16.6268C85.452 15.3303 85.0751 14.2854 84.3214 13.492Z" fill="#ED1A3B"/>
<path fill-rule="evenodd" clip-rule="evenodd" d="M94.9662 9.23166C95.1173 9.39688 95.1962 9.61707 95.1847 9.84212V10.5324C95.5488 10.0362 96.1586 9.60686 97.0138 9.24453C97.8752 8.87051 98.8028 8.67855 99.7399 8.68044C101.136 8.64864 102.513 9.00496 103.723 9.71075C104.859 10.3901 105.778 11.3861 106.371 12.5802C106.98 13.836 107.289 15.2196 107.273 16.619C107.293 18.0189 106.984 19.4035 106.371 20.6578C105.789 21.8362 104.891 22.8238 103.779 23.5066C102.553 24.2241 101.156 24.5875 99.7399 24.5575C98.8144 24.5752 97.8951 24.3999 97.0393 24.0424C96.3148 23.7492 95.6763 23.2731 95.1847 22.6592V28.3027C95.2017 28.5275 95.1208 28.7486 94.9637 28.908C94.8064 29.0675 94.5884 29.1493 94.3666 29.1321H91.9659C91.7437 29.1501 91.5247 29.0686 91.367 28.9091C91.2091 28.7496 91.1281 28.528 91.1452 28.3027V9.84211C91.129 9.61726 91.2105 9.3964 91.368 9.23748C91.5258 9.07856 91.7441 8.99738 91.9658 9.01527H94.3666C94.5871 9.0015 94.8039 9.07967 94.9662 9.23166ZM96.1527 19.7433C96.9063 20.5367 97.9022 20.9334 99.1403 20.9334C100.378 20.9334 101.379 20.5367 102.143 19.7433C102.888 18.9517 103.261 17.9102 103.261 16.6189C103.305 15.4743 102.892 14.3601 102.115 13.528C101.335 12.7197 100.255 12.2829 99.1403 12.3251C97.8683 12.3251 96.8631 12.708 96.1247 13.4739C95.3863 14.2398 95.0162 15.2881 95.0145 16.6189C95.0145 17.9034 95.3938 18.9448 96.1527 19.7433Z" fill="#ED1A3B"/>
<path fill-rule="evenodd" clip-rule="evenodd" d="M121.164 24.0038C121.011 23.8405 120.932 23.6205 120.945 23.3959V22.7056C120.581 23.2019 119.971 23.6312 119.116 23.9935C118.253 24.3642 117.325 24.5526 116.388 24.5473C114.984 24.5821 113.597 24.2258 112.379 23.517C111.239 22.8402 110.324 21.8351 109.749 20.6296C109.137 19.385 108.828 18.0097 108.847 16.6191C108.826 15.2177 109.14 13.8319 109.762 12.5802C110.352 11.4032 111.255 10.4165 112.369 9.73144C113.581 9.00753 114.97 8.64342 116.378 8.68051C117.304 8.66284 118.224 8.83816 119.081 9.19567C119.805 9.48884 120.444 9.96499 120.935 10.5789V9.83191C120.922 9.60731 121.006 9.38795 121.165 9.23108C121.324 9.07424 121.542 8.99547 121.763 9.01537H124.164C124.387 8.9951 124.608 9.0752 124.767 9.23441C124.927 9.39362 125.009 9.61588 124.992 9.8422V23.3959C125.009 23.6207 124.929 23.8418 124.771 24.0013C124.614 24.1607 124.396 24.2425 124.174 24.2253H121.774C121.549 24.2416 121.327 24.1612 121.164 24.0038ZM119.977 13.4921C119.191 12.6877 118.106 12.2558 116.99 12.3021C115.735 12.3021 114.734 12.7014 113.987 13.4921C113.24 14.2829 112.869 15.3287 112.869 16.6191C112.824 17.764 113.237 18.8786 114.015 19.7101C114.794 20.5201 115.875 20.958 116.99 20.9155C118.262 20.9155 119.266 20.5326 120.003 19.7667C120.74 19.0009 121.108 17.9543 121.108 16.6269C121.108 15.3304 120.731 14.2855 119.977 13.4921Z" fill="#ED1A3B"/>
<path d="M135.78 8.95601C135.934 9.12946 136.013 9.35893 135.998 9.59222V11.9439C135.998 12.441 135.724 12.7167 135.178 12.7733C134.576 12.8147 133.986 12.9601 133.432 13.2035C132.831 13.4664 132.292 13.8573 131.852 14.3497C131.195 15.0692 130.867 16.1244 130.869 17.5153V23.3958C130.886 23.6211 130.805 23.8427 130.647 24.0022C130.489 24.1617 130.271 24.2432 130.048 24.2252H127.622C127.4 24.2432 127.181 24.1617 127.023 24.0022C126.866 23.8427 126.784 23.6211 126.802 23.3958V9.84208C126.785 9.61721 126.867 9.39639 127.024 9.23744C127.182 9.07851 127.401 8.99736 127.622 9.01525H130.048C130.271 8.99726 130.489 9.07875 130.647 9.23827C130.805 9.39779 130.886 9.61937 130.869 9.84464V11.0347C131.377 10.3487 132.041 9.79805 132.805 9.42995C133.55 9.06301 134.353 8.83529 135.178 8.75768C135.398 8.7289 135.619 8.80172 135.78 8.95601Z" fill="#ED1A3B"/>
</g>
</svg>
