<svg width="948" height="644" viewBox="0 0 948 644" fill="none" xmlns="http://www.w3.org/2000/svg">
<path d="M361.139 53.8157C352.148 33.5443 326.834 21.136 306.396 29.4635C285.959 37.791 277.034 67.8166 291.699 84.4053C231.548 63.3377 160.913 61.9774 107.862 97.3777C54.8117 132.811 29.1987 211.508 64.6322 264.791C49.6692 259.018 30.7912 270.265 28.6015 286.224C26.4118 302.215 41.5075 318.174 57.4659 316.747C36.9954 326.501 21.0702 344.483 10.9843 364.921C-0.793726 388.842 -4.67549 418.204 7.23522 442.058C19.1127 465.913 49.636 480.776 73.756 469.662C60.3855 484.559 56.4042 507.318 63.9023 525.898C71.4004 544.51 90.013 558.013 109.886 559.341C125.612 560.369 146.78 557.416 152.088 572.346C141.571 583.892 149.732 603.964 162.439 612.988C175.179 622.013 195.318 617.169 202.617 603.301C200.56 621.283 215.789 638.004 233.273 642.185C250.758 646.365 269.271 640.459 284.765 631.302C309.25 616.804 328.725 593.845 339.076 567.204C342.593 577.555 354.039 584.489 364.755 582.764C375.472 581.072 384.231 570.886 384.43 559.971C392.392 580.873 415.384 593.248 437.613 593.779C459.842 594.31 481.241 584.953 500.053 573.043C527.358 555.757 551.08 532.732 569.195 505.858C572.446 529.215 580.342 553.568 598.922 567.933C617.501 582.266 648.92 581.005 660.4 560.469C660.101 574.635 676.822 584.224 690.691 581.735C704.559 579.247 715.507 568.796 725.129 558.445C718.526 574.834 729.243 594.409 744.903 602.438C760.562 610.467 779.308 609.339 796.427 605.391C833.121 596.931 867.626 575.299 887.234 542.951C906.842 510.603 909.529 467.24 889.921 434.859C902.628 429.783 908.7 410.905 905.448 397.567C902.197 384.23 888.329 374.376 874.759 375.77C899.41 351.915 924.691 327.231 938.294 295.646C951.93 264.094 951.1 223.585 927.18 199C907.008 178.298 875.423 173.354 846.791 176.539C860.924 171.231 868.323 152.618 861.72 138.982C855.118 125.346 836.008 119.673 823.135 127.602C827.713 85.467 804.39 41.6396 767.032 22.0981C729.641 2.58976 680.638 8.62805 649.053 36.663C640.228 19.5103 615.909 6.27246 596.832 4.18228C577.755 2.12528 558.512 7.76544 541.591 16.8561C529.15 23.5247 517.106 32.8144 511.997 46.0522C491.294 22.8612 464.553 2.49023 433.698 0.167806C402.81 -2.15462 368.969 19.8752 367.476 50.9957C368.571 52.9863 360.044 51.7919 361.139 53.7826V53.8157Z" fill="#FFEDF0"/>
<path d="M408.782 156.568C410.175 158.127 275.11 156.568 275.11 156.568C275.11 156.568 293.822 141.738 302.813 148.837C302.813 148.837 296.974 47.2482 351.883 140.709C351.883 140.709 354.338 92.7012 381.411 148.837C381.411 148.837 382.539 127.305 408.782 156.568Z" fill="white"/>
<path d="M782.725 499.985C783.82 501.212 677.121 499.985 677.121 499.985C677.121 499.985 691.918 488.273 699.018 493.88C699.018 493.88 694.407 413.624 737.803 487.444C737.803 487.444 739.76 449.522 761.126 493.88C761.126 493.88 762.022 476.86 782.725 499.985Z" fill="white"/>
<path d="M101.89 474.739L197.972 478.62C197.972 478.62 185.63 465.648 179.658 471.653C179.658 471.653 135.366 394.914 115.593 467.34C115.593 467.34 100.232 445.742 101.89 474.772V474.739Z" fill="white"/>
<path d="M335.393 514.619C335.393 512.296 333.734 510.272 331.445 509.808L326.004 508.746C324.412 508.414 323.051 507.32 322.421 505.827L321.127 502.708C320.497 501.182 320.663 499.456 321.558 498.096L324.611 493.485C325.905 491.527 325.639 488.939 323.98 487.314L314.425 477.825C312.766 476.166 310.178 475.934 308.221 477.228L303.609 480.313C302.249 481.209 300.524 481.408 298.998 480.778L295.846 479.484C294.32 478.853 293.225 477.526 292.893 475.934L291.798 470.493C291.334 468.203 289.31 466.544 286.987 466.578H273.517C271.195 466.611 269.171 468.27 268.707 470.559L267.645 476C267.313 477.593 266.218 478.953 264.725 479.583L261.607 480.877C260.081 481.507 258.355 481.342 256.995 480.446L252.383 477.394C250.426 476.1 247.838 476.365 246.212 478.024L236.724 487.579C235.065 489.238 234.833 491.826 236.126 493.783L239.212 498.395C240.108 499.755 240.307 501.48 239.676 503.007L238.382 506.158C237.752 507.685 236.425 508.779 234.832 509.111L229.391 510.206C227.102 510.671 225.443 512.694 225.476 515.017V528.487C225.51 530.809 227.169 532.833 229.458 533.297L234.899 534.359C236.491 534.691 237.852 535.786 238.482 537.279L239.776 540.397C240.406 541.924 240.24 543.649 239.345 545.009L236.292 549.621C234.998 551.578 235.264 554.166 236.923 555.825L246.478 565.314C248.137 566.973 250.724 567.205 252.682 565.911L257.294 562.825C258.654 561.93 260.379 561.731 261.905 562.361L265.057 563.655C266.583 564.285 267.678 565.612 268.01 567.205L269.105 572.646C269.569 574.935 271.593 576.594 273.916 576.561H287.386C289.708 576.528 291.732 574.869 292.196 572.58L293.258 567.138C293.59 565.546 294.685 564.186 296.178 563.555L299.296 562.261C300.822 561.631 302.548 561.797 303.908 562.693L308.52 565.745C310.477 567.039 313.065 566.774 314.724 565.115L324.213 555.56C325.871 553.901 326.104 551.313 324.81 549.355L321.724 544.744C320.828 543.383 320.629 541.658 321.26 540.132L322.554 536.98C323.184 535.454 324.511 534.359 326.104 534.027L331.545 532.933C333.834 532.468 335.493 530.444 335.46 528.122V514.652L335.393 514.619ZM280.551 552.54C263.398 552.574 249.464 538.705 249.397 521.553C249.364 504.4 263.232 490.465 280.385 490.399C297.538 490.366 311.472 504.234 311.539 521.387C311.572 538.54 297.704 552.474 280.551 552.54Z" fill="#F08DA6"/>
<path d="M701.208 126.475C701.208 123.588 699.151 121.133 696.331 120.569L689.662 119.242C687.705 118.844 686.046 117.517 685.25 115.659L683.657 111.81C682.894 109.952 683.093 107.829 684.188 106.17L687.937 100.497C689.529 98.108 689.198 94.923 687.174 92.8992L675.429 81.2207C673.405 79.1969 670.22 78.8983 667.831 80.4908L662.158 84.273C660.499 85.4011 658.376 85.6001 656.518 84.837L652.669 83.2445C650.811 82.4815 649.451 80.8226 649.053 78.8651L647.693 72.1964C647.129 69.3764 644.64 67.3525 641.754 67.3525H625.198C622.312 67.4189 619.857 69.4427 619.293 72.2628L617.966 78.9315C617.568 80.8889 616.24 82.5478 614.383 83.3441L610.534 84.9366C608.676 85.6997 606.553 85.5006 604.894 84.4057L599.22 80.6567C596.832 79.0642 593.647 79.396 591.623 81.4198L579.944 93.1646C577.92 95.1884 577.622 98.3735 579.214 100.762L582.997 106.436C584.125 108.094 584.324 110.218 583.561 112.076L581.968 115.924C581.205 117.782 579.546 119.143 577.589 119.541L570.92 120.901C568.1 121.465 566.076 123.953 566.076 126.84V143.395C566.143 146.282 568.166 148.737 570.986 149.301L577.655 150.628C579.613 151.026 581.271 152.353 582.068 154.211L583.66 158.06C584.423 159.918 584.224 162.041 583.129 163.7L579.38 169.373C577.788 171.762 578.12 174.947 580.143 176.971L591.888 188.649C593.912 190.673 597.097 190.972 599.486 189.379L605.159 185.597C606.818 184.469 608.941 184.27 610.799 185.033L614.648 186.625C616.506 187.389 617.866 189.047 618.264 191.005L619.625 197.674C620.189 200.494 622.677 202.517 625.563 202.517H642.119C645.005 202.451 647.46 200.427 648.024 197.607L649.352 190.939C649.75 188.948 651.077 187.322 652.935 186.526L656.783 184.933C658.641 184.17 660.765 184.369 662.423 185.464L668.097 189.213C670.486 190.806 673.671 190.474 675.694 188.45L687.373 176.705C689.397 174.682 689.695 171.497 688.103 169.108L684.321 163.434C683.193 161.776 682.994 159.652 683.757 157.794L685.349 153.946C686.112 152.088 687.771 150.727 689.729 150.329L696.397 148.969C699.217 148.405 701.241 145.917 701.241 143.03V126.475H701.208ZM633.758 173.089C612.657 173.155 595.538 156.102 595.471 135.001C595.405 113.9 612.458 96.7809 633.559 96.7146C654.66 96.6482 671.78 113.701 671.846 134.802C671.912 155.903 654.859 173.023 633.758 173.089Z" fill="#F08DA6"/>
<path d="M549.255 182.144C549.255 180.319 547.961 178.727 546.137 178.362L541.857 177.532C540.596 177.3 539.534 176.438 539.037 175.243L538.008 172.788C537.51 171.594 537.643 170.233 538.34 169.172L540.729 165.555C541.757 164.029 541.525 162.005 540.231 160.712L532.733 153.247C531.439 151.953 529.382 151.754 527.889 152.782L524.273 155.204C523.211 155.934 521.851 156.067 520.656 155.569L518.201 154.541C517.007 154.043 516.144 153.014 515.879 151.754L515.016 147.507C514.651 145.715 513.059 144.421 511.234 144.421H500.683C498.859 144.455 497.266 145.748 496.901 147.54L496.072 151.82C495.84 153.081 494.977 154.142 493.783 154.64L491.327 155.669C490.133 156.166 488.773 156.033 487.711 155.337L484.095 152.948C482.569 151.919 480.545 152.152 479.251 153.446L471.786 160.944C470.492 162.238 470.293 164.295 471.321 165.788L473.743 169.404C474.473 170.466 474.606 171.826 474.108 173.02L473.08 175.475C472.582 176.67 471.554 177.532 470.293 177.798L466.046 178.661C464.255 179.025 462.961 180.618 462.961 182.443V192.993C462.994 194.818 464.288 196.41 466.079 196.775L470.359 197.605C471.62 197.837 472.682 198.7 473.179 199.894L474.208 202.349C474.706 203.544 474.573 204.904 473.876 205.966L471.487 209.582C470.459 211.108 470.691 213.132 471.985 214.426L479.483 221.891C480.777 223.185 482.834 223.384 484.327 222.355L487.943 219.933C489.005 219.203 490.365 219.071 491.56 219.568L494.015 220.597C495.209 221.094 496.072 222.123 496.337 223.384L497.2 227.63C497.565 229.422 499.157 230.716 500.982 230.716H511.532C513.357 230.683 514.95 229.389 515.315 227.597L516.144 223.317C516.376 222.057 517.239 220.995 518.433 220.497L520.889 219.469C522.083 218.971 523.443 219.104 524.505 219.801L528.121 222.189C529.647 223.218 531.671 222.986 532.965 221.692L540.43 214.194C541.724 212.9 541.923 210.843 540.895 209.35L538.473 205.733C537.743 204.672 537.61 203.311 538.108 202.117L539.136 199.662C539.634 198.467 540.662 197.605 541.923 197.339L546.17 196.477C547.961 196.112 549.255 194.519 549.255 192.695V182.144ZM506.224 211.937C492.754 211.971 481.805 201.088 481.772 187.618C481.739 174.148 492.621 163.2 506.091 163.167C519.561 163.133 530.51 174.016 530.543 187.486C530.576 200.956 519.694 211.904 506.224 211.937Z" fill="#F08DA6"/>
<path d="M563.389 278.823C563.389 278.823 548.127 349.624 594.244 411.002C594.244 411.002 612.591 326.632 563.389 278.823Z" fill="#D8D8E7"/>
<path d="M347.901 285.825C347.901 285.825 363.163 356.626 317.046 418.004C317.046 418.004 298.699 333.634 347.901 285.825Z" fill="#D8D8E7"/>
<path d="M467.705 291.963C466.942 291.697 466.179 291.498 465.416 291.299C457.686 289.408 449.391 290.868 441.462 292.294C432.073 294.02 422.65 295.745 413.46 298.432C407.754 300.091 402.113 302.148 396.374 303.674C379.752 308.02 348.532 302.712 332.009 297.935C332.076 302.646 310.378 374.74 310.245 382.703C310.112 389.637 307.292 401.15 303.046 406.657C322.985 412.364 357.656 419.895 375.804 429.981C402.843 445.01 424.409 469.031 452.576 481.804C457.918 484.226 463.757 486.25 469.497 485.221C475.27 484.226 480.678 479.183 480.213 473.377C486.417 475.334 493.02 477.325 499.323 475.699C505.627 474.074 511.101 467.372 508.845 461.234C516.045 465.315 525.766 465.348 532.169 460.139C538.572 454.93 540.231 444.247 534.724 438.076C542.918 441.361 553.436 442.29 559.574 435.92C564.683 430.644 564.782 422.051 561.896 415.316C559.01 408.581 553.701 403.24 548.691 397.898C528.221 376.167 510.537 352.014 492.887 327.894L467.672 291.929L467.705 291.963Z" fill="#F18F7B"/>
<path d="M561.962 415.186C559.076 408.451 553.768 403.109 548.758 397.768C528.287 376.036 510.604 351.883 492.953 327.763L480.379 309.814L491.228 363.363C499.788 368.704 513.092 380.084 517.67 386.653C520.656 390.966 523.311 397.104 521.22 401.915C516.675 412.366 511.433 407.256 510.77 411.569C510.438 413.892 512.097 415.949 512.362 418.271C513.026 424.011 508.945 427.76 503.271 428.722C501.413 429.021 497.764 428.225 496.271 429.386C491.593 433.002 496.072 441.495 492.356 446.107C487.91 451.615 476.53 446.24 473.047 452.411C472.085 454.103 472.151 456.259 471.122 457.952C470.26 459.378 468.767 460.274 467.241 460.871C457.055 464.952 446.239 445.875 437.149 439.704C434.66 438.012 421.953 437.116 419.465 435.424C411.171 429.784 417.043 428.49 408.749 422.85C398.762 416.048 384.463 416.745 374.477 409.944C368.339 405.763 362.168 401.583 355.532 398.332C345.513 393.388 319.667 384.397 309.781 379.42C309.781 379.42 309.781 386.819 309.781 388.013C309.648 394.948 315.952 403.905 311.705 409.38C331.644 415.086 357.689 419.764 375.804 429.85C402.843 444.88 424.409 468.9 452.576 481.673C457.918 484.095 463.757 486.119 469.497 485.124C475.27 484.129 480.678 479.086 480.213 473.279C486.417 475.237 493.02 477.228 499.323 475.602C505.627 473.976 511.101 467.274 508.845 461.137C516.045 465.217 525.766 465.251 532.169 460.042C538.572 454.833 540.231 444.15 534.724 437.979C542.918 441.263 553.436 442.192 559.574 435.822C564.683 430.547 564.782 421.954 561.896 415.219L561.962 415.186Z" fill="#ED7470"/>
<path d="M466.378 291.266C454.733 295.082 437.713 301.684 426.963 307.589C424.375 309.016 421.622 310.708 420.527 313.462C419.996 314.855 419.93 316.381 419.531 317.841C418.37 321.922 414.654 324.709 412.796 328.524C411.171 331.842 411.104 335.691 410.574 339.373C409.844 344.582 408.185 349.592 406.559 354.569C403.241 364.588 399.957 374.608 396.639 384.594C395.975 386.618 395.312 388.675 395.345 390.798C395.478 395.311 398.895 399.126 402.843 401.316C406.294 403.24 410.275 404.202 414.223 404.069C420.328 403.904 426.067 401.216 431.575 398.628C440.732 394.282 450.254 389.67 456.392 381.641C461.999 374.276 465.184 363.792 473.976 360.806C481.076 358.417 488.64 362.133 495.077 365.982C513.523 376.963 530.908 389.704 546.999 403.937C548.658 405.397 550.35 406.923 552.473 407.52C555.426 408.383 558.678 407.288 561.133 405.397C563.555 403.505 565.346 400.918 567.072 398.363L466.411 291.299L466.378 291.266Z" fill="#ED7470"/>
<path d="M601.41 394.017C591.888 397.501 573.276 401.913 563.787 405.397C561.863 406.094 559.872 406.791 557.848 406.658C555.194 406.459 552.872 404.8 550.715 403.241C531.207 388.875 511.732 374.542 492.223 360.176C487.844 356.958 483.365 353.673 478.189 352.114C472.98 350.522 466.876 350.953 462.795 354.536C459.278 357.622 457.918 362.432 456.193 366.779C451.913 377.561 445.111 388.576 434.826 393.918C424.541 399.259 411.138 397.235 400.919 391.761C407.322 369.665 413.261 348.83 419.664 326.767C420.759 323.018 421.854 319.235 423.778 315.851C431.509 302.116 449.259 298.698 463.624 292.229C468.734 289.94 473.644 287.119 479.085 285.826C494.148 282.242 508.978 291.034 523.642 295.978C538.34 300.954 569.958 295.845 585.253 293.158L601.477 394.017H601.41Z" fill="#F39F85"/>
<path d="M400.886 391.759L411.204 356.094L423.447 359.643C423.447 359.643 427.196 360.44 426.399 364.189L414.356 396.305C414.356 396.305 407.488 396.039 400.886 391.759Z" fill="#F7BB99"/>
<path d="M411.204 356.094L423.446 359.643C423.446 359.643 410.806 367.208 411.204 356.094Z" fill="#FACFB0"/>
<path d="M375.24 427.924C371.325 434.792 360.376 435.886 350.788 430.412C341.2 424.938 336.588 414.951 340.503 408.117C344.418 401.249 355.366 400.154 364.955 405.629C374.543 411.103 379.155 421.089 375.24 427.924Z" fill="#F39F85"/>
<path d="M409.081 448.162C403.54 453.802 390.9 457.817 381.311 452.343C371.723 446.868 367.111 436.882 371.026 430.047C374.941 423.18 394.151 418.402 403.739 423.876C413.327 429.351 416.712 440.399 409.081 448.162Z" fill="#F39F85"/>
<path d="M440.201 462.729C436.054 469.431 424.575 476.166 414.024 472.947C403.474 469.729 396.772 461.003 399.061 453.472C401.35 445.941 419.067 437.016 429.618 440.234C440.168 443.453 445.908 453.472 440.201 462.729Z" fill="#F39F85"/>
<path d="M457.354 478.983C454.268 483.993 445.709 489.003 437.812 486.614C429.916 484.225 424.939 477.689 426.632 472.049C428.357 466.409 441.561 459.773 449.458 462.162C457.354 464.551 461.634 472.049 457.354 478.95V478.983Z" fill="#F39F85"/>
<path d="M363.395 423.147C363.097 422.948 362.798 422.783 362.5 422.583C360.277 421.09 358.22 419.365 356.362 417.474C354.703 415.782 353.11 413.692 353.243 411.336C353.376 408.881 355.532 406.824 357.921 406.293C360.343 405.762 362.898 406.492 364.988 407.819C368.936 410.275 373.349 414.588 372.387 419.697C371.955 422.086 369.965 424.275 367.543 424.441C366.083 424.541 364.689 423.944 363.395 423.181V423.147Z" fill="#F7BB99"/>
<path d="M354.968 415.948C354.968 415.948 358.85 420.692 364.457 423.778C364.457 423.778 365.386 415.218 354.968 415.948Z" fill="#FACFB0"/>
<path d="M400.521 443.154C400.189 442.955 399.857 442.756 399.559 442.523C397.17 440.898 394.947 439.073 392.956 437.016C391.165 435.191 389.44 432.935 389.572 430.381C389.738 427.726 392.027 425.503 394.615 424.939C397.203 424.342 399.957 425.172 402.213 426.565C406.493 429.219 411.204 433.864 410.176 439.372C409.678 441.959 407.588 444.315 404.967 444.514C403.374 444.614 401.881 443.983 400.521 443.154Z" fill="#F7BB99"/>
<path d="M391.132 434.959C391.132 434.959 395.412 440.632 402.047 443.983C402.047 443.983 402.976 435.025 391.132 434.959Z" fill="#FACFB0"/>
<path d="M429.186 461.103C428.854 460.904 428.523 460.704 428.224 460.472C425.835 458.847 423.612 457.022 421.622 454.965C419.83 453.14 418.105 450.884 418.238 448.329C418.404 445.675 420.693 443.452 423.281 442.888C425.868 442.291 428.622 443.12 430.878 444.514C435.158 447.168 439.869 451.813 438.841 457.32C438.376 459.908 436.253 462.264 433.632 462.463C432.039 462.562 430.547 461.932 429.186 461.103Z" fill="#F7BB99"/>
<path d="M419.764 452.876C419.764 452.876 424.044 458.583 430.679 461.9C430.679 461.9 431.608 452.942 419.764 452.876Z" fill="#FACFB0"/>
<path d="M450.353 477.425C450.154 477.293 449.922 477.16 449.723 477.027C448.197 475.999 446.77 474.804 445.476 473.511C444.315 472.349 443.22 470.889 443.32 469.264C443.419 467.572 444.912 466.145 446.571 465.78C448.23 465.415 449.988 465.913 451.448 466.842C454.202 468.534 457.221 471.52 456.557 475.07C456.259 476.729 454.898 478.255 453.206 478.354C452.178 478.421 451.216 478.023 450.353 477.492V477.425Z" fill="#F7BB99"/>
<path d="M444.315 472.151C444.315 472.151 447.069 475.8 451.315 477.957C451.315 477.957 451.913 472.217 444.315 472.151Z" fill="#FACFB0"/>
<path d="M609.97 245.879C609.97 245.879 606.619 343.222 650.38 418.999C650.38 418.999 663.286 326.866 609.97 245.879Z" fill="#111315"/>
<path d="M563.389 278.824C563.389 278.824 601.775 318.405 594.244 411.003L660.101 395.642L636.91 261.671L563.389 278.824Z" fill="white"/>
<path d="M609.97 245.879C609.97 245.879 648.622 319.865 650.38 418.999L848.283 385.656L812.784 204.109L609.97 245.879Z" fill="#252A2D"/>
<path d="M618.33 405.395L649.451 398.129C649.451 398.129 648.422 340.002 618.994 265.851L589.499 272.718C589.499 272.718 646.432 303.54 628.45 374.872C621.316 403.205 618.33 405.362 618.33 405.362V405.395Z" fill="#D8D8E7"/>
<path d="M301.32 252.881C301.32 252.881 304.671 350.223 260.91 426.001C260.91 426.001 248.037 333.867 301.32 252.881Z" fill="#111315"/>
<path d="M347.901 285.826C347.901 285.826 309.515 325.406 317.046 418.005L251.189 402.643L274.38 268.673L347.901 285.826Z" fill="white"/>
<path d="M301.32 252.88C301.32 252.88 262.668 326.866 260.91 426L69.9075 397.6L122.826 200.261L301.32 252.88Z" fill="#252A2D"/>
<path d="M292.96 412.396L261.839 405.131C261.839 405.131 262.868 347.004 292.296 272.852L321.791 279.72C321.791 279.72 264.858 310.542 282.84 381.873C289.974 410.207 292.96 412.363 292.96 412.363V412.396Z" fill="#D8D8E7"/>
</svg>
